<?xml version="1.0" encoding="UTF-8" standalone="no"?>
<!-- Created with Inkscape (http://www.inkscape.org/) -->

<svg
   width="300mm"
   height="300mm"
   viewBox="0 0 300 300"
   version="1.1"
   id="svg8"
   inkscape:version="1.2.2 (b0a8486541, 2022-12-01)"
   sodipodi:docname="aGrad.svg"
   xmlns:inkscape="http://www.inkscape.org/namespaces/inkscape"
   xmlns:sodipodi="http://sodipodi.sourceforge.net/DTD/sodipodi-0.dtd"
   xmlns:xlink="http://www.w3.org/1999/xlink"
   xmlns="http://www.w3.org/2000/svg"
   xmlns:svg="http://www.w3.org/2000/svg"
   xmlns:rdf="http://www.w3.org/1999/02/22-rdf-syntax-ns#"
   xmlns:cc="http://creativecommons.org/ns#"
   xmlns:dc="http://purl.org/dc/elements/1.1/">
  <defs
     id="defs2">
    <linearGradient
       inkscape:collect="always"
       id="linearGradient1786">
      <stop
         style="stop-color:#0af3f9;stop-opacity:1;"
         offset="0.33561146"
         id="stop1782" />
      <stop
         style="stop-color:#0af3f9;stop-opacity:0;"
         offset="1"
         id="stop1784" />
    </linearGradient>
    <radialGradient
       inkscape:collect="always"
       xlink:href="#linearGradient1786"
       id="radialGradient1788"
       cx="86.832329"
       cy="133.46478"
       fx="86.832329"
       fy="133.46478"
       r="132.76282"
       gradientTransform="matrix(1.1271034,0,0,1.1282152,54.450725,-2.1450379)"
       gradientUnits="userSpaceOnUse" />
  </defs>
  <sodipodi:namedview
     id="base"
     pagecolor="#ffffff"
     bordercolor="#666666"
     borderopacity="1.0"
     inkscape:pageopacity="0.0"
     inkscape:pageshadow="2"
     inkscape:zoom="0.48892506"
     inkscape:cx="566.54899"
     inkscape:cy="485.75951"
     inkscape:document-units="mm"
     inkscape:current-layer="layer1"
     showgrid="false"
     inkscape:window-width="1920"
     inkscape:window-height="1043"
     inkscape:window-x="0"
     inkscape:window-y="0"
     inkscape:window-maximized="1"
     inkscape:showpageshadow="2"
     inkscape:pagecheckerboard="0"
     inkscape:deskcolor="#d1d1d1" />
  <metadata
     id="metadata5">
    <rdf:RDF>
      <cc:Work
         rdf:about="">
        <dc:format>image/svg+xml</dc:format>
        <dc:type
           rdf:resource="http://purl.org/dc/dcmitype/StillImage" />
      </cc:Work>
    </rdf:RDF>
  </metadata>
  <g
     inkscape:label="Layer 1"
     inkscape:groupmode="layer"
     id="layer1"
     transform="translate(0,3)">
    <g
       id="g1821">
      <ellipse
         style="fill:url(#radialGradient1788);fill-opacity:1;stroke-width:0.390014"
         id="path925"
         cx="152.31973"
         cy="148.43198"
         rx="149.63742"
         ry="149.78502" />
      <g
         id="g1017"
         transform="matrix(0.55224946,0,0,0.63563376,75.644706,48.603959)"
         style="fill:#ffffff">
        <path
           style="fill:#ffffff;stroke-width:0.264583"
           id="path961"
           d="m 32.40537,285.50989 c 1.864191,-4.97927 4.741648,-9.50068 7.305632,-14.13452 0.908685,-1.64224 1.79686,-3.29573 2.695292,-4.9436 7.834236,-15.20505 15.837228,-30.32058 24.093485,-45.30068 4.668499,-9.57557 10.148977,-18.70504 15.527348,-27.88628 1.712576,-2.92348 3.365595,-5.88174 5.091917,-8.79712 3.219865,-5.43765 6.544206,-10.81277 9.802251,-16.22763 7.358765,-12.37801 15.356355,-24.34968 23.331605,-36.333 4.01836,-6.43483 8.25133,-12.73682 12.60039,-18.95255 1.01353,-1.44854 2.08109,-2.85928 3.07491,-4.32143 0.9785,-1.4396 1.89377,-2.92118 2.84066,-4.38177 4.32314,-7.059207 8.84834,-13.992753 13.2009,-21.032419 2.98783,-5.307343 6.40699,-10.344372 9.7056,-15.458484 3.86095,-5.5348 6.21914,-11.854275 8.46854,-18.163852 0,0 -36.00375,-19.811354 -36.00375,-19.811354 v 0 c -0.3041,1.010615 -0.56997,2.033534 -0.9123,3.031849 -1.72135,5.019842 -4.20517,9.712309 -7.10639,14.144472 -1.72025,2.576716 -3.42495,5.151292 -5.08542,7.766531 -0.68019,1.071311 -2.7496,4.224327 -3.38737,5.32837 -0.50091,0.867105 -0.93558,1.770811 -1.40338,2.656218 -3.50463,7.408431 -7.31926,14.671164 -11.52398,21.708139 -5.771783,9.462108 -12.236752,18.48518 -17.846736,28.05214 -0.967388,1.63925 -5.416804,9.16587 -6.288545,10.69742 -5.093515,8.94875 -9.73223,18.14418 -14.582095,27.22439 -4.684559,8.51021 -9.36425,17.02325 -14.030322,25.54362 -5.112205,9.33501 -10.202355,18.68796 -15.892558,27.69037 -1.655932,2.86661 -3.273512,5.75572 -4.967795,8.59984 -7.028033,11.79763 -14.514614,23.3393 -22.388257,34.58783 -4.2877668,5.85018 -8.42563726,11.95868 -13.8445148,16.84177 0,0 37.5248828,21.87173 37.5248828,21.87173 z" />
        <path
           style="fill:#ffffff;stroke-width:0.264583"
           id="path963"
           d="m 123.34737,16.983319 c 0.34216,2.321621 0.35127,4.667965 0.73902,6.986284 0.30818,1.84259 1.06278,5.181039 1.45206,6.962553 2.33698,10.428237 7.20197,20.00522 11.6599,29.638931 1.12336,2.531216 2.30417,5.037709 3.37009,7.593645 0.78451,1.881137 6.00216,15.463996 6.50261,16.775255 3.52127,9.22622 6.81467,18.506633 10.01361,27.848523 2.34089,6.9298 3.07658,8.90679 5.12793,15.71423 1.64386,5.45519 1.83637,6.75594 3.54754,12.01934 1.13066,3.47779 2.36842,6.72086 3.63603,10.14438 3.51819,9.41431 8.72399,18.06006 13.99925,26.57155 1.92355,3.05076 3.77942,6.14455 5.50477,9.31201 0.33875,0.6219 0.63419,1.26774 0.99478,1.87724 1.20232,2.03232 2.92126,4.38635 4.21507,6.24044 6.02617,8.24324 11.09764,17.10747 16.4166,25.80459 7.28324,9.84043 13.22507,20.55847 18.55777,31.55248 0.51932,1.11731 1.03686,2.23546 1.55796,3.35196 0.82665,1.77115 1.46587,3.24156 2.464,4.91245 0.53663,0.89831 1.14523,1.75167 1.70786,2.63392 1.50441,2.35908 1.61966,2.58376 3.00611,4.89133 1.09096,1.68883 2.03768,3.49482 3.25847,5.09958 0.0595,0.0781 1.71518,2.02422 1.92926,2.15227 12.46211,7.45498 25.04634,14.70391 37.56952,22.05586 0,0 -33.39032,-27.01666 -33.39032,-27.01666 v 0 c 11.84441,6.9637 23.68635,13.93161 35.53323,20.89113 0.40749,0.23937 -0.82362,-0.46575 -1.21497,-0.7307 -0.41857,-0.28334 -2.39207,-1.79904 -2.69634,-2.10037 -0.69419,-0.68744 -2.43612,-2.95876 -2.97762,-3.64784 -1.62137,-2.36347 -1.71196,-2.43189 -3.23731,-4.92088 -0.50702,-0.82732 -0.96433,-1.68494 -1.4854,-2.50348 -1.93481,-3.03938 -4.23994,-5.83449 -6.00844,-8.98425 -3.38919,-5.35588 -6.75594,-10.70753 -9.78531,-16.27974 -6.79645,-12.50135 0.13278,0.0831 -5.45701,-11.28124 -0.63213,-1.28517 -1.40256,-2.49756 -2.10385,-3.74633 -5.83968,-8.43523 -12.39495,-16.46405 -16.80561,-25.79832 -0.34064,-0.71003 -2.20077,-4.65788 -2.78045,-5.64016 -0.45483,-0.77072 -0.9857,-1.49429 -1.5006,-2.22626 -2.34516,-3.3338 -4.84643,-6.55916 -7.07919,-9.97267 -1.82926,-2.79781 -3.71168,-5.61604 -5.42742,-8.48622 -3.38297,-5.6592 -6.24362,-11.61151 -9.10745,-17.54329 -5.70036,-12.91764 -10.75479,-26.11083 -15.74291,-39.31648 -2.07349,-5.40652 -5.00628,-12.93256 -6.90098,-18.37252 -6.78682,-19.486031 0.38123,0.4377 -5.61599,-18.08701 -1.63398,-5.047191 -3.77444,-9.921009 -5.33764,-14.993532 -0.75827,-2.095415 -1.51655,-4.190833 -2.27482,-6.286249 -0.62686,-1.785522 -1.23819,-3.576571 -1.88058,-5.356563 -1.89113,-5.24011 -3.9148,-10.445954 -5.00679,-15.932685 -0.17754,-1.090646 -0.39773,-2.175203 -0.53262,-3.27194 -0.36172,-2.940794 -0.21934,-5.918981 0.24118,-8.838856 0,0 -38.655,-19.695706 -38.655,-19.695706 z" />
        <path
           style="fill:#ffffff;stroke-width:0.264583"
           id="path965"
           d="m 110.75046,200.40711 c 6.41057,-3.27913 13.50358,-4.92711 20.46226,-6.5957 1.81596,-0.3101 3.63373,-0.60971 5.44786,-0.9303 1.84539,-0.32611 3.68181,-0.70307 5.53052,-1.00977 4.90299,-0.81342 9.85141,-1.33381 14.75771,-2.11805 1.43042,-0.22865 2.84969,-0.52229 4.27453,-0.78344 6.51596,-1.10458 12.75388,-3.43154 18.79844,-6.04573 4.73522,-2.04655 9.77508,-3.22662 14.64453,-4.88507 0.78001,-0.23223 1.56002,-0.46446 2.34002,-0.69669 0,0 -34.66189,-23.52288 -34.66189,-23.52288 v 0 c -0.71302,0.26376 -1.42603,0.52752 -2.13905,0.79129 -4.99715,1.52412 -10.02493,2.99432 -14.73845,5.29267 -5.60479,2.39899 -11.24155,4.80774 -17.23994,6.0503 -9.6634,2.00339 -19.35864,3.86363 -29.086973,5.523 -5.697754,0.96947 -5.219522,0.82406 -10.582431,1.96665 -4.480771,0.95465 -8.9204,2.16592 -13.493945,2.61389 0,0 35.686809,24.34983 35.686809,24.34983 z" />
      </g>
    </g>
  </g>
</svg>
