<?xml version="1.0" encoding="UTF-8" standalone="no"?>
<!-- Created with Inkscape (http://www.inkscape.org/) -->

<svg
   width="300mm"
   height="300mm"
   viewBox="0 0 300 300"
   version="1.1"
   id="svg8"
   inkscape:version="1.2.2 (b0a8486541, 2022-12-01)"
   sodipodi:docname="b.svg"
   xmlns:inkscape="http://www.inkscape.org/namespaces/inkscape"
   xmlns:sodipodi="http://sodipodi.sourceforge.net/DTD/sodipodi-0.dtd"
   xmlns="http://www.w3.org/2000/svg"
   xmlns:svg="http://www.w3.org/2000/svg"
   xmlns:rdf="http://www.w3.org/1999/02/22-rdf-syntax-ns#"
   xmlns:cc="http://creativecommons.org/ns#"
   xmlns:dc="http://purl.org/dc/elements/1.1/">
  <defs
     id="defs2">
    <filter
       inkscape:label="Oil Painting"
       inkscape:menu-tooltip="Simulate oil painting style"
       inkscape:menu="Image Paint and Draw"
       style="color-interpolation-filters:sRGB;"
       id="filter2358"
       x="-0.022044384"
       y="-0.019708963"
       width="1.0440888"
       height="1.0394179">
      <feTurbulence
         type="turbulence"
         result="result1"
         numOctaves="7"
         seed="300"
         baseFrequency="0.2"
         id="feTurbulence2340" />
      <feDisplacementMap
         xChannelSelector="R"
         in2="result1"
         result="result7"
         id="feDisplacementMap2342" />
      <feBlend
         in="result7"
         in2="SourceGraphic"
         mode="screen"
         result="fbSourceGraphic"
         id="feBlend2344" />
      <feColorMatrix
         result="fbSourceGraphicAlpha"
         values="1 0 0 -1 0 1 0 1 -1 0 1 0 0 -1 0 -0.8 -1 0 4 -2.5 "
         id="feColorMatrix2346" />
      <feGaussianBlur
         result="result0"
         in="fbSourceGraphicAlpha"
         stdDeviation="0.5"
         id="feGaussianBlur2348" />
      <feSpecularLighting
         result="result6"
         surfaceScale="5"
         specularConstant="1"
         specularExponent="5"
         id="feSpecularLighting2352">
        <feDistantLight
           azimuth="225"
           elevation="35"
           id="feDistantLight2350" />
      </feSpecularLighting>
      <feComposite
         in2="SourceGraphic"
         k3="1"
         k2="0.5"
         operator="arithmetic"
         result="result4"
         id="feComposite2354" />
      <feComposite
         operator="in"
         result="fbSourceGraphic"
         in="result4"
         in2="SourceGraphic"
         id="feComposite2356" />
      <feColorMatrix
         result="fbSourceGraphicAlpha"
         in="fbSourceGraphic"
         values="0 0 0 -1 0 0 0 0 -1 0 0 0 0 -1 0 0 0 0 1 0"
         id="feColorMatrix2360" />
      <feTurbulence
         id="feTurbulence2362"
         type="turbulence"
         result="result1"
         numOctaves="7"
         seed="300"
         baseFrequency="0.2"
         in="fbSourceGraphic" />
      <feDisplacementMap
         in2="result1"
         id="feDisplacementMap2364"
         xChannelSelector="R"
         result="result7" />
      <feBlend
         in2="fbSourceGraphic"
         id="feBlend2366"
         in="result7"
         mode="screen"
         result="fbSourceGraphic" />
      <feColorMatrix
         id="feColorMatrix2368"
         result="fbSourceGraphicAlpha"
         values="1 0 0 -1 0 1 0 1 -1 0 1 0 0 -1 0 -0.8 -1 0 4 -2.5 " />
      <feGaussianBlur
         id="feGaussianBlur2370"
         result="result0"
         in="fbSourceGraphicAlpha"
         stdDeviation="0.5" />
      <feSpecularLighting
         id="feSpecularLighting2372"
         result="result6"
         surfaceScale="5"
         specularConstant="1"
         specularExponent="5">
        <feDistantLight
           id="feDistantLight2374"
           azimuth="225"
           elevation="35" />
      </feSpecularLighting>
      <feComposite
         in2="fbSourceGraphic"
         id="feComposite2376"
         k3="1"
         k2="0.5"
         operator="arithmetic"
         result="result4" />
      <feComposite
         in2="fbSourceGraphic"
         id="feComposite2378"
         operator="in"
         result="fbSourceGraphic"
         in="result4" />
      <feColorMatrix
         result="fbSourceGraphicAlpha"
         in="fbSourceGraphic"
         values="0 0 0 -1 0 0 0 0 -1 0 0 0 0 -1 0 0 0 0 1 0"
         id="feColorMatrix2743" />
      <feGaussianBlur
         id="feGaussianBlur2745"
         stdDeviation="2 2"
         result="fbSourceGraphic"
         in="fbSourceGraphic" />
      <feColorMatrix
         result="fbSourceGraphicAlpha"
         in="fbSourceGraphic"
         values="0 0 0 -1 0 0 0 0 -1 0 0 0 0 -1 0 0 0 0 1 0"
         id="feColorMatrix3110" />
      <feMorphology
         id="feMorphology3112"
         radius="2"
         in="fbSourceGraphic"
         result="result0" />
      <feTurbulence
         id="feTurbulence3114"
         numOctaves="1"
         baseFrequency="0.078"
         result="result91" />
      <feDisplacementMap
         in2="result91"
         id="feDisplacementMap3116"
         in="result0"
         scale="6.3"
         xChannelSelector="R"
         yChannelSelector="G" />
    </filter>
  </defs>
  <sodipodi:namedview
     id="base"
     pagecolor="#ffffff"
     bordercolor="#666666"
     borderopacity="1.0"
     inkscape:pageopacity="0.0"
     inkscape:pageshadow="2"
     inkscape:zoom="0.48892506"
     inkscape:cx="571.66225"
     inkscape:cy="487.80482"
     inkscape:document-units="mm"
     inkscape:current-layer="layer1"
     showgrid="false"
     inkscape:window-width="1920"
     inkscape:window-height="1043"
     inkscape:window-x="0"
     inkscape:window-y="0"
     inkscape:window-maximized="1"
     inkscape:showpageshadow="2"
     inkscape:pagecheckerboard="0"
     inkscape:deskcolor="#d1d1d1" />
  <metadata
     id="metadata5">
    <rdf:RDF>
      <cc:Work
         rdf:about="">
        <dc:format>image/svg+xml</dc:format>
        <dc:type
           rdf:resource="http://purl.org/dc/dcmitype/StillImage" />
      </cc:Work>
    </rdf:RDF>
  </metadata>
  <g
     inkscape:label="Layer 1"
     inkscape:groupmode="layer"
     id="layer1"
     transform="translate(0,3)">
    <g
       id="g850"
       transform="translate(9.5250005)"
       style="filter:url(#filter2358)">
      <path
         style="fill:#000000;stroke-width:0.264583"
         id="path841"
         d="m 22.254735,17.076081 c 0.970538,13.523166 1.837471,27.054454 2.64729,40.588389 0.721081,13.644089 1.33298,27.302669 1.506738,40.966607 0.100312,7.888193 0.01382,10.722653 -0.09006,18.480343 0.06905,14.10212 -0.78518,28.18832 -0.553435,42.29006 0.03469,7.78226 0.544186,15.56874 1.603861,23.27879 0.271695,1.27466 0.521721,2.55413 0.815088,3.82398 0.881269,3.81461 1.109435,4.23886 1.996189,8.01696 1.966616,8.37892 -0.3057,-0.99808 1.27594,6.2551 0.216969,0.99498 0.487251,1.97759 0.73088,2.96638 0.441661,1.39406 0.874424,2.79097 1.324988,4.18218 0.552233,1.70514 1.157951,3.39311 1.683348,5.10671 2.065271,6.73594 3.612091,13.64384 5.142904,20.51583 2.025373,9.11027 3.044249,18.40867 3.231026,27.73135 0,0 36.482983,18.16834 36.482983,18.16834 v 0 c -1.526911,-9.61808 -2.458379,-19.33016 -4.502841,-28.86559 -0.198313,-1.00981 -1.852345,-9.48261 -2.100334,-10.54731 -1.423784,-6.11279 -3.513674,-12.10005 -4.120319,-18.38537 -0.206886,-1.02475 -0.353073,-2.06365 -0.620652,-3.07424 -0.274108,-1.03526 -0.678852,-2.03155 -1.001585,-3.0527 -1.528022,-4.83472 -2.854023,-9.75383 -3.545324,-14.78539 -1.312847,-7.9379 -2.477529,-15.90264 -3.598815,-23.86862 -0.197136,-1.90423 -0.426866,-3.80538 -0.591407,-5.71271 -1.083633,-12.5611 -1.116844,-25.19412 -1.611953,-37.78391 -0.897387,-19.93718 -1.495981,-39.886882 -2.05536,-59.835907 -0.01474,-3.223083 -0.108474,-6.446774 -0.04418,-9.669248 0.126313,-6.330807 0.367356,-9.975982 1.366708,-16.074967 0.419315,-2.559042 1.162323,-6.02638 2.127195,-8.580503 0.207803,-0.550079 0.542859,-1.04326 0.814289,-1.564889 0,0 -38.313162,-20.569665 -38.313162,-20.569665 z" />
      <path
         style="fill:#000000;stroke-width:0.264583"
         id="path843"
         d="m 74.467738,47.802463 c 0.737547,-0.25472 1.454594,-0.579168 2.212641,-0.764159 2.640015,-0.644253 6.614642,-1.099656 9.168032,-1.333447 6.730505,-0.616252 13.482542,-0.723329 20.234709,-0.848604 10.50671,-0.06338 21.14586,0.222091 31.47491,2.353702 1.81811,0.375205 3.60483,0.889082 5.40725,1.333624 1.66184,0.534122 3.34392,1.008936 4.98551,1.602367 3.37348,1.219502 6.01399,2.441601 9.19339,4.085291 1.42323,0.735782 5.60191,3.112307 4.21383,2.312191 -33.93803,-19.562466 -40.11323,-23.489144 -27.31584,-15.471317 3.7353,2.426105 7.02753,5.343488 9.20371,9.281104 1.3774,2.492309 1.60397,3.56693 2.502,6.243304 2.1635,7.440779 2.06475,15.220574 2.20886,22.892496 -0.0121,5.366972 -0.69169,10.726592 -2.31364,15.853193 -0.82495,2.607474 -1.32037,3.54933 -2.3933,5.947212 -1.8038,3.78006 -3.8799,6.5968 -7.42954,8.95777 -1.15791,0.77016 -2.40539,1.39632 -3.60809,2.09448 -1.43501,0.69675 -2.85476,1.42583 -4.30503,2.09023 -4.5291,2.07487 -9.17289,3.91061 -13.74326,5.89187 -3.80088,1.64769 -4.36315,1.93062 -8.05875,3.63134 -5.02448,2.41319 -10.173991,4.56135 -15.207704,6.95196 -0.50528,0.25474 -1.01722,0.49668 -1.515835,0.76422 -0.827733,0.44415 -1.611135,0.97333 -2.46243,1.37045 -2.511179,1.17143 -4.53731,1.7331 -7.181659,2.59006 0,0 33.385218,22.71954 33.385218,22.71954 v 0 c 3.53706,-1.10359 4.34722,-1.3845 7.92428,-2.38723 1.1848,-0.33212 2.39556,-0.57506 3.56492,-0.95801 0.69757,-0.22845 1.34813,-0.58114 2.02219,-0.87171 4.20457,-2.92109 8.44545,-5.80462 13.08231,-8.01483 3.88552,-2.00569 7.78303,-4.00369 11.76692,-5.80973 4.67424,-2.119 9.45825,-3.99073 14.15299,-6.06262 3.66994,-1.74467 7.75243,-3.36235 10.65572,-6.34117 1.76622,-1.81216 2.44889,-4.29622 3.10428,-6.64962 0.93927,-3.60219 1.8076,-7.21966 2.68742,-10.83682 0.35075,-1.44202 0.76607,-2.86981 1.05308,-4.32585 0.69089,-3.50499 0.66079,-4.74191 0.89484,-8.272867 -0.0118,-3.993306 -0.0932,-7.97356 -0.28386,-11.962937 -0.066,-1.381342 -0.34945,-6.648423 -0.50528,-8.052911 -0.13799,-1.243714 -0.38014,-2.473653 -0.5702,-3.71048 -0.30764,-1.187193 -0.56269,-2.389272 -0.92292,-3.56158 -0.77611,-2.525765 -1.59989,-4.514233 -2.8311,-6.85093 -0.56294,-1.068385 -1.09971,-2.164614 -1.82829,-3.127685 -1.43966,-1.902991 -3.47674,-3.318941 -5.3141,-4.777268 -15.26283,-10.165953 -5.74111,-3.933526 -41.43095,-24.107844 -1.36095,-0.7693 -2.79407,-1.405654 -4.22103,-2.044255 -4.59986,-2.05857 -9.37595,-3.722868 -14.32145,-4.727808 -1.75881,-0.306777 -3.50969,-0.663147 -5.27643,-0.92033 -10.278593,-1.496246 -20.707957,-1.7226 -31.070535,-1.26713 -7.018747,0.187652 -14.036804,0.380369 -21.05887,0.372665 -2.246302,-0.0025 -8.945306,-0.06113 -11.508912,-0.221262 -1.088379,-0.06798 -2.16739,-0.243285 -3.251086,-0.364928 0,0 34.831081,25.306263 34.831081,25.306263 z" />
      <path
         style="fill:#000000;stroke-width:0.264583"
         id="path845"
         d="m 80.713291,159.30401 c 0.780928,0.10563 1.558208,0.24308 2.342784,0.31687 8.741217,0.82219 1.051031,-0.20713 12.136938,1.00872 7.251547,0.79531 12.363697,1.66156 19.690417,2.57833 3.73601,0.46747 7.48048,0.86459 11.22072,1.29688 14.64195,1.63445 29.28273,3.35759 43.83261,5.68974 3.17616,0.50909 6.35621,1.00078 9.51598,1.60331 2.95874,0.5642 5.89,1.264 8.83499,1.896 11.71031,2.67777 22.75255,7.47752 33.26782,13.20638 2.58583,1.4088 10.21657,5.86158 7.65088,4.41644 -8.47235,-4.77209 -16.9141,-9.59831 -25.37115,-14.39747 4.31269,2.90128 8.81064,5.81056 12.15891,9.86727 1.57987,1.91414 1.86161,2.66758 3.03416,4.81381 1.58364,3.51541 2.52261,7.20843 1.67775,11.06868 -0.89039,4.06825 -1.78513,5.1846 -3.70836,8.94521 -4.80866,7.64822 -11.41018,13.82443 -18.58463,19.22084 -1.52804,1.14935 -3.10711,2.22923 -4.66067,3.34385 -6.52062,4.37607 -13.48,8.12031 -20.67219,11.27294 -3.75294,1.64506 -6.20127,2.49064 -10.00825,3.89976 -3.0187,0.99778 -5.33061,1.80969 -8.37225,2.64011 -1.14337,0.31217 -2.30904,0.53775 -3.45436,0.84273 -1.04239,0.27757 -2.06622,0.62157 -3.10716,0.90449 -0.86273,0.23449 -4.45494,1.10333 -5.38128,1.32888 -7.68425,1.70398 -15.53996,2.1488 -23.38264,2.37388 -6.14387,0.11324 -12.33035,-0.0443 -18.44429,-0.71846 -4.049328,-0.44651 -6.66071,-0.94861 -10.709213,-1.63065 -3.528285,-0.80035 -7.338457,-1.60276 -10.816127,-2.63006 -1.509284,-0.44584 -2.983227,-1.00359 -4.474842,-1.50539 0,0 31.762342,24.4464 31.762342,24.4464 v 0 c 4.83644,1.08474 9.67887,2.14447 14.55441,3.04215 4.53705,0.78414 6.91562,1.26378 11.45638,1.78469 6.29619,0.72234 12.63502,0.84998 18.96027,0.49319 7.3893,-0.32102 14.87401,-0.38047 22.20074,-1.4971 1.05778,-0.16121 2.09974,-0.41312 3.14961,-0.61965 6.47475,-1.90386 12.70691,-4.55425 18.84711,-7.33864 4.98307,-2.27743 10.03792,-4.48083 14.89148,-7.02731 5.37188,-2.81845 10.49097,-6.10574 15.67642,-9.24284 3.92526,-2.67979 5.90624,-3.88432 9.52379,-6.92664 5.77953,-4.86052 10.72888,-10.68163 15.02016,-16.87196 2.47734,-3.97198 5.82847,-8.67082 6.9063,-13.31064 0.73177,-3.15013 -0.18438,-6.26659 -1.22668,-9.20274 -1.37337,-3.19838 -2.72902,-6.166 -5.12577,-8.77396 -3.60708,-3.92496 -8.36487,-6.57784 -12.74148,-9.49953 -12.62979,-7.31682 -25.22174,-14.69936 -37.88938,-21.95045 -7.61289,-4.3577 -15.97246,-8.46045 -24.18025,-11.54162 -7.89894,-2.96522 -9.12908,-3.01631 -17.20239,-4.99067 -2.8524,-0.49736 -5.69461,-1.05707 -8.55718,-1.49206 -3.0029,-0.45632 -6.02098,-0.80724 -9.03524,-1.18127 -14.25966,-1.76943 -28.56649,-3.14043 -42.825577,-4.91699 -17.764615,-2.58594 -35.614634,-5.37964 -52.753305,-10.87882 0,0 34.371693,25.84337 34.371693,25.84337 z" />
    </g>
  </g>
</svg>
