<?xml version="1.0" encoding="UTF-8" standalone="no"?>
<!-- Created with Inkscape (http://www.inkscape.org/) -->

<svg
   width="300mm"
   height="300mm"
   viewBox="0 0 300 300"
   version="1.1"
   id="svg8"
   inkscape:version="1.2.2 (b0a8486541, 2022-12-01)"
   sodipodi:docname="cGrad.svg"
   xmlns:inkscape="http://www.inkscape.org/namespaces/inkscape"
   xmlns:sodipodi="http://sodipodi.sourceforge.net/DTD/sodipodi-0.dtd"
   xmlns:xlink="http://www.w3.org/1999/xlink"
   xmlns="http://www.w3.org/2000/svg"
   xmlns:svg="http://www.w3.org/2000/svg"
   xmlns:rdf="http://www.w3.org/1999/02/22-rdf-syntax-ns#"
   xmlns:cc="http://creativecommons.org/ns#"
   xmlns:dc="http://purl.org/dc/elements/1.1/">
  <defs
     id="defs2">
    <linearGradient
       inkscape:collect="always"
       id="linearGradient1052">
      <stop
         style="stop-color:#f78d8d;stop-opacity:1;"
         offset="0.17118338"
         id="stop1048" />
      <stop
         style="stop-color:#f78d8d;stop-opacity:0;"
         offset="1"
         id="stop1050" />
    </linearGradient>
    <radialGradient
       inkscape:collect="always"
       xlink:href="#linearGradient1052"
       id="radialGradient1054"
       cx="148.90352"
       cy="146.7932"
       fx="148.90352"
       fy="146.7932"
       r="148.15681"
       gradientTransform="matrix(1,0,0,1.0062329,0,-0.91494737)"
       gradientUnits="userSpaceOnUse" />
  </defs>
  <sodipodi:namedview
     id="base"
     pagecolor="#ffffff"
     bordercolor="#666666"
     borderopacity="1.0"
     inkscape:pageopacity="0.0"
     inkscape:pageshadow="2"
     inkscape:zoom="0.48892506"
     inkscape:cx="570.6396"
     inkscape:cy="510.30315"
     inkscape:document-units="mm"
     inkscape:current-layer="layer1"
     showgrid="false"
     inkscape:window-width="1920"
     inkscape:window-height="1043"
     inkscape:window-x="0"
     inkscape:window-y="0"
     inkscape:window-maximized="1"
     inkscape:showpageshadow="2"
     inkscape:pagecheckerboard="0"
     inkscape:deskcolor="#d1d1d1" />
  <metadata
     id="metadata5">
    <rdf:RDF>
      <cc:Work
         rdf:about="">
        <dc:format>image/svg+xml</dc:format>
        <dc:type
           rdf:resource="http://purl.org/dc/dcmitype/StillImage" />
      </cc:Work>
    </rdf:RDF>
  </metadata>
  <g
     inkscape:label="Layer 1"
     inkscape:groupmode="layer"
     id="layer1"
     transform="translate(0,3)">
    <g
       id="g1058">
      <ellipse
         style="fill:url(#radialGradient1054);fill-opacity:1;stroke-width:0.284366"
         id="path363"
         cx="148.90352"
         cy="146.7932"
         rx="148.15681"
         ry="149.08026" />
      <path
         style="fill:#ffffff;stroke-width:0.212001"
         id="path877"
         d="m 199.57338,122.92706 c 0.19056,-3.54886 0.10765,-7.11256 -0.0247,-10.66283 -0.48367,-6.84846 -3.21867,-13.006134 -6.40503,-19.040264 -1.80985,-2.77214 -3.5472,-5.72316 -5.95773,-8.07114 -1.50247,-1.46347 -2.09952,-1.75846 -3.88332,-2.99183 -11.74253,-6.313243 -23.64448,-15.597998 -37.19659,-19.30483 -3.86122,-1.056134 -7.78686,-1.738519 -11.73831,-2.378078 -8.42524,-0.932103 -16.92224,-1.265293 -25.39841,-1.401224 -4.87607,0.146369 -9.665257,1.095718 -14.159455,2.942144 -2.52674,1.038103 -3.508937,1.652631 -5.857974,2.932317 -2.422958,1.566142 -4.653249,3.35479 -6.509382,5.538959 -0.716094,0.842647 -1.347259,1.74967 -2.022811,2.623112 -3.080409,3.98275 -1.240461,1.550259 -4.273888,5.62563 -3.23634,4.47237 -6.410494,9.19076 -8.018214,14.48394 -0.346491,1.14078 -0.559433,2.31564 -0.839146,3.47345 -0.201769,1.28847 -0.458448,2.57 -0.605297,3.865404 -0.170509,1.50402 -0.235617,3.01751 -0.346092,4.52676 -0.461209,6.30048 -0.658506,12.61157 -0.933356,18.92159 -0.342696,6.26287 -0.697144,12.54379 -0.512667,18.81862 0.0369,1.25444 0.12748,2.50686 0.191221,3.76029 0.207982,2.79989 0.289893,4.84807 0.782239,7.62674 1.078756,6.08815 3.02979,12.03413 4.924064,17.91758 0.4501,1.39209 0.896526,2.78531 1.350315,4.17627 0.866578,2.65624 1.495288,4.60862 2.46224,7.21214 1.146222,3.08622 2.414445,6.13258 3.61107,9.20081 1.511038,3.61691 2.805854,7.48078 5.362231,10.57627 0.561519,0.67994 1.220963,1.27837 1.831445,1.91756 0.83808,0.65879 1.640076,1.36309 2.514241,1.97638 1.841629,1.29206 4.818844,3.01251 6.776006,4.09464 0.421615,0.23312 23.61392,14.22092 34.58205,18.65237 1.07925,0.43605 2.1862,0.80492 3.2793,1.20738 5.91914,2.02368 12.14735,2.83026 18.37521,3.29185 3.13849,0.20603 6.26916,-0.0875 9.39763,-0.27044 1.98807,-0.11625 3.98161,-0.1432 5.96768,-0.28819 0.90685,-0.0662 1.80928,-0.18043 2.71392,-0.27064 5.42639,-0.6386 10.82222,-1.48049 16.23314,-2.22029 3.00876,-0.44281 6.09386,-0.69613 8.92405,-1.86429 1.12571,-0.46463 2.92526,-1.44911 3.98222,-2.00742 4.53815,-2.42083 9.11037,-4.78712 13.75529,-7.01224 1.7208,-0.96966 3.53637,-1.78307 5.19824,-2.851 1.33766,-0.85959 2.52754,-1.86479 3.69526,-2.92399 0.54957,-0.60081 1.37817,-1.4607 1.8319,-2.13959 1.59871,-2.39206 2.72597,-5.38067 3.81775,-8.0096 1.70285,-3.86721 3.76016,-7.57378 5.66306,-11.35037 0.61778,-1.40708 0.33535,-0.72759 0.85381,-2.03589 0,0 -30.72989,-16.15179 -30.72989,-16.15179 v 0 c -0.18689,1.2347 -0.069,0.58829 -0.36673,1.93698 -1.08188,4.00368 -2.53045,7.92488 -4.3919,11.65223 -1.84718,2.98921 -3.62321,6.04226 -6.17454,8.53829 -2.2535,2.19247 -4.95349,3.89064 -7.68775,5.47021 -4.38618,2.58757 -8.95059,4.84219 -13.64774,6.85612 -1.48901,0.59235 -2.46159,1.01724 -3.97023,1.48261 -2.63446,0.81264 -5.36033,1.31933 -8.0726,1.8121 -5.37687,0.87686 -10.7966,1.38066 -16.20383,2.04392 -5.79001,0.59152 -11.61312,1.09798 -17.43102,0.50319 -2.18211,-0.23007 -3.69569,-0.35615 -5.8603,-0.71834 -3.99384,-0.66825 -7.88882,-1.76895 -11.69156,-3.11583 -0.98256,-0.39667 -1.97735,-0.76613 -2.9477,-1.19003 -8.956312,-3.91254 -25.31219,-14.10764 21.08209,12.18435 1.08685,0.61592 -2.20858,-1.17292 -3.2957,-1.7884 -0.95375,-0.53996 -1.892,-1.10547 -2.82573,-1.67726 -0.76995,-0.47149 -1.52314,-0.96815 -2.28471,-1.45223 -1.17947,-0.93628 -2.36777,-1.76877 -3.32028,-2.94129 -0.46013,-0.56641 -0.79916,-1.21586 -1.19666,-1.82506 -1.41224,-2.16432 -2.73423,-4.37452 -3.77126,-6.73714 -3.25981,-6.8573 -6.2288,-13.85607 -8.902757,-20.94611 -1.06742,-3.20365 -1.919161,-5.57492 -2.763144,-8.83881 -1.317837,-5.09639 -2.094585,-10.33695 -2.489883,-15.57094 -0.230542,-7.58863 -0.288898,-15.17943 -0.511054,-22.76854 0.05268,-8.7768 0.289491,-17.63647 2.539468,-26.18991 0.294648,-1.03228 0.550688,-2.07564 0.883948,-3.09686 1.623005,-4.97346 4.252552,-9.568134 7.312412,-13.839074 0.6892,-0.90623 1.34351,-1.83832 2.06762,-2.71869 3.00964,-3.65916 6.59288,-6.90276 10.47094,-9.6804 2.21091,-1.2994 2.69646,-1.70461 5.1811,-2.6465 4.25067,-1.61137 8.79198,-2.09717 13.3248,-2.18488 8.27529,-0.0979 16.58059,0.15169 24.7369,1.63854 3.99345,0.80445 7.92014,1.65987 11.74838,3.05687 11.09635,4.04931 28.15564,16.11741 -19.79376,-11.914722 1.75218,0.935886 2.241,1.116132 3.80846,2.253884 2.90183,2.106317 5.22661,4.842208 7.37729,7.641558 0.58896,0.91864 1.2216,1.81237 1.76689,2.75593 2.57707,4.45941 4.45044,9.35517 4.71602,14.48967 -0.1311,3.098224 -0.22293,6.284924 -1.26057,9.249084 0,0 31.18177,16.15921 31.18177,16.15921 z" />
    </g>
  </g>
</svg>
