<?xml version="1.0" encoding="UTF-8" standalone="no"?>
<!-- Created with Inkscape (http://www.inkscape.org/) -->

<svg
   width="300mm"
   height="300mm"
   viewBox="0 0 300 300"
   version="1.1"
   id="svg8"
   inkscape:version="1.2.2 (b0a8486541, 2022-12-01)"
   sodipodi:docname="cOrig.svg"
   xmlns:inkscape="http://www.inkscape.org/namespaces/inkscape"
   xmlns:sodipodi="http://sodipodi.sourceforge.net/DTD/sodipodi-0.dtd"
   xmlns="http://www.w3.org/2000/svg"
   xmlns:svg="http://www.w3.org/2000/svg"
   xmlns:rdf="http://www.w3.org/1999/02/22-rdf-syntax-ns#"
   xmlns:cc="http://creativecommons.org/ns#"
   xmlns:dc="http://purl.org/dc/elements/1.1/">
  <defs
     id="defs2" />
  <sodipodi:namedview
     id="base"
     pagecolor="#ffffff"
     bordercolor="#666666"
     borderopacity="1.0"
     inkscape:pageopacity="0.0"
     inkscape:pageshadow="2"
     inkscape:zoom="0.48892506"
     inkscape:cx="569.61695"
     inkscape:cy="485.75951"
     inkscape:document-units="mm"
     inkscape:current-layer="layer1"
     showgrid="false"
     inkscape:window-width="1920"
     inkscape:window-height="1043"
     inkscape:window-x="0"
     inkscape:window-y="0"
     inkscape:window-maximized="1"
     inkscape:showpageshadow="2"
     inkscape:pagecheckerboard="0"
     inkscape:deskcolor="#d1d1d1" />
  <metadata
     id="metadata5">
    <rdf:RDF>
      <cc:Work
         rdf:about="">
        <dc:format>image/svg+xml</dc:format>
        <dc:type
           rdf:resource="http://purl.org/dc/dcmitype/StillImage" />
      </cc:Work>
    </rdf:RDF>
  </metadata>
  <g
     inkscape:label="Layer 1"
     inkscape:groupmode="layer"
     id="layer1"
     transform="translate(0,3)">
    <path
       style="fill:#000000;stroke-width:0.264583"
       id="path877"
       d="m 216.58385,120.37275 c 0.23397,-4.50206 0.13217,-9.02293 -0.0303,-13.52678 -0.59385,-8.687898 -3.95187,-16.499465 -7.86406,-24.154316 -2.22213,-3.51671 -4.35524,-7.260352 -7.31487,-10.238968 -1.84473,-1.856554 -2.57778,-2.230768 -4.76793,-3.795416 -14.41742,-8.008924 -29.03057,-19.787481 -45.66978,-24.489936 -4.74078,-1.339802 -9.56067,-2.205469 -14.41224,-3.016808 -10.34446,-1.182458 -20.77704,-1.60514 -31.18404,-1.77758 -5.986814,0.185682 -11.866961,1.390018 -17.38491,3.732377 -3.102319,1.316929 -4.308255,2.096513 -7.192391,3.719912 -2.974895,1.986793 -5.713235,4.255857 -7.992186,7.026674 -0.879216,1.068975 -1.654157,2.219616 -2.483596,3.327657 -3.782111,5.052478 -1.523032,1.966645 -5.247458,7.136627 -3.973557,5.673601 -7.870774,11.65932 -9.84472,18.374201 -0.42542,1.447179 -0.686868,2.937592 -1.030303,4.406387 -0.247727,1.634538 -0.562874,3.26027 -0.743183,4.903613 -0.209346,1.907987 -0.289282,3.827973 -0.424928,5.742601 -0.566272,7.992735 -0.808506,15.998945 -1.145969,24.003775 -0.420756,7.94502 -0.855946,15.91294 -0.629446,23.87314 0.04528,1.59137 0.156519,3.18017 0.234778,4.77026 0.25536,3.55192 0.35593,6.15022 0.960434,9.67522 1.324489,7.72337 3.719955,15.26639 6.045732,22.73009 0.552638,1.76599 1.100749,3.53341 1.657916,5.29797 1.063982,3.36968 1.835904,5.84646 3.023122,9.14926 1.407326,3.91515 2.964444,7.77974 4.433654,11.67207 1.855245,4.58838 3.445013,9.49005 6.58372,13.41696 0.68943,0.86256 1.499092,1.62173 2.248638,2.4326 1.028991,0.83574 2.013677,1.7292 3.086973,2.50722 2.261142,1.63909 5.916552,3.82164 8.319545,5.19442 0.517657,0.29573 28.993058,18.04053 42.459678,23.66223 1.3251,0.55317 2.6842,1.02112 4.0263,1.53168 7.26749,2.56722 14.91446,3.59044 22.56099,4.17601 3.85343,0.26136 7.69725,-0.11099 11.53836,-0.34308 2.44095,-0.14748 4.88861,-0.18166 7.32709,-0.3656 1.11343,-0.084 2.22143,-0.22889 3.33214,-0.34333 6.66249,-0.81012 13.28746,-1.87814 19.93096,-2.81664 3.69414,-0.56175 7.48201,-0.88311 10.95691,-2.36502 1.38214,-0.58943 3.59162,-1.83833 4.88935,-2.5466 5.57192,-3.07104 11.18566,-6.0729 16.88867,-8.89566 2.11279,-1.23011 4.34194,-2.26199 6.38237,-3.61676 1.64238,-1.09046 3.1033,-2.36565 4.53702,-3.70934 0.67477,-0.76219 1.69211,-1.85303 2.2492,-2.71427 1.96289,-3.03455 3.34694,-6.82587 4.68742,-10.1609 2.09075,-4.90592 4.6167,-9.60803 6.95307,-14.39898 0.75851,-1.78501 0.41174,-0.92302 1.04831,-2.58272 0,0 -37.73,-20.49002 -37.73,-20.49002 v 0 c -0.22947,1.56634 -0.0847,0.7463 -0.45027,2.45724 -1.32833,5.07904 -3.10688,10.05344 -5.39236,14.78192 -2.26795,3.79208 -4.44855,7.66515 -7.58106,10.8316 -2.76684,2.78134 -6.08188,4.93563 -9.43898,6.93946 -5.38533,3.28257 -10.98949,6.14276 -16.75663,8.69761 -1.8282,0.75145 -3.02233,1.29046 -4.87463,1.88082 -3.23457,1.03091 -6.58138,1.67369 -9.91149,2.29882 -6.6017,1.11238 -13.25601,1.75149 -19.89498,2.5929 -7.10895,0.7504 -14.25853,1.39289 -21.40172,0.63834 -2.67919,-0.29187 -4.53755,-0.45181 -7.19525,-0.91128 -4.90362,-0.84774 -9.68586,-2.24407 -14.35484,-3.95271 -1.20639,-0.50322 -2.42778,-0.97191 -3.619174,-1.50967 -10.996517,-4.96341 -31.078181,-17.89682 25.884494,15.45696 1.33443,0.78135 -2.71169,-1.48795 -4.04645,-2.26874 -1.17101,-0.68499 -2.32299,-1.40239 -3.46942,-2.12776 -0.94534,-0.59813 -1.8701,-1.22819 -2.80515,-1.84229 -1.44815,-1.18775 -2.90714,-2.24384 -4.07663,-3.73129 -0.56494,-0.71854 -0.9812,-1.54243 -1.46925,-2.31526 -1.73394,-2.74563 -3.35707,-5.54947 -4.63034,-8.54667 -4.00237,-8.69911 -7.647689,-17.57769 -10.930765,-26.57205 -1.310563,-4.06412 -2.356331,-7.0723 -3.392569,-11.21284 -1.618033,-6.46524 -2.571721,-13.11336 -3.057065,-19.75315 -0.283059,-9.62688 -0.354708,-19.2565 -0.62747,-28.88397 0.06468,-11.13417 0.355436,-22.37347 3.117946,-33.2243 0.361767,-1.30955 0.676132,-2.63314 1.085307,-3.92866 1.992712,-6.309279 5.22126,-12.138039 8.978149,-17.556123 0.846197,-1.149631 1.649557,-2.332067 2.538607,-3.448897 3.69522,-4.641985 8.09471,-8.756777 12.85618,-12.280476 2.71454,-1.648405 3.3107,-2.162448 6.36132,-3.357319 5.21896,-2.044176 10.79475,-2.66046 16.36013,-2.77172 10.16036,-0.124219 20.35756,0.192426 30.37184,2.07863 4.90313,1.020519 9.7243,2.105695 14.42459,3.877927 13.62405,5.136912 34.56935,20.446399 -24.30267,-15.114916 2.15132,1.187257 2.75149,1.415915 4.67601,2.859257 3.56285,2.672056 6.4172,6.142784 9.0578,9.694008 0.72312,1.165386 1.49987,2.299163 2.16937,3.496159 3.16412,5.657165 5.46423,11.867883 5.79031,18.381461 -0.16096,3.930365 -0.27372,7.972986 -1.54772,11.733302 0,0 38.28481,20.499447 38.28481,20.499447 z" />
  </g>
</svg>
