<?xml version="1.0" encoding="UTF-8" standalone="no"?>
<!-- Created with Inkscape (http://www.inkscape.org/) -->

<svg
   width="300mm"
   height="300mm"
   viewBox="0 0 300 300"
   version="1.1"
   id="svg8"
   inkscape:version="1.2.2 (b0a8486541, 2022-12-01)"
   sodipodi:docname="dGrad.svg"
   xmlns:inkscape="http://www.inkscape.org/namespaces/inkscape"
   xmlns:sodipodi="http://sodipodi.sourceforge.net/DTD/sodipodi-0.dtd"
   xmlns:xlink="http://www.w3.org/1999/xlink"
   xmlns="http://www.w3.org/2000/svg"
   xmlns:svg="http://www.w3.org/2000/svg"
   xmlns:rdf="http://www.w3.org/1999/02/22-rdf-syntax-ns#"
   xmlns:cc="http://creativecommons.org/ns#"
   xmlns:dc="http://purl.org/dc/elements/1.1/">
  <defs
     id="defs2">
    <linearGradient
       inkscape:collect="always"
       id="linearGradient1002">
      <stop
         style="stop-color:#9549de;stop-opacity:1;"
         offset="0.17400172"
         id="stop998" />
      <stop
         style="stop-color:#9549de;stop-opacity:0;"
         offset="1"
         id="stop1000" />
    </linearGradient>
    <radialGradient
       inkscape:collect="always"
       xlink:href="#linearGradient1002"
       id="radialGradient1004"
       cx="156.42638"
       cy="156.73264"
       fx="156.42638"
       fy="156.73264"
       r="133.81049"
       gradientTransform="matrix(1.1030277,0.00696756,-0.00849059,1.1832762,-20.527737,-40.951925)"
       gradientUnits="userSpaceOnUse" />
  </defs>
  <sodipodi:namedview
     id="base"
     pagecolor="#ffffff"
     bordercolor="#666666"
     borderopacity="1.0"
     inkscape:pageopacity="0.0"
     inkscape:pageshadow="2"
     inkscape:zoom="0.48892506"
     inkscape:cx="570.6396"
     inkscape:cy="487.80482"
     inkscape:document-units="mm"
     inkscape:current-layer="layer1"
     showgrid="false"
     inkscape:window-width="1920"
     inkscape:window-height="1043"
     inkscape:window-x="0"
     inkscape:window-y="0"
     inkscape:window-maximized="1"
     inkscape:showpageshadow="2"
     inkscape:pagecheckerboard="0"
     inkscape:deskcolor="#d1d1d1" />
  <metadata
     id="metadata5">
    <rdf:RDF>
      <cc:Work
         rdf:about="">
        <dc:format>image/svg+xml</dc:format>
        <dc:type
           rdf:resource="http://purl.org/dc/dcmitype/StillImage" />
      </cc:Work>
    </rdf:RDF>
  </metadata>
  <g
     inkscape:label="Layer 1"
     inkscape:groupmode="layer"
     id="layer1"
     transform="translate(0,3)">
    <g
       id="g1010">
      <ellipse
         style="fill:url(#radialGradient1004);fill-opacity:1;stroke-width:0.282695"
         id="path367"
         cx="150.68414"
         cy="145.59599"
         rx="147.60002"
         ry="149.26492" />
      <g
         id="g907"
         transform="matrix(0.77799917,0,0,0.66402775,41.797126,46.292797)"
         style="fill:#ffffff">
        <path
           style="fill:#ffffff;stroke-width:0.264583"
           id="path901"
           d="m 35.998882,34.729884 c 2.318272,9.365761 2.238524,19.083756 2.344767,28.666631 -0.112757,8.226176 0.568299,16.432106 0.888704,24.645799 0.277108,7.103785 0.25169,8.506378 0.349615,15.611336 0.05974,2.53482 0.103021,5.07008 0.179236,7.60445 0.07292,2.42498 0.191175,4.84843 0.268174,7.27327 0.190931,6.01281 0.221845,12.03881 0.640599,18.04273 0.12491,1.79091 0.319794,3.57626 0.479692,5.36439 0.152532,1.68451 0.296423,3.36982 0.4576,5.05353 0.427558,4.4664 0.640341,5.7595 0.921694,10.23379 0.295974,4.70679 0.355648,9.43225 0.51236,14.14495 0.08976,1.72018 0.213763,3.43892 0.269277,5.16055 0.154813,4.80125 -0.0074,5.24762 0.04889,10.00813 0.05731,4.84479 0.239811,9.68585 0.279665,14.53162 -0.09126,5.79307 0.0051,11.59129 -0.274735,17.37971 0.03051,2.92312 -0.257014,5.87721 -0.01971,8.79768 0.05901,0.7262 0.170749,1.44714 0.256122,2.17071 1.049211,4.86678 2.268805,9.69711 3.492871,14.52294 0.77104,3.38697 1.168069,6.86354 1.317921,10.33234 0,0 38.315915,19.15505 38.315915,19.15505 v 0 c -0.0386,-0.36428 -0.279998,-2.66771 -0.321424,-2.94867 -0.419422,-2.84435 -1.249,-5.61346 -1.722387,-8.44799 -0.975204,-4.68202 -2.410637,-9.25418 -3.150325,-13.98596 -0.105439,-0.56003 -0.252492,-1.11381 -0.316317,-1.6801 -0.325493,-2.88798 0.092,-5.97002 -0.272082,-8.86973 -0.529243,-6.15235 -0.929433,-12.31649 -1.637471,-18.45315 -0.307277,-3.8168 -0.500542,-5.66185 -0.624142,-9.53585 -0.0535,-1.67681 -0.04052,-3.35508 -0.06434,-5.03257 -0.07168,-5.04785 -0.223755,-10.0977 -0.05673,-15.14562 -0.142285,-4.84647 -0.446011,-9.6551 -0.803696,-14.49023 -0.226628,-3.06351 -0.505333,-7.28914 -0.841226,-10.34423 -0.189228,-1.72108 -0.448599,-3.43373 -0.672899,-5.15059 -1.649712,-12.92148 -3.265374,-25.87136 -3.631142,-38.90656 -0.02114,-2.5804 -0.08849,-5.16083 -0.06342,-7.74119 0.102288,-10.52745 1.193594,-21.039308 0.736391,-31.571494 -0.125058,-5.42907 -0.350887,-10.86094 -0.170664,-16.291716 0.106225,-3.200977 0.199136,-5.372756 0.824098,-8.432205 0.141478,-0.692597 0.400455,-1.355899 0.600683,-2.033849 0,0 -38.541549,-19.637902 -38.541549,-19.637902 z" />
        <path
           style="fill:#ffffff;stroke-width:0.264583"
           id="path903"
           d="m 84.79457,58.650837 c 0.246201,-0.189608 0.492403,-0.379217 0.738603,-0.568823 0.494464,-0.486896 0.943467,-1.024752 1.483392,-1.46069 1.691878,-1.366031 4.182422,-2.757813 6.022475,-3.724053 5.113589,-2.685227 5.23299,-2.557171 10.87527,-4.829249 9.32298,-3.703486 19.14577,-5.899435 29.07079,-7.21107 5.99119,-0.791766 8.45206,-0.870487 14.41708,-1.282057 4.40841,-0.04362 8.20415,-0.204055 12.58908,0.217823 1.91922,0.18465 3.85432,0.369433 5.72131,0.850956 1.99647,0.514916 3.93569,1.263203 5.80965,2.12304 2.18043,1.000461 8.41386,4.61386 6.32023,3.442587 -8.06532,-4.512096 -16.15705,-8.976815 -24.23557,-13.465223 9.44019,6.783067 17.78915,15.037856 24.6317,24.442584 3.69995,5.085389 4.5981,7.070349 7.64824,12.526063 4.59311,8.926919 8.01303,18.43035 10.91741,28.027227 1.62403,5.366268 2.45352,8.919078 3.81804,14.331988 2.9316,12.9821 5.15807,26.10198 6.82664,39.30182 0.95651,10.70704 1.24368,21.47494 1.09622,32.22103 -0.28725,9.76429 -2.87019,19.196 -6.12559,28.33803 -1.98152,5.20004 -3.98533,10.42858 -6.80915,15.24582 -1.74067,2.96947 -2.91046,4.417 -4.93089,7.16813 -3.66986,4.40206 -7.74672,8.52169 -12.52533,11.7269 -1.03152,0.6919 -2.11279,1.30659 -3.16918,1.95988 -5.85928,3.18121 -12.14863,5.42259 -18.61377,7.00963 -3.1678,0.77762 -8.60673,1.7961 -11.79902,2.41766 -7.46982,1.1618 -15.0816,2.65189 -22.64128,1.35593 -4.94426,-0.84759 -5.15363,-1.29003 -9.64606,-3.34078 65.86984,37.1903 32.80853,20.02585 25.00303,13.40696 -1.29764,-1.10038 -2.42283,-2.38927 -3.63424,-3.58389 0,0 -36.261468,-15.16878 -36.261468,-15.16878 v 0 c 1.175223,1.36506 2.274665,2.79922 3.525668,4.09519 11.2773,11.68269 31.08212,19.11319 42.38811,25.54995 4.76448,1.45862 5.16597,1.87997 10.17261,2.22014 7.66864,0.52102 15.23892,-1.20369 22.74446,-2.48007 11.13515,-2.28499 22.43148,-4.4377 32.72298,-9.47909 2.65858,-1.5113 4.39017,-2.35292 6.77181,-4.24045 3.84729,-3.04914 6.66173,-7.16593 9.52717,-11.08412 2.78459,-4.15028 2.2343,-3.26379 4.94203,-7.57401 0.83754,-1.33321 1.73151,-2.63382 2.49314,-4.01181 2.07073,-3.74648 3.48638,-7.82004 4.81125,-11.87254 1.25314,-3.9875 1.58057,-4.80834 2.58591,-8.9255 1.07162,-4.3886 1.20956,-5.53299 2.00817,-10.02473 1.24754,-7.01672 0.7474,-3.68534 1.58992,-10.67463 0.0789,-1.70278 0.21885,-3.40382 0.23685,-5.10833 0.10034,-9.49993 -1.55244,-18.90907 -2.49453,-28.3307 -0.24611,-2.32103 -1.15095,-11.04144 -1.47921,-13.4008 -1.24965,-8.9818 -3.56417,-17.76136 -5.57283,-26.59036 -1.96175,-7.33937 -3.85062,-14.73206 -6.1488,-21.97571 -2.29958,-7.248098 -5.09934,-14.336527 -8.26263,-21.248843 -1.20306,-2.243875 -2.29843,-4.548907 -3.60917,-6.731629 -4.37491,-7.285334 -9.83729,-13.777259 -15.67835,-19.915809 -2.11558,-2.223336 -4.24587,-4.437129 -6.48912,-6.531584 -2.17139,-2.027351 -4.49676,-3.883221 -6.74514,-5.824831 -12.85093,-7.654009 -25.59549,-15.48951 -38.55279,-22.962033 -4.41492,-2.546101 -9.2747,-4.563604 -14.30225,-5.525189 -1.91316,-0.365917 -3.87882,-0.397794 -5.82584,-0.454307 -4.49334,-0.130419 -7.63109,0.255476 -12.12498,0.622352 -5.74742,0.683844 -8.27125,0.921527 -14.05948,1.874107 -10.20818,1.679983 -20.262315,4.164174 -30.128021,7.272714 -4.494562,1.397317 -8.200027,2.526694 -12.639434,3.989617 -14.804316,4.878488 3.443491,-1.1021 -8.176178,2.887382 -1.192207,0.409332 -1.967169,0.585941 -3.103507,0.869392 0,0 36.27457,24.106788 36.27457,24.106788 z" />
      </g>
    </g>
  </g>
</svg>
