<?xml version="1.0" encoding="UTF-8" standalone="no"?>
<!-- Created with Inkscape (http://www.inkscape.org/) -->

<svg
   width="300mm"
   height="300mm"
   viewBox="0 0 300 300"
   version="1.1"
   id="svg8"
   inkscape:version="1.2.2 (b0a8486541, 2022-12-01)"
   sodipodi:docname="eGrad.svg"
   inkscape:export-filename="eOrig.png"
   inkscape:export-xdpi="96"
   inkscape:export-ydpi="96"
   xmlns:inkscape="http://www.inkscape.org/namespaces/inkscape"
   xmlns:sodipodi="http://sodipodi.sourceforge.net/DTD/sodipodi-0.dtd"
   xmlns:xlink="http://www.w3.org/1999/xlink"
   xmlns="http://www.w3.org/2000/svg"
   xmlns:svg="http://www.w3.org/2000/svg"
   xmlns:rdf="http://www.w3.org/1999/02/22-rdf-syntax-ns#"
   xmlns:cc="http://creativecommons.org/ns#"
   xmlns:dc="http://purl.org/dc/elements/1.1/">
  <defs
     id="defs2">
    <linearGradient
       inkscape:collect="always"
       id="linearGradient1084">
      <stop
         style="stop-color:#e87cdd;stop-opacity:1;"
         offset="0.14989927"
         id="stop1080" />
      <stop
         style="stop-color:#e87cdd;stop-opacity:0;"
         offset="1"
         id="stop1082" />
    </linearGradient>
    <radialGradient
       inkscape:collect="always"
       xlink:href="#linearGradient1084"
       id="radialGradient1086"
       cx="158.69682"
       cy="127.38531"
       fx="158.69682"
       fy="127.38531"
       r="123.37796"
       gradientTransform="matrix(1.2005966,0,0,1.205565,-40.968415,-6.3511576)"
       gradientUnits="userSpaceOnUse" />
  </defs>
  <sodipodi:namedview
     id="base"
     pagecolor="#ffffff"
     bordercolor="#666666"
     borderopacity="1.0"
     inkscape:pageopacity="0.0"
     inkscape:pageshadow="2"
     inkscape:zoom="0.48892506"
     inkscape:cx="535.86944"
     inkscape:cy="487.80482"
     inkscape:document-units="mm"
     inkscape:current-layer="layer1"
     showgrid="false"
     inkscape:window-width="1920"
     inkscape:window-height="1043"
     inkscape:window-x="0"
     inkscape:window-y="0"
     inkscape:window-maximized="1"
     inkscape:showpageshadow="2"
     inkscape:pagecheckerboard="0"
     inkscape:deskcolor="#d1d1d1" />
  <metadata
     id="metadata5">
    <rdf:RDF>
      <cc:Work
         rdf:about="">
        <dc:format>image/svg+xml</dc:format>
        <dc:type
           rdf:resource="http://purl.org/dc/dcmitype/StillImage" />
      </cc:Work>
    </rdf:RDF>
  </metadata>
  <g
     inkscape:label="Layer 1"
     inkscape:groupmode="layer"
     id="layer1"
     transform="translate(0,3)">
    <g
       id="g1094">
      <ellipse
         style="fill:url(#radialGradient1086);fill-opacity:1;stroke-width:0.337878"
         id="path345"
         cx="149.56245"
         cy="147.22011"
         rx="148.12717"
         ry="148.74016" />
      <g
         id="g999"
         transform="matrix(0.74759566,0,0,0.75772432,34.922013,26.090923)"
         style="fill:#ffffff">
        <path
           style="fill:#ffffff;stroke-width:0.264583"
           id="path987"
           d="m 80.317556,67.109166 c 5.681792,0.698434 11.212769,2.281587 16.819827,3.378796 5.547437,1.08554 10.586307,1.774621 16.189417,2.615626 12.1408,1.728906 24.4041,2.038651 36.61558,2.956988 10.50784,0.790218 8.39274,0.64271 18.70833,1.693254 12.06316,1.351566 24.12119,2.747817 36.23366,3.568726 3.07492,0.113615 6.16231,0.536308 9.24546,0.343287 0.87878,-0.05502 1.74844,-0.209849 2.6224,-0.316913 3.26052,-0.399423 1.87352,-0.210034 5.16891,-0.730065 4.92932,-1.129053 9.89692,-2.156116 14.77208,-3.508052 1.74172,-0.605422 0.92815,-0.228211 2.45077,-1.109728 0,0 -36.03899,-23.572978 -36.03899,-23.572978 v 0 c -1.04093,0.485389 -0.48983,0.224488 -1.65211,0.78523 -4.32028,1.778971 -8.84244,3.008112 -13.51564,3.381378 -0.98795,0.10201 -4.11888,0.434575 -5.15707,0.506428 -3.53592,0.244721 -7.08752,0.155803 -10.62779,0.259429 -10.81657,-0.0045 -21.63215,-0.294518 -32.42738,-0.999564 -9.31491,-0.627041 -18.6186,-1.366565 -27.92635,-2.091523 -7.01296,-0.546222 -11.53114,-0.818959 -18.482556,-1.675889 -2.99025,-0.36862 -5.965198,-0.852234 -8.947796,-1.27835 -2.890372,-0.540187 -5.796195,-1.00339 -8.671113,-1.62056 C 70.128854,48.499309 65.353154,47.157451 59.928717,45.527514 56.141865,44.389639 52.404972,43.08962 48.617531,41.953716 47.709573,41.681407 46.786723,41.461485 45.87132,41.215372 c 0,0 34.446236,25.893794 34.446236,25.893794 z" />
        <path
           style="fill:#ffffff;stroke-width:0.264583"
           id="path989"
           d="m 55.243004,52.001913 c 0.531612,6.785679 1.393405,13.5231 2.473365,20.24252 0.336637,1.78984 0.670703,3.580167 1.009912,5.369522 0.698529,3.6848 1.560377,7.995137 2.144509,11.691612 0.868598,5.496637 1.49547,11.035183 2.092941,16.566183 0.890095,8.95579 1.410332,17.97195 1.050174,26.97016 -0.439616,5.04555 -0.600266,10.09465 -0.385885,15.15345 0.04144,1.00211 0.08288,2.00422 0.124318,3.00633 0.01624,1.0344 0.0096,2.06941 0.04873,3.10319 0.04708,1.24236 0.161187,2.48155 0.209989,3.72384 0.161515,4.1114 0.155287,8.2303 0.28701,12.34327 0.348038,9.08689 0.0236,18.18024 -0.0325,27.26915 0.0888,7.74405 -0.659802,15.39973 -1.682724,23.06148 -0.13113,1.10886 -0.285162,2.21526 -0.393388,3.32659 -0.02466,0.25322 -0.519303,6.75894 -0.541271,7.0026 -0.298005,3.30566 -0.777613,6.57058 -1.299721,9.84644 -0.704151,3.83345 -0.33076,1.9239 -1.119774,5.7287 0,0 36.421014,19.52444 36.421014,19.52444 v 0 c 0.866632,-4.02003 0.488884,-1.99372 1.131303,-6.0793 0.730655,-6.79023 1.49616,-13.57533 2.043573,-20.38387 0.6804,-7.91339 1.289471,-15.83941 1.237461,-23.78786 -0.0558,-9.09862 -0.38055,-18.2021 -0.0281,-27.29847 0.13573,-4.01161 0.12846,-8.03062 0.30059,-12.04035 0.0502,-1.16895 0.16865,-2.33432 0.21804,-3.5033 0.0429,-1.01491 0.0392,-2.03124 0.0588,-3.04687 0.0453,-0.95744 0.0906,-1.91488 0.13584,-2.87232 0.25686,-5.24266 0.0781,-10.47921 -0.49186,-15.70018 -0.700194,-9.33039 -0.829454,-18.71099 -2.141747,-27.99141 -1.605471,-11.10475 -3.488105,-22.1748 -4.659175,-33.336928 -0.351684,-3.910139 -0.626801,-7.749961 -0.557599,-11.677444 0.02964,-1.68185 0.04411,-3.19796 0.33841,-4.847116 0.08725,-0.488947 0.256659,-0.959612 0.384987,-1.439418 0,0 -38.377161,-19.924641 -38.377161,-19.924641 z" />
        <path
           style="fill:#ffffff;stroke-width:0.264583"
           id="path991"
           d="m 92.933969,278.50288 c 0.558964,-0.2286 1.099624,-0.50842 1.676894,-0.6858 4.36716,-1.34186 9.272937,-1.79282 13.783217,-2.23586 6.4202,-0.63066 9.41367,-0.72274 16.01083,-1.0912 13.36137,-0.54851 26.74013,-0.93408 40.11414,-0.74493 5.62078,0.0795 12.32071,0.32517 17.98088,0.5122 2.49919,0.0727 4.99769,0.17505 7.49757,0.21797 5.16148,0.0886 8.54609,0.0715 13.69423,-0.24442 7.17382,-0.44027 14.31794,-1.29596 21.45009,-2.15541 2.12841,-0.27421 4.25575,-0.55673 6.38521,-0.82264 5.00143,-0.62447 5.32998,-0.54758 10.0597,-1.39668 3.58538,-0.64368 7.13918,-1.41875 10.733,-2.023 2.81521,-0.46038 5.66328,-0.64278 8.49998,-0.91604 0,0 -33.97078,-24.05957 -33.97078,-24.05957 v 0 c -2.80321,0.41356 -5.60379,0.84778 -8.37257,1.45903 -8.03894,2.10716 -16.00365,4.56998 -24.22067,5.92549 -2.21898,0.31303 -4.4294,0.69439 -6.65695,0.93909 -11.58232,1.27231 -23.26314,0.80781 -34.88111,1.44833 -4.96304,0.20496 -11.56106,0.49613 -16.44802,0.61462 -13.68594,0.33182 -27.37852,0.0829 -41.066599,0.14931 -8.309472,0.002 -16.619315,-0.0233 -24.928763,5.3e-4 -2.231803,0.006 -7.479197,0.0996 -9.987653,-0.0534 -0.814938,-0.0497 -1.61879,-0.21427 -2.428182,-0.3214 0,0 35.075556,25.48388 35.075556,25.48388 z" />
        <path
           style="fill:#ffffff;stroke-width:0.264583"
           id="path993"
           d="m 120.93812,173.88328 c 6.10344,-1.09222 12.33868,-1.56035 18.53613,-1.61536 2.15934,-0.0191 4.31842,0.0606 6.47763,0.0909 7.30566,0.052 14.57169,1.02319 21.87211,1.12179 2.78069,-0.29637 1.42025,-0.15966 4.08109,-0.41227 0,0 -34.5021,-24.55939 -34.5021,-24.55939 v 0 c -2.36845,0.23689 -1.14591,0.16292 -3.66866,0.20407 -6.27415,0.088 -12.50239,1.09421 -18.78408,1.12179 -2.07583,0.0303 -4.1515,0.10886 -6.22747,0.0909 -7.68207,-0.0666 -15.358393,-0.70981 -22.982812,-1.61535 0,0 35.198162,25.57297 35.198162,25.57297 z" />
      </g>
    </g>
  </g>
</svg>
