<?xml version="1.0" encoding="UTF-8" standalone="no"?>
<!-- Created with Inkscape (http://www.inkscape.org/) -->

<svg
   width="300mm"
   height="300mm"
   viewBox="0 0 300 300"
   version="1.1"
   id="svg8"
   inkscape:version="1.2.2 (b0a8486541, 2022-12-01)"
   sodipodi:docname="fGrad.svg"
   xmlns:inkscape="http://www.inkscape.org/namespaces/inkscape"
   xmlns:sodipodi="http://sodipodi.sourceforge.net/DTD/sodipodi-0.dtd"
   xmlns:xlink="http://www.w3.org/1999/xlink"
   xmlns="http://www.w3.org/2000/svg"
   xmlns:svg="http://www.w3.org/2000/svg"
   xmlns:rdf="http://www.w3.org/1999/02/22-rdf-syntax-ns#"
   xmlns:cc="http://creativecommons.org/ns#"
   xmlns:dc="http://purl.org/dc/elements/1.1/">
  <defs
     id="defs2">
    <linearGradient
       inkscape:collect="always"
       id="linearGradient2302">
      <stop
         style="stop-color:#a24e10;stop-opacity:1;"
         offset="0.13773488"
         id="stop2298" />
      <stop
         style="stop-color:#a24e10;stop-opacity:0;"
         offset="1"
         id="stop2300" />
    </linearGradient>
    <radialGradient
       inkscape:collect="always"
       xlink:href="#linearGradient2302"
       id="radialGradient2304"
       cx="150.27466"
       cy="146.39629"
       fx="150.27466"
       fy="146.39629"
       r="129.98996"
       gradientTransform="matrix(1.1428506,0,0,1.1418152,-22.601977,-19.654131)"
       gradientUnits="userSpaceOnUse" />
  </defs>
  <sodipodi:namedview
     id="base"
     pagecolor="#ffffff"
     bordercolor="#666666"
     borderopacity="1.0"
     inkscape:pageopacity="0.0"
     inkscape:pageshadow="2"
     inkscape:zoom="0.48892506"
     inkscape:cx="570.6396"
     inkscape:cy="487.80482"
     inkscape:document-units="mm"
     inkscape:current-layer="layer1"
     showgrid="false"
     inkscape:window-width="1920"
     inkscape:window-height="1043"
     inkscape:window-x="0"
     inkscape:window-y="0"
     inkscape:window-maximized="1"
     inkscape:showpageshadow="2"
     inkscape:pagecheckerboard="0"
     inkscape:deskcolor="#d1d1d1" />
  <metadata
     id="metadata5">
    <rdf:RDF>
      <cc:Work
         rdf:about="">
        <dc:format>image/svg+xml</dc:format>
        <dc:type
           rdf:resource="http://purl.org/dc/dcmitype/StillImage" />
      </cc:Work>
    </rdf:RDF>
  </metadata>
  <g
     inkscape:label="Layer 1"
     inkscape:groupmode="layer"
     id="layer1"
     transform="translate(0,3)">
    <g
       id="g2311">
      <ellipse
         style="fill:url(#radialGradient2304);fill-opacity:1;stroke-width:0.290648"
         id="path369"
         cx="149.1395"
         cy="147.50336"
         rx="148.5591"
         ry="148.4245" />
      <g
         id="g1042"
         transform="matrix(0.78086248,0,0,0.74421814,37.831443,32.094132)"
         style="fill:#ffffff">
        <path
           style="fill:#ffffff;stroke-width:0.264583"
           id="path1033"
           d="m 209.88852,45.67366 c -0.23941,0.02686 -0.48424,0.02326 -0.71823,0.08059 -4.26794,1.045967 -2.44168,1.063707 -8.26955,1.711007 -9.68382,1.075582 -19.50909,0.75791 -29.22844,0.723541 -10.93045,-0.103722 -21.84838,-0.647581 -32.77061,-1.021533 -3.22323,-0.110355 -6.44815,-0.167198 -9.67137,-0.277844 -5.62046,-0.192942 -11.0279,-0.458901 -16.63671,-0.71887 -10.02178,-0.203682 -20.006063,-1.145154 -29.921051,-2.581291 -4.359817,-0.613008 -8.628602,-1.708185 -12.956341,-2.494725 -5.887006,-1.069927 -0.0914,0.09512 -5.753299,-1.07833 -2.848803,-0.719183 -5.616717,-1.889964 -8.599781,-1.909403 -0.64567,-0.0042 -2.622557,0.212172 -3.296885,0.280392 -2.158423,0.234797 -1.061405,0.128368 -3.291279,0.3169 0,0 34.488871,24.725794 34.488871,24.725794 v 0 c 2.338448,-0.101212 1.195078,-0.06553 3.43,-0.110673 3.540231,0.08209 6.91711,1.211921 10.4091,1.712195 6.112995,0.984909 12.182245,2.258841 18.343025,2.931986 2.9666,0.229185 4.11919,0.346665 7.14732,0.459044 4.6896,0.174046 9.36083,0.07613 14.04957,-0.0603 2.06204,-0.06 4.1241,-0.119448 6.18616,-0.179173 18.71161,-0.581451 37.44312,-0.516958 56.15716,-0.05819 10.63347,0.416923 12.32677,0.445802 22.80712,1.001313 3.35946,0.178068 6.71497,0.430679 10.07581,0.580377 2.47146,0.110085 9.38255,0.452755 12.46514,-0.08184 0.87067,-0.150998 1.64409,-0.648417 2.46614,-0.972625 0,0 -36.91187,-22.978339 -36.91187,-22.978339 z" />
        <path
           style="fill:#ffffff;stroke-width:0.264583"
           id="path1035"
           d="m 38.289637,37.081107 c 0.801695,3.430828 0.931712,4.109405 1.968172,7.881773 2.229935,8.116224 1.826249,5.82549 3.951607,14.749912 0.332156,1.394736 4.036142,18.128165 4.229145,18.998639 0.755354,3.605401 1.511978,7.210536 2.266061,10.816204 2.459006,11.757815 5.031402,23.471315 7.979283,35.118625 2.752074,10.87366 3.29777,12.50276 6.335501,23.18928 2.489708,9.35442 5.195512,18.65895 7.514741,28.05872 1.550813,6.2854 2.894306,12.6323 4.364318,18.93781 1.91404,7.9217 2.811653,16.05254 3.353284,24.17154 0.141674,4.1373 0.389122,8.31707 -0.04157,12.44858 -0.244015,2.34075 -0.514998,3.22105 -1.032968,5.49885 -0.640675,2.38617 -1.517787,4.69387 -2.729741,6.84907 -0.910616,1.61934 -2.044953,3.10789 -3.106292,4.62838 -1.517661,2.03141 -0.73492,1.05463 -2.343431,2.93419 0,0 36.330303,21.70513 36.330303,21.70513 v 0 c 1.56597,-2.10421 0.76131,-1.03513 2.41542,-3.20614 0.7784,-1.11726 1.63012,-2.2773 2.28343,-3.47523 1.67231,-3.06639 2.50829,-6.4939 3.56718,-9.79487 0.75222,-3.03782 1.4656,-6.1627 1.58135,-9.30824 0.0383,-1.04148 -0.0892,-2.08247 -0.12557,-3.12402 -0.33412,-9.55482 0.14755,2.96382 -0.23772,-6.83218 -0.15142,-2.28162 -0.28534,-4.93734 -0.60903,-7.2004 -0.90703,-6.34149 -3.01206,-12.44476 -4.45608,-18.66682 -0.59359,-1.99119 -1.14592,-3.99515 -1.78079,-5.97356 -0.70724,-2.20391 -1.49474,-4.38125 -2.24475,-6.57097 -4.19808,-12.2567 -8.565507,-24.45626 -12.534998,-36.78968 -1.175678,-3.80115 -2.423123,-7.58084 -3.527041,-11.40345 -5.355021,-18.54317 -9.011915,-37.54622 -11.657949,-56.65178 -1.26315,-8.531 -2.715181,-17.06707 -3.374723,-25.67392 -0.147606,-1.926223 -0.169027,-3.860052 -0.262046,-5.789679 -0.05984,-1.241385 -0.233694,-2.481027 -0.196533,-3.723299 0.02334,-0.77993 0.251344,-1.540184 0.377018,-2.310275 0,0 -38.255577,-19.49219 -38.255577,-19.49219 z" />
        <path
           style="fill:#ffffff;stroke-width:0.264583"
           id="path1037"
           d="m 113.07532,161.59122 c 6.0265,1.98485 11.94546,4.34031 18.10766,5.89283 1.18725,0.29912 2.39067,0.53 3.586,0.79501 5.64628,0.93091 11.36735,1.05651 17.07314,1.21209 7.86886,0.21454 3.61732,0.0769 11.54122,0.36888 9.27636,0.31804 18.54748,0.73229 27.8296,0.82806 5.10801,0.0703 10.21515,0.16196 15.32242,0.01 0,0 -34.24068,-24.52739 -34.24068,-24.52739 v 0 c -4.63564,0.52523 -9.29813,0.62131 -13.9613,0.62089 -8.7638,0.0639 -17.52854,0.37654 -26.29181,0.12166 -1.90487,-0.0693 -3.81132,-0.10402 -5.71461,-0.20805 -8.09182,-0.44229 -16.14025,-1.50264 -24.06628,-3.19311 -7.85394,-1.90113 -15.491752,-4.57386 -22.675525,-8.31255 0,0 33.490165,26.3918 33.490165,26.3918 z" />
      </g>
    </g>
  </g>
</svg>
