<?xml version="1.0" encoding="UTF-8" standalone="no"?>
<!-- Created with Inkscape (http://www.inkscape.org/) -->

<svg
   width="300mm"
   height="300mm"
   viewBox="0 0 300 300"
   version="1.1"
   id="svg8"
   inkscape:version="1.2.2 (b0a8486541, 2022-12-01)"
   sodipodi:docname="gOrig.svg"
   xmlns:inkscape="http://www.inkscape.org/namespaces/inkscape"
   xmlns:sodipodi="http://sodipodi.sourceforge.net/DTD/sodipodi-0.dtd"
   xmlns="http://www.w3.org/2000/svg"
   xmlns:svg="http://www.w3.org/2000/svg"
   xmlns:rdf="http://www.w3.org/1999/02/22-rdf-syntax-ns#"
   xmlns:cc="http://creativecommons.org/ns#"
   xmlns:dc="http://purl.org/dc/elements/1.1/">
  <defs
     id="defs2" />
  <sodipodi:namedview
     id="base"
     pagecolor="#ffffff"
     bordercolor="#666666"
     borderopacity="1.0"
     inkscape:pageopacity="0.0"
     inkscape:pageshadow="2"
     inkscape:zoom="0.48892506"
     inkscape:cx="569.61695"
     inkscape:cy="485.75951"
     inkscape:document-units="mm"
     inkscape:current-layer="layer1"
     showgrid="false"
     inkscape:window-width="1920"
     inkscape:window-height="1043"
     inkscape:window-x="0"
     inkscape:window-y="0"
     inkscape:window-maximized="1"
     inkscape:showpageshadow="2"
     inkscape:pagecheckerboard="0"
     inkscape:deskcolor="#d1d1d1" />
  <metadata
     id="metadata5">
    <rdf:RDF>
      <cc:Work
         rdf:about="">
        <dc:format>image/svg+xml</dc:format>
        <dc:type
           rdf:resource="http://purl.org/dc/dcmitype/StillImage" />
      </cc:Work>
    </rdf:RDF>
  </metadata>
  <g
     inkscape:label="Layer 1"
     inkscape:groupmode="layer"
     id="layer1"
     transform="translate(0,3)">
    <g
       id="g1082"
       transform="translate(1.0583333,-2.1166667)">
      <path
         style="fill:#000000;stroke-width:0.264583"
         id="path1073"
         d="m 231.84478,41.454656 c -9.58238,-3.306572 -19.3579,-5.978109 -29.1758,-8.480634 -10.59235,-2.705547 -21.47622,-4.155837 -32.39883,-4.505214 -2.07553,-0.06639 -4.15292,-0.04602 -6.22937,-0.06902 -13.64879,0.882025 -26.88164,4.637463 -40.14898,7.716718 -12.98898,3.218952 -25.931986,6.597758 -39.006247,9.459579 -9.443,2.11051 -19.258386,2.595732 -28.662797,4.846955 -1.2695,0.303892 -2.513189,0.706966 -3.769786,1.06045 -3.564233,1.234993 -7.439405,2.616343 -9.973849,5.590923 -1.299107,1.524715 -2.241674,3.489632 -3.185239,5.225669 -0.474973,1.04163 -1.023435,2.052791 -1.424919,3.124896 -0.884061,2.360755 -1.768324,6.033072 -2.347241,8.422936 -0.598408,2.47033 -1.717362,7.333028 -2.191364,9.808795 -0.330959,1.728652 -0.589637,3.470365 -0.884457,5.20555 -1.688084,12.681901 -1.53798,25.512081 -1.305136,38.274701 -0.370787,12.60303 2.336199,24.92655 4.734049,37.21144 1.809888,10.28708 5.492925,20.07071 8.717727,29.96129 2.373588,7.5293 5.009795,14.9948 8.165333,22.23597 1.813531,4.16161 2.412388,5.22256 4.428738,9.24214 2.20953,4.11974 4.640961,8.1077 7.4289,11.86225 1.008766,1.35852 3.64505,4.83798 5.118152,5.73643 12.556027,7.65793 25.421397,14.79675 38.132096,22.19513 1.49852,0.33522 2.98153,0.74954 4.49558,1.00571 3.22786,0.54612 7.84633,0.87722 11.0597,1.06306 6.39493,0.36981 12.8042,0.46072 19.20705,0.58439 12.97252,0.19963 25.9107,-0.87707 38.87069,-1.26688 8.20565,-0.0497 16.40011,-0.50242 24.59172,-0.93657 2.86786,-0.12938 1.50546,0.009 4.091,-0.37576 0,0 -34.82407,-24.40624 -34.82407,-24.40624 v 0 c -2.01925,0.40832 -0.93792,0.19219 -3.24443,0.64615 -7.34013,1.25955 -14.76923,1.77962 -22.18418,2.39938 -12.70114,1.03538 -25.43055,1.95874 -38.18364,1.397 -6.45246,-0.16283 -12.907032,-0.30856 -19.320749,-1.1148 -3.802689,-0.47802 -7.850912,-1.15251 -11.506387,-2.37587 -1.531901,-0.51267 -2.973128,-1.26439 -4.459693,-1.89658 10.291337,6.09705 20.582671,12.19412 30.874009,18.29118 -1.02881,-0.73666 -2.13435,-1.37651 -3.08643,-2.20997 -1.02106,-0.89385 -1.899,-1.94018 -2.80671,-2.94895 -3.165986,-3.51846 -5.898894,-7.35369 -8.261126,-11.45749 -1.707126,-3.09136 -3.378641,-6.04899 -4.964813,-9.20791 -3.542551,-7.05515 -6.431489,-14.4042 -8.696648,-21.96761 -3.533807,-12.08769 0.08514,0.56196 -2.989694,-10.97888 -1.659387,-6.22821 -3.597026,-12.37842 -5.433729,-18.55509 -0.505849,-1.8135 -1.046718,-3.61759 -1.517549,-5.4405 -2.671258,-10.34223 -4.453337,-20.94043 -4.849011,-31.62495 -0.007,-2.32592 -0.07198,-4.65237 -0.02109,-6.97774 0.04925,-2.2503 0.209116,-4.49683 0.321405,-6.74487 0.386373,-7.73525 0.897033,-15.47959 2.182217,-23.1271 1.569381,-8.389669 3.453402,-16.835032 7.83191,-24.274742 0.530037,-0.746223 1.018209,-1.524026 1.590111,-2.238669 2.46416,-3.079181 5.909969,-4.995777 9.517057,-6.439548 1.050444,-0.386307 2.088931,-0.806831 3.151331,-1.158922 8.638976,-2.863051 17.711479,-4.081923 26.554739,-6.117217 3.27975,-0.639614 10.41003,-1.99408 13.71304,-2.77831 8.49562,-2.017107 16.75898,-4.942533 25.29841,-6.794736 13.2524,-3.1125 26.60064,-6.434418 40.30253,-6.457135 2.00679,0.04575 4.01546,0.03928 6.02038,0.137261 10.53226,0.514688 21.01136,2.076606 31.25365,4.566925 5.82039,1.582499 8.28346,2.152661 14.01607,4.115239 2.31132,0.791284 4.59823,1.653998 6.87321,2.544366 1.89946,0.7434 8.07303,3.422494 10.3961,4.257495 0.87612,0.314912 1.78822,0.518903 2.68235,0.778354 0,0 -34.56529,-26.040424 -34.56529,-26.040425 z" />
      <path
         style="fill:#000000;stroke-width:0.264583"
         id="path1075"
         d="m 189.02114,163.6201 c -0.44675,1.58153 -1.49352,2.93344 -1.93114,4.51734 -1.08945,3.94307 -0.89765,8.4098 -1.01932,12.45296 0.15021,9.25334 -0.33457,18.55448 -1.70752,27.71413 -0.73826,4.92529 -1.4421,7.74837 -2.49797,12.5246 -1.61974,6.09207 -0.79478,3.22827 -2.4384,8.60182 0,0 35.60165,18.98049 35.60165,18.98049 v 0 c 0.49699,-6.01229 0.20869,-2.83573 0.88358,-9.52799 0.7633,-6.82464 1.71141,-13.61294 2.60721,-20.42084 0.85629,-6.50763 1.62443,-13.0283 2.75115,-19.49766 0.87333,-4.92964 1.61427,-9.86838 5.2336,-13.60279 0,0 -37.48284,-21.74206 -37.48284,-21.74206 z" />
      <path
         style="fill:#000000;stroke-width:0.264583"
         id="path1077"
         d="m 162.90109,177.20316 c 0.64991,-0.12622 1.2945,-0.28383 1.94972,-0.37864 4.90896,-0.71033 9.93189,-0.92091 14.87507,-1.21108 7.90753,-0.46418 9.5246,-0.48945 17.81439,-0.8266 10.50271,-0.55113 21.01003,-0.15489 31.50644,0.25882 0,0 -28.91268,-21.00629 -28.91268,-21.00629 v 0 c -10.25883,0.45357 -20.52685,0.79392 -30.79397,0.25882 -9.25736,-0.33859 -18.5078,-0.70461 -27.75551,-1.25232 -3.76738,-0.22313 -6.8473,-0.4029 -10.54318,-0.78535 -0.99996,-0.10348 -1.99468,-0.25243 -2.99202,-0.37864 0,0 34.85174,25.32128 34.85174,25.32128 z" />
    </g>
  </g>
</svg>
