<?xml version="1.0" encoding="UTF-8" standalone="no"?>
<!-- Created with Inkscape (http://www.inkscape.org/) -->

<svg
   width="300mm"
   height="300mm"
   viewBox="0 0 300 300"
   version="1.1"
   id="svg8"
   inkscape:version="1.2.2 (b0a8486541, 2022-12-01)"
   sodipodi:docname="hOrig.svg"
   xmlns:inkscape="http://www.inkscape.org/namespaces/inkscape"
   xmlns:sodipodi="http://sodipodi.sourceforge.net/DTD/sodipodi-0.dtd"
   xmlns="http://www.w3.org/2000/svg"
   xmlns:svg="http://www.w3.org/2000/svg"
   xmlns:rdf="http://www.w3.org/1999/02/22-rdf-syntax-ns#"
   xmlns:cc="http://creativecommons.org/ns#"
   xmlns:dc="http://purl.org/dc/elements/1.1/">
  <defs
     id="defs2" />
  <sodipodi:namedview
     id="base"
     pagecolor="#ffffff"
     bordercolor="#666666"
     borderopacity="1.0"
     inkscape:pageopacity="0.0"
     inkscape:pageshadow="2"
     inkscape:zoom="0.48892506"
     inkscape:cx="569.61695"
     inkscape:cy="485.75951"
     inkscape:document-units="mm"
     inkscape:current-layer="layer1"
     showgrid="false"
     inkscape:window-width="1920"
     inkscape:window-height="1043"
     inkscape:window-x="0"
     inkscape:window-y="0"
     inkscape:window-maximized="1"
     inkscape:showpageshadow="2"
     inkscape:pagecheckerboard="0"
     inkscape:deskcolor="#d1d1d1" />
  <metadata
     id="metadata5">
    <rdf:RDF>
      <cc:Work
         rdf:about="">
        <dc:format>image/svg+xml</dc:format>
        <dc:type
           rdf:resource="http://purl.org/dc/dcmitype/StillImage" />
      </cc:Work>
    </rdf:RDF>
  </metadata>
  <g
     inkscape:label="Layer 1"
     inkscape:groupmode="layer"
     id="layer1"
     transform="translate(0,3)">
    <g
       id="g1118"
       transform="translate(-5.8208336,-25.929177)">
      <path
         style="fill:#000000;stroke-width:0.264583"
         id="path1109"
         d="m 34.207323,44.456235 c 0.190722,0.724866 0.274126,1.486863 0.572166,2.174594 1.407107,3.246935 5.343007,9.930477 6.741935,12.424863 3.879028,6.916565 7.814474,13.801955 11.622604,20.757808 2.291059,4.184806 4.498821,8.414676 6.748232,12.622017 9.194432,17.524013 17.534908,35.591243 23.615996,54.453593 3.52329,10.92856 3.992891,13.96534 6.525496,24.90997 2.22278,10.90232 3.620322,21.95827 4.710054,33.02507 0.326969,3.32054 0.544412,6.65106 0.848265,9.9738 0.58512,6.39849 1.243263,12.7901 1.849141,19.18665 0.87558,9.95777 1.85217,19.91455 2.112137,29.91328 0.08126,3.12549 0.02983,5.06243 -0.01119,8.0877 -0.03705,0.86059 -0.0741,1.72117 -0.111154,2.58175 0,0 37.152935,18.48443 37.152935,18.48443 v 0 c -0.21546,-0.99703 -0.43092,-1.99406 -0.64638,-2.99111 -2.75643,-13.34559 -5.22647,-26.76017 -6.71457,-40.31516 -1.66962,-13.54015 -3.21439,-27.09371 -5.27415,-40.58209 -0.58142,-3.80743 -1.0917,-7.62823 -1.81537,-11.41121 -0.76128,-3.97961 -1.75827,-7.9105 -2.6374,-11.86576 -1.18402,-4.18445 -2.27957,-8.39495 -3.55206,-12.55335 -2.01004,-6.56864 -6.86876,-20.88869 -9.30258,-27.1744 -3.38782,-8.74956 -8.028448,-18.87279 -11.880832,-27.41789 -1.988714,-4.41124 -3.994914,-8.81458 -5.99237,-13.22186 -1.661999,-3.69521 -8.216564,-18.183688 -10.001949,-22.456362 -2.496454,-5.974371 -5.219604,-12.283813 -5.741064,-18.827623 0,0 -38.817901,-19.77871 -38.817901,-19.77871 z" />
      <path
         style="fill:#000000;stroke-width:0.264583"
         id="path1111"
         d="m 118.62354,182.25767 c 0.49296,-0.16956 0.97259,-0.38445 1.47887,-0.5087 2.51174,-0.61642 4.82875,-0.8487 7.43126,-1.10664 6.5688,-0.65105 13.11387,-0.85373 19.71006,-0.96521 12.30463,-0.0218 24.58723,0.79593 36.8532,1.68862 8.76755,0.34718 17.53204,0.65396 26.2942,1.12825 5.48287,0.24442 10.96288,0.54268 16.44475,0.80448 1.64563,0.2129 3.25913,-0.092 4.87523,-0.35538 0,0 -34.63809,-24.67385 -34.63809,-24.67385 v 0 c -1.51557,0.0334 -3.02755,-0.01 -4.54211,0.0559 -4.9841,0.17047 -9.96523,0.27745 -14.95341,0.15787 -8.48147,-0.10548 -16.96218,-0.27034 -25.43953,-0.56209 -11.77086,-0.19997 -23.5413,-0.57133 -35.31468,-0.2778 -11.18716,0.13771 -22.390565,0.0458 -33.5627,-0.58274 0,0 35.36295,25.19728 35.36295,25.19728 z" />
      <path
         style="fill:#000000;stroke-width:0.264583"
         id="path1113"
         d="m 237.33662,51.01002 c -3.74435,13.956617 -8.70633,27.540481 -13.45734,41.175338 -7.34822,21.654502 -9.89988,44.464342 -12.9872,67.005672 -1.76327,14.73901 -4.2903,29.44567 -4.75315,44.31342 -0.2655,8.52813 0.12807,11.77529 0.64469,20.28701 1.38632,17.56679 3.65072,35.0473 5.45468,52.57353 0.50114,6.61377 1.19961,13.26383 1.00699,19.90773 0,0 38.48869,18.67844 38.48869,18.67844 v 0 c -2.76402,-7.0916 -4.00595,-14.69011 -5.81608,-22.05045 -0.67829,-3.49795 -2.37863,-12.16353 -2.93803,-15.49493 -0.49741,-2.9623 -0.89913,-5.93984 -1.35062,-8.9095 -1.46591,-9.6419 -2.8792,-19.29383 -3.5869,-29.02925 -0.53371,-7.88052 -0.94868,-12.12718 -0.97421,-20.03402 -0.0111,-3.44911 0.11152,-6.89775 0.23109,-10.34481 0.4011,-11.56411 1.09093,-23.13602 2.54742,-34.61993 0.62084,-4.12787 1.15258,-8.27012 1.8625,-12.3836 0.69387,-4.02047 1.52991,-8.01534 2.34787,-12.01241 2.82264,-13.79336 6.20274,-27.49186 10.49912,-40.90449 1.14027,-3.10484 2.17683,-6.24977 3.42081,-9.31453 3.73078,-9.19145 8.47037,-17.870284 14.80087,-25.537771 0.58359,-0.706832 1.25008,-1.340919 1.8751,-2.011378 0,0 -37.3163,-21.294071 -37.3163,-21.294071 z" />
    </g>
  </g>
</svg>
