<?xml version="1.0" encoding="UTF-8" standalone="no"?>
<!-- Created with Inkscape (http://www.inkscape.org/) -->

<svg
   width="300mm"
   height="300mm"
   viewBox="0 0 300 300"
   version="1.1"
   id="svg8"
   inkscape:version="1.2.2 (b0a8486541, 2022-12-01)"
   sodipodi:docname="iOrig.svg"
   xmlns:inkscape="http://www.inkscape.org/namespaces/inkscape"
   xmlns:sodipodi="http://sodipodi.sourceforge.net/DTD/sodipodi-0.dtd"
   xmlns="http://www.w3.org/2000/svg"
   xmlns:svg="http://www.w3.org/2000/svg"
   xmlns:rdf="http://www.w3.org/1999/02/22-rdf-syntax-ns#"
   xmlns:cc="http://creativecommons.org/ns#"
   xmlns:dc="http://purl.org/dc/elements/1.1/">
  <defs
     id="defs2" />
  <sodipodi:namedview
     id="base"
     pagecolor="#ffffff"
     bordercolor="#666666"
     borderopacity="1.0"
     inkscape:pageopacity="0.0"
     inkscape:pageshadow="2"
     inkscape:zoom="0.48892506"
     inkscape:cx="569.61695"
     inkscape:cy="485.75951"
     inkscape:document-units="mm"
     inkscape:current-layer="layer1"
     showgrid="false"
     inkscape:window-width="1920"
     inkscape:window-height="1043"
     inkscape:window-x="0"
     inkscape:window-y="0"
     inkscape:window-maximized="1"
     inkscape:showpageshadow="2"
     inkscape:pagecheckerboard="0"
     inkscape:deskcolor="#d1d1d1" />
  <metadata
     id="metadata5">
    <rdf:RDF>
      <cc:Work
         rdf:about="">
        <dc:format>image/svg+xml</dc:format>
        <dc:type
           rdf:resource="http://purl.org/dc/dcmitype/StillImage" />
      </cc:Work>
    </rdf:RDF>
  </metadata>
  <g
     inkscape:label="Layer 1"
     inkscape:groupmode="layer"
     id="layer1"
     transform="translate(0,3)">
    <g
       id="g1154"
       transform="translate(-7.4083337,-1.5875)">
      <path
         style="fill:#000000;stroke-width:0.264583"
         id="path1145"
         d="m 85.756741,62.176809 c 5.80703,-1.21063 11.772762,-0.880425 17.645959,-0.49581 1.41268,0.125841 2.82817,0.223406 4.23805,0.377523 0.36746,0.04017 7.87789,1.029359 8.28051,1.078733 2.9758,0.364908 5.965,0.619085 8.93669,1.016066 1.56591,0.209187 3.12267,0.481957 4.684,0.722937 9.39742,1.349327 18.87666,2.166874 28.35949,2.595721 7.48622,0.313719 14.97969,0.350898 22.47092,0.427479 6.4311,0.09143 12.86261,0.0069 19.29386,-0.01601 5.26745,-0.159364 10.59559,-0.157205 15.78427,-1.164034 3.51188,-0.693801 6.79853,-2.050955 9.971,-3.670321 2.53542,-1.246323 4.77891,-2.966929 7.12109,-4.520216 1.72761,-1.145709 2.43807,-1.494904 4.23619,-2.493637 2.55848,-1.339707 1.31146,-0.731065 3.73331,-1.841709 0,0 -35.45806,-23.108711 -35.45806,-23.108711 v 0 c -2.13667,1.423072 -1.01951,0.690877 -3.35422,2.19238 -3.79416,2.31984 -7.60826,4.608851 -11.73429,6.303481 -2.93439,1.236496 -5.91069,2.356392 -9.06237,2.914684 -4.78634,0.681231 -9.59768,1.296117 -14.44299,1.266815 -6.4216,-0.01175 -12.84363,-0.07516 -19.2648,0.03206 -7.24211,0.07442 -14.48688,0.10909 -21.72718,-0.102225 -4.33476,-0.180316 -8.66876,-0.329173 -12.99158,-0.718259 -3.88718,-0.349877 -5.98772,-0.63433 -9.865,-1.185844 -1.61361,-0.229523 -3.224024,-0.480988 -4.836035,-0.721481 -8.876226,-1.292641 -17.756354,-2.692075 -26.7234,-3.170132 -6.889507,-0.329658 -13.783376,-0.5915 -20.663564,-1.088877 0,0 35.36815,25.369393 35.36815,25.369393 z" />
      <path
         style="fill:#000000;stroke-width:0.264583"
         id="path1147"
         d="m 133.83001,54.520151 c 0.98434,5.037114 1.18145,10.181474 1.72559,15.271761 0.43489,4.068384 1.02782,8.118319 1.53825,12.177918 1.11116,11.97015 3.14914,23.82155 4.54572,35.75668 0.59918,7.94016 1.86393,15.81485 2.48132,23.75277 0.25222,3.24296 0.35392,6.92211 0.47155,10.18875 0.11312,6.13553 -0.195,12.27145 -0.4854,18.39883 -0.64654,9.7085 -1.33982,19.41068 -1.85117,29.12755 -0.54128,8.04829 -1.63766,16.08087 -3.92048,23.82951 -0.31835,1.41141 -1.15044,2.60467 -1.73523,3.89696 -0.56762,1.25435 -0.58622,1.59692 -0.94761,2.99209 -0.46562,2.37717 -0.2397,1.1741 -0.67657,3.60944 0,0 37.43184,19.95257 37.43184,19.95257 v 0 c 0.41842,-2.13882 0.17007,-1.0994 0.73568,-3.12049 0.39953,-1.21593 0.26521,-0.95948 0.80063,-2.04161 0.39741,-0.80319 0.84093,-1.51804 1.10254,-2.38688 0.30338,-1.00755 0.36321,-2.23715 0.46334,-3.25995 0.25435,-8.54069 -0.003,-17.11264 1.14312,-25.60783 0.97241,-9.36684 2.00019,-18.75681 4.10463,-27.9499 0.0529,-0.47332 0.60055,-5.2971 0.62931,-5.83787 0.24931,-4.68731 -0.90591,-9.29071 -1.37376,-13.92534 -0.45929,-3.57063 -0.97422,-7.13444 -1.38452,-10.71102 -0.24462,-2.13233 -0.99365,-9.98942 -1.17179,-12.14403 -0.16195,-1.95876 -0.24607,-3.92379 -0.42839,-5.88076 -0.17821,-1.91289 -0.43533,-3.8176 -0.653,-5.72639 -1.59455,-11.92955 -3.38893,-23.83274 -4.81146,-35.784936 -0.62842,-8.327568 -1.27011,-16.832575 0.56947,-25.061159 0,0 -38.30361,-19.516664 -38.30361,-19.516664 z" />
      <path
         style="fill:#000000;stroke-width:0.264583"
         id="path1149"
         d="m 89.08617,268.77365 c 3.059917,-1.17306 6.259621,-1.91387 9.415113,-2.76802 9.499117,-2.57128 9.705587,-2.87433 20.603137,-4.83562 5.50631,-0.991 11.05046,-1.75878 16.57569,-2.63818 31.85312,-3.60429 63.96666,-2.99166 95.91561,-1.30418 12.81549,0.47162 25.59986,1.38851 38.36183,2.62361 0,0 -30.22743,-22.17262 -30.22743,-22.17262 v 0 c -11.89191,0.17251 -23.77189,-0.13392 -35.65734,-0.54855 -3.57196,0.0246 -7.14577,-0.0437 -10.71588,0.0739 -7.45836,0.24566 -17.57706,1.12446 -24.86953,1.74254 -15.12057,1.28155 -18.87023,1.81554 -34.66349,2.67355 -6.86859,0.37316 -13.74543,0.5747 -20.61815,0.86204 -6.64966,0.11735 -13.300557,0.17806 -19.948975,0.35205 -5.046477,0.13206 -10.088689,0.39611 -15.134032,0.56606 -8.209933,0.27655 -16.421425,0.43107 -24.634282,0.56875 0,0 35.597729,24.80471 35.597729,24.80471 z" />
    </g>
  </g>
</svg>
