<?xml version="1.0" encoding="UTF-8" standalone="no"?>
<!-- Created with Inkscape (http://www.inkscape.org/) -->

<svg
   width="300mm"
   height="300mm"
   viewBox="0 0 300 300"
   version="1.1"
   id="svg8"
   inkscape:version="1.2.2 (b0a8486541, 2022-12-01)"
   sodipodi:docname="jGrad.svg"
   xmlns:inkscape="http://www.inkscape.org/namespaces/inkscape"
   xmlns:sodipodi="http://sodipodi.sourceforge.net/DTD/sodipodi-0.dtd"
   xmlns:xlink="http://www.w3.org/1999/xlink"
   xmlns="http://www.w3.org/2000/svg"
   xmlns:svg="http://www.w3.org/2000/svg"
   xmlns:rdf="http://www.w3.org/1999/02/22-rdf-syntax-ns#"
   xmlns:cc="http://creativecommons.org/ns#"
   xmlns:dc="http://purl.org/dc/elements/1.1/">
  <defs
     id="defs2">
    <linearGradient
       inkscape:collect="always"
       id="linearGradient1262">
      <stop
         style="stop-color:#f8f170;stop-opacity:1;"
         offset="0.138559"
         id="stop1258" />
      <stop
         style="stop-color:#f8f170;stop-opacity:0;"
         offset="1"
         id="stop1260" />
    </linearGradient>
    <radialGradient
       inkscape:collect="always"
       xlink:href="#linearGradient1262"
       id="radialGradient1264"
       cx="148.31833"
       cy="158.53195"
       fx="148.31833"
       fy="158.53195"
       r="136.32748"
       gradientTransform="matrix(1.097217,0,0,1.1024576,-12.295587,-28.14331)"
       gradientUnits="userSpaceOnUse" />
  </defs>
  <sodipodi:namedview
     id="base"
     pagecolor="#ffffff"
     bordercolor="#666666"
     borderopacity="1.0"
     inkscape:pageopacity="0.0"
     inkscape:pageshadow="2"
     inkscape:zoom="0.48892506"
     inkscape:cx="570.6396"
     inkscape:cy="487.80482"
     inkscape:document-units="mm"
     inkscape:current-layer="layer1"
     showgrid="false"
     inkscape:window-width="1920"
     inkscape:window-height="1043"
     inkscape:window-x="0"
     inkscape:window-y="0"
     inkscape:window-maximized="1"
     inkscape:showpageshadow="2"
     inkscape:pagecheckerboard="0"
     inkscape:deskcolor="#d1d1d1" />
  <metadata
     id="metadata5">
    <rdf:RDF>
      <cc:Work
         rdf:about="">
        <dc:format>image/svg+xml</dc:format>
        <dc:type
           rdf:resource="http://purl.org/dc/dcmitype/StillImage" />
      </cc:Work>
    </rdf:RDF>
  </metadata>
  <g
     inkscape:label="Layer 1"
     inkscape:groupmode="layer"
     id="layer1"
     transform="translate(0,3)">
    <g
       id="g1270">
      <ellipse
         style="fill:url(#radialGradient1264);fill-opacity:1;stroke-width:0.289883"
         id="path367"
         cx="150.4418"
         cy="146.63144"
         rx="149.58083"
         ry="150.29527" />
      <g
         id="g1296"
         transform="matrix(0.80586434,0,0,0.96331165,24.712524,-16.438426)"
         style="fill:#ffffff">
        <path
           style="fill:#ffffff;stroke-width:0.264583"
           id="path1290"
           d="m 164.15507,80.31038 c 2.3965,11.321338 4.08318,22.8052 5.37888,34.30256 0.53054,4.70769 1.07701,9.41624 1.42156,14.14118 0.35978,4.93376 0.46044,9.88299 0.69066,14.82449 0.29881,15.34268 -1.11191,30.71651 -4.68198,45.65281 -1.11901,4.68165 -1.87095,6.73112 -3.29307,11.08873 -1.69254,5.11067 -3.54221,10.20089 -6.27643,14.85453 -2.15336,3.50544 -4.27409,7.0559 -6.93592,10.21099 -0.57586,0.68257 -1.21284,1.31115 -1.81926,1.96673 -1.76508,1.89222 -3.74469,3.54845 -5.78444,5.13127 -1.44076,1.11801 -2.58549,2.038 -4.1897,2.92352 -0.81332,0.44895 -1.67626,0.80146 -2.51438,1.20219 -4.71516,1.65754 -9.7377,2.52966 -14.73795,2.63243 -3.39324,0.0697 -5.6901,-0.23618 -9.08508,-0.5425 -1.65409,-0.25891 -3.31194,-0.49482 -4.96226,-0.77673 -4.32184,-0.73827 -6.45258,-1.12265 -10.69042,-2.36048 -5.701334,-1.66531 -11.153878,-3.91618 -16.599929,-6.25849 -1.743279,-0.85413 -3.523969,-1.63579 -5.229836,-2.56239 -1.565471,-0.85033 -6.128597,-3.63462 -4.574736,-2.76326 10.139812,5.68614 20.130005,11.63979 30.334651,17.20874 0.9906,0.5406 -1.806792,-1.35648 -2.653609,-2.10243 -2.058432,-1.81325 -2.025838,-2.02085 -3.576328,-4.18966 -0.409067,-0.94218 -0.916641,-1.84748 -1.227204,-2.82656 -1.426292,-4.49653 -1.278247,-9.45838 -0.585671,-14.06801 0.139388,-0.92774 0.368136,-1.83984 0.552201,-2.75976 0,0 -36.561288,-19.27677 -36.561288,-19.27677 v 0 c -0.31404,3.55021 -0.548188,7.07254 -0.626068,10.63729 -0.05969,2.73193 -0.162893,5.15273 0.139769,7.87244 0.13191,1.18537 0.408768,2.35009 0.61315,3.52514 0.441907,1.03845 0.738852,2.15137 1.325716,3.11534 0.971429,1.59564 3.810625,4.51056 5.320678,5.43387 12.423802,7.59648 25.037532,14.87872 37.625374,22.20016 1.40613,0.81785 2.87776,1.51993 4.34919,2.21345 1.67622,0.79004 3.39332,1.4903 5.08997,2.23546 4.44554,1.7585 6.92999,2.81993 11.50487,4.30608 7.24764,2.3544 14.75078,3.83042 22.30876,4.74308 1.68667,0.11594 3.37014,0.29652 5.06001,0.34785 5.76728,0.17515 12.10839,-0.51369 17.68076,-2.04964 1.23457,-0.3403 2.42957,-0.81059 3.64435,-1.21588 1.00158,-0.49177 2.03217,-0.92842 3.00474,-1.47532 4.02734,-2.2647 7.4268,-5.7318 10.59322,-9.03619 3.41133,-4.09456 6.90143,-8.15102 9.77174,-12.65471 0.33762,-0.664 0.7113,-1.31087 1.01287,-1.992 2.14672,-4.84846 2.91167,-10.1366 3.38075,-15.37215 0.1187,-1.85871 0.27182,-3.71553 0.3561,-5.57612 0.42259,-9.32917 0.31059,-18.68233 0.41213,-28.01752 0.0482,-4.43348 0.16341,-8.86637 0.17416,-13.3001 0.0116,-4.78848 -0.0714,-9.57672 -0.10711,-14.36508 0.0667,-13.74583 0.0176,-14.48936 0.28046,-27.87686 0.0738,-3.75708 0.1328,-7.51493 0.27347,-11.2701 0.19187,-5.12162 0.37941,-10.09698 1.30539,-15.13459 0.22754,-1.23788 0.66271,-2.42843 0.99407,-3.64265 0,0 -37.88698,-19.30438 -37.88698,-19.30438 z" />
        <path
           style="fill:#ffffff;stroke-width:0.264583"
           id="path1292"
           d="m 102.84437,101.38157 c 10.88027,-2.189521 22.08125,-2.628933 33.15272,-2.449054 5.34557,0.08685 10.68366,0.435949 16.02549,0.653923 18.62201,0.968511 37.19135,2.726591 55.73637,4.636581 5.37654,0.55373 10.74436,1.19031 16.12163,1.73687 10.46262,1.06344 14.22136,1.33345 24.20482,2.16013 2.69644,0.15898 5.39289,0.31796 8.08933,0.47693 0,0 -30.48502,-22.058834 -30.48502,-22.058834 v 0 c -2.05316,0.250716 -4.10631,0.501433 -6.15947,0.752147 -2.87985,0.172881 -5.756,0.42605 -8.63954,0.518638 -8.69172,0.279086 -17.03169,0.114036 -25.74368,-0.293893 -11.64233,-0.54514 -24.77572,-1.560576 -36.31681,-2.713721 -6.61834,-0.661278 -13.21909,-1.488135 -19.82863,-2.232204 -14.48462,-1.728174 -19.7319,-2.424039 -33.755918,-3.849603 -14.335823,-1.457264 -7.967247,-0.650867 -20.049945,-1.89779 -3.205485,-0.330801 -4.548034,-0.516308 -7.367772,-0.881034 0,0 35.016425,25.440914 35.016425,25.440914 z" />
      </g>
    </g>
  </g>
</svg>
