<?xml version="1.0" encoding="UTF-8" standalone="no"?>
<!-- Created with Inkscape (http://www.inkscape.org/) -->

<svg
   width="300mm"
   height="300mm"
   viewBox="0 0 300 300"
   version="1.1"
   id="svg8"
   inkscape:version="1.2.2 (b0a8486541, 2022-12-01)"
   sodipodi:docname="kGrad.svg"
   xmlns:inkscape="http://www.inkscape.org/namespaces/inkscape"
   xmlns:sodipodi="http://sodipodi.sourceforge.net/DTD/sodipodi-0.dtd"
   xmlns:xlink="http://www.w3.org/1999/xlink"
   xmlns="http://www.w3.org/2000/svg"
   xmlns:svg="http://www.w3.org/2000/svg"
   xmlns:rdf="http://www.w3.org/1999/02/22-rdf-syntax-ns#"
   xmlns:cc="http://creativecommons.org/ns#"
   xmlns:dc="http://purl.org/dc/elements/1.1/">
  <defs
     id="defs2">
    <linearGradient
       inkscape:collect="always"
       id="linearGradient1160">
      <stop
         style="stop-color:#51ef10;stop-opacity:1;"
         offset="0.1320353"
         id="stop1156" />
      <stop
         style="stop-color:#51ef10;stop-opacity:0;"
         offset="1"
         id="stop1158" />
    </linearGradient>
    <radialGradient
       inkscape:collect="always"
       xlink:href="#linearGradient1160"
       id="radialGradient1162"
       cx="150.33652"
       cy="147.46111"
       fx="150.33652"
       fy="147.46111"
       r="129.06587"
       gradientTransform="matrix(1.1609518,0,0,1.1676512,-24.481488,-24.601085)"
       gradientUnits="userSpaceOnUse" />
  </defs>
  <sodipodi:namedview
     id="base"
     pagecolor="#ffffff"
     bordercolor="#666666"
     borderopacity="1.0"
     inkscape:pageopacity="0.0"
     inkscape:pageshadow="2"
     inkscape:zoom="0.48892506"
     inkscape:cx="570.6396"
     inkscape:cy="487.80482"
     inkscape:document-units="mm"
     inkscape:current-layer="layer1"
     showgrid="false"
     inkscape:window-width="1920"
     inkscape:window-height="1043"
     inkscape:window-x="0"
     inkscape:window-y="0"
     inkscape:window-maximized="1"
     inkscape:showpageshadow="2"
     inkscape:pagecheckerboard="0"
     inkscape:deskcolor="#d1d1d1" />
  <metadata
     id="metadata5">
    <rdf:RDF>
      <cc:Work
         rdf:about="">
        <dc:format>image/svg+xml</dc:format>
        <dc:type
           rdf:resource="http://purl.org/dc/dcmitype/StillImage" />
      </cc:Work>
    </rdf:RDF>
  </metadata>
  <g
     inkscape:label="Layer 1"
     inkscape:groupmode="layer"
     id="layer1"
     transform="translate(0,3)">
    <g
       id="g1169">
      <ellipse
         style="fill:url(#radialGradient1162);fill-opacity:1;stroke-width:0.299979"
         id="path369"
         cx="150.05197"
         cy="147.58206"
         rx="149.83926"
         ry="150.70393" />
      <g
         id="g1331"
         transform="matrix(0.69460252,0,0,0.6737615,47.959245,44.633788)"
         style="fill:#ffffff">
        <path
           style="fill:#ffffff;stroke-width:0.264583"
           id="path1322"
           d="m 29.916927,20.265827 c 0.207285,0.895629 0.39624,1.795699 0.621858,2.686887 2.386131,9.425207 1.775084,6.094815 4.262186,17.379273 3.161085,14.342456 5.870265,28.778472 8.543853,43.217263 0.894218,5.516663 1.836894,11.025687 2.682653,16.54999 2.075283,13.55529 2.883945,18.97122 3.966652,32.41867 0.928629,11.53376 1.123447,22.94241 1.124897,34.49705 -0.122536,9.16623 -0.524142,18.32387 -1.605489,27.4279 -0.05219,0.63427 -0.139454,1.26662 -0.156559,1.9028 -0.02339,0.86992 0.04621,1.7403 0.0352,2.61046 -0.07208,5.70103 -0.45579,11.40398 -0.670365,17.10059 -0.08677,9.1325 -0.576826,18.24671 -1.36308,27.34434 -0.181446,2.14849 -0.408628,4.29299 -0.701482,6.42918 -0.129283,0.94305 -0.248055,1.37565 -0.224594,2.32149 0.01233,0.49755 0.07697,0.99243 0.115453,1.48865 0.521153,4.20576 0.457886,8.42347 0.145513,12.63921 0,0 37.066545,19.04722 37.066545,19.04722 v 0 c -0.009,-2.37546 -0.05315,-3.07478 0.112491,-5.486 0.225917,-3.28877 0.226385,-2.01015 0.587695,-5.06558 0.06871,-0.581 0.103605,-1.16552 0.155405,-1.74829 0.03652,-0.45831 0.09985,-0.91525 0.109554,-1.37491 0.01968,-0.93284 -0.119351,-1.60374 -0.232114,-2.53828 -0.283914,-2.35294 -0.497615,-4.71381 -0.648824,-7.07908 -0.576459,-9.23966 -0.817875,-18.51211 0.09516,-27.74189 0.411404,-4.33292 0.844474,-8.61061 1.688315,-12.88455 0.209933,-1.06328 0.461576,-2.11792 0.688448,-3.17772 0.186563,-0.87149 0.45411,-1.73028 0.551857,-2.61614 0.07995,-0.72457 -0.01461,-1.45786 -0.02188,-2.18679 -1.210732,-10.26396 -2.60552,-20.50873 -4.264873,-30.71008 C 79.761878,165.05508 76.764075,147.41377 74.336613,129.6915 73.573314,124.11887 72.923841,118.53121 72.196927,112.95371 71.488656,107.51925 70.753022,102.08838 70.031069,96.655711 68.316474,81.017905 68.331087,82.465956 67.212188,67.45018 66.530489,58.301709 65.452053,48.79464 68.476841,39.913077 c 0,0 -38.559904,-19.64725 -38.559904,-19.64725 z" />
        <path
           style="fill:#ffffff;stroke-width:0.264583"
           id="path1324"
           d="m 95.557982,175.56998 c 0.676187,-0.5665 1.3135,-1.18293 2.02856,-1.6995 3.253378,-2.35027 5.605018,-3.53056 9.264128,-5.54863 2.55443,-1.40883 5.08525,-2.86296 7.68011,-4.19585 6.7507,-3.46759 11.56037,-5.53564 18.48431,-8.66468 10.90686,-4.95231 21.75801,-10.11735 31.84544,-16.61652 6.25903,-4.0326 6.75723,-4.6277 12.61513,-9.18346 6.47609,-5.49322 12.35674,-11.66446 17.32889,-18.56149 2.0383,-2.82739 3.83427,-5.82184 5.76143,-8.72612 11.12586,-16.76694 1.06654,-1.46595 12.16957,-18.414807 5.28587,-8.093075 10.8609,-16.001865 16.94356,-23.518571 1.45162,-1.793857 2.97917,-3.52492 4.46876,-5.287378 0,0 -32.6583,-19.182337 -32.6583,-19.182337 v 0 c -5.6508,10.492806 -11.6937,20.756695 -18.19483,30.749579 -4.66718,6.975588 -7.39375,11.344947 -12.58714,17.938612 -7.27915,9.241827 -15.51457,17.784472 -24.64722,25.201582 -1.99997,1.5437 -3.96802,3.12968 -5.99992,4.63111 -11.3053,8.35382 -23.40223,15.63362 -36.07298,21.71536 -7.767545,3.54703 -11.014488,5.23095 -19.127269,8.1096 -3.127907,1.10988 -6.330344,1.99732 -9.496523,2.99279 -5.2212,1.64159 -10.433105,3.31368 -15.668273,4.90986 0,0 35.862567,23.35085 35.862567,23.35085 z" />
        <path
           style="fill:#ffffff;stroke-width:0.264583"
           id="path1326"
           d="m 109.63947,180.77262 c 1.56078,0.6951 5.09389,2.26158 6.16466,2.78638 6.53565,3.20323 36.39181,19.42896 -16.83609,-10.14964 -3.063872,-1.70259 6.01148,3.60924 8.95163,5.51754 2.85841,1.85524 5.62613,3.84661 8.4392,5.76992 11.74899,8.4761 22.16008,18.59758 31.79176,29.38046 4.61772,5.16964 8.73611,10.27455 13.13631,15.61726 7.4637,9.13966 14.6933,18.46836 22.13085,27.62874 0.43428,0.51326 0.82911,1.06268 1.30284,1.53978 0.56999,0.57405 1.11709,1.20506 1.82008,1.60536 12.79746,7.287 25.57429,14.62536 38.63462,21.43001 1.07244,0.55875 2.38452,0.40778 3.58337,0.56619 3.85132,0.50895 5.04294,0.52091 9.02933,0.78949 8.75004,0.38547 17.50758,0.56808 26.25518,1.00385 0,0 -32.385,-23.5945 -32.385,-23.5945 v 0 c -8.54399,0.23987 -17.11992,0.0679 -25.60743,-1.02733 -3.66766,-0.58693 -5.98735,-0.83163 -9.51468,-1.86129 -1.28756,-0.37586 -4.9332,-2.05458 -3.78906,-1.35454 10.82368,6.62242 21.9969,12.65801 32.89255,19.16137 0.66025,0.39407 -1.49232,-0.43061 -2.15749,-0.81635 -0.78195,-0.45347 -1.42298,-1.11514 -2.13447,-1.67269 -10.14446,-9.07728 -19.00061,-19.46065 -27.88738,-29.7411 -4.83556,-5.66259 -8.87671,-10.43151 -13.79828,-16.04347 -2.40158,-2.73847 -4.76568,-5.51214 -7.25564,-8.17051 -7.31111,-7.80561 -15.20928,-15.06991 -23.6158,-21.68027 -2.78983,-1.96719 -5.54447,-3.98525 -8.36948,-5.90158 -15.06244,-10.21755 -32.49353,-19.50699 -47.530489,-28.17744 -3.411588,-1.96715 -9.544682,-5.33919 -13.321704,-7.26185 -1.240886,-0.63166 -2.511685,-1.20276 -3.767529,-1.80413 0,0 33.838142,26.46034 33.838142,26.46034 z" />
      </g>
    </g>
  </g>
</svg>
