<?xml version="1.0" encoding="UTF-8" standalone="no"?>
<!-- Created with Inkscape (http://www.inkscape.org/) -->

<svg
   width="300mm"
   height="300mm"
   viewBox="0 0 300 300"
   version="1.1"
   id="svg8"
   inkscape:version="1.2.2 (b0a8486541, 2022-12-01)"
   sodipodi:docname="lGrad.svg"
   xmlns:inkscape="http://www.inkscape.org/namespaces/inkscape"
   xmlns:sodipodi="http://sodipodi.sourceforge.net/DTD/sodipodi-0.dtd"
   xmlns:xlink="http://www.w3.org/1999/xlink"
   xmlns="http://www.w3.org/2000/svg"
   xmlns:svg="http://www.w3.org/2000/svg"
   xmlns:rdf="http://www.w3.org/1999/02/22-rdf-syntax-ns#"
   xmlns:cc="http://creativecommons.org/ns#"
   xmlns:dc="http://purl.org/dc/elements/1.1/">
  <defs
     id="defs2">
    <linearGradient
       inkscape:collect="always"
       id="linearGradient1002">
      <stop
         style="stop-color:#f508d8;stop-opacity:1;"
         offset="0.13592161"
         id="stop998" />
      <stop
         style="stop-color:#f508d8;stop-opacity:0;"
         offset="1"
         id="stop1000" />
    </linearGradient>
    <radialGradient
       inkscape:collect="always"
       xlink:href="#linearGradient1002"
       id="radialGradient1004"
       cx="148.25082"
       cy="148.66048"
       fx="148.25082"
       fy="148.66048"
       r="135.92461"
       gradientTransform="matrix(1.1021392,0,0,1.0951089,-12.676515,-15.431201)"
       gradientUnits="userSpaceOnUse" />
  </defs>
  <sodipodi:namedview
     id="base"
     pagecolor="#ffffff"
     bordercolor="#666666"
     borderopacity="1.0"
     inkscape:pageopacity="0.0"
     inkscape:pageshadow="2"
     inkscape:zoom="0.48892506"
     inkscape:cx="570.6396"
     inkscape:cy="487.80482"
     inkscape:document-units="mm"
     inkscape:current-layer="layer1"
     showgrid="false"
     inkscape:window-width="1920"
     inkscape:window-height="1043"
     inkscape:window-x="0"
     inkscape:window-y="0"
     inkscape:window-maximized="1"
     inkscape:showpageshadow="2"
     inkscape:pagecheckerboard="0"
     inkscape:deskcolor="#d1d1d1" />
  <metadata
     id="metadata5">
    <rdf:RDF>
      <cc:Work
         rdf:about="">
        <dc:format>image/svg+xml</dc:format>
        <dc:type
           rdf:resource="http://purl.org/dc/dcmitype/StillImage" />
      </cc:Work>
    </rdf:RDF>
  </metadata>
  <g
     inkscape:label="Layer 1"
     inkscape:groupmode="layer"
     id="layer1"
     transform="translate(0,3)">
    <g
       id="g1010">
      <ellipse
         style="fill:url(#radialGradient1004);fill-opacity:1;stroke-width:0.294645"
         id="path367"
         cx="150.71654"
         cy="147.36821"
         rx="149.80785"
         ry="148.85225" />
      <g
         id="g1364"
         transform="matrix(0.66013414,0,0,0.72909395,53.286214,38.943652)"
         style="fill:#ffffff">
        <path
           style="fill:#ffffff;stroke-width:0.264583"
           id="path1358"
           d="m 34.645531,26.095964 c 0.766027,3.373599 0.85544,6.852515 1.227807,10.280732 0.34181,3.146922 0.746275,6.286725 1.114343,9.430684 1.287377,8.272941 2.009555,16.617466 3.416784,24.872659 0.865492,5.077208 2.164479,11.529271 3.142035,16.520956 0.617495,3.33493 1.213641,6.673884 1.852488,10.00479 2.194105,11.439945 2.646328,12.881435 4.791507,24.751045 1.229767,6.8045 3.370979,19.65198 4.394636,26.57365 0.589053,3.98301 1.084609,7.97928 1.626915,11.96892 2.059488,14.42397 2.682145,28.99075 4.111429,43.47687 0.22234,2.25347 0.500507,4.50109 0.750761,6.75164 0.790858,7.48861 1.557089,14.99804 1.706364,22.53322 0.06583,3.32282 -0.02103,4.34472 -0.154694,7.50054 -0.429083,2.47716 0.04457,6.25536 -1.176605,8.53284 -0.08577,0.10198 -0.17155,0.20397 -0.257326,0.30596 0,0 37.490567,21.7263 37.490567,21.7263 v 0 c 0.170611,-0.32591 0.341222,-0.65185 0.511833,-0.97777 0.365631,-1.08061 0.514689,-1.34117 0.646467,-2.51788 0.326908,-2.91912 -0.408596,-5.82432 -0.726948,-8.70573 -1.399622,-10.54873 -2.316252,-21.16004 -4.082137,-31.66022 -2.736405,-17.54708 -5.513297,-35.09219 -9.191688,-52.47309 -1.379032,-7.1743 -3.580032,-18.32632 -4.712573,-25.46582 C 78.690432,134.16309 77.557584,118.64329 76.090308,103.16909 75.303752,95.745073 74.551224,88.320132 73.802951,80.892572 73.221465,75.120591 72.582042,69.354053 72.531795,63.543155 72.240544,57.661721 71.98438,51.616132 73.414267,45.849621 c 0,0 -38.768736,-19.753657 -38.768736,-19.753657 z" />
        <path
           style="fill:#ffffff;stroke-width:0.264583"
           id="path1360"
           d="m 59.878282,269.83473 c 0.497806,-0.22212 0.978591,-0.48718 1.493417,-0.66633 0.671354,-0.23365 5.809604,-1.60149 5.842547,-1.61083 7.002616,-1.98559 13.971278,-4.08215 20.978119,-6.05591 3.766291,-0.92659 7.522091,-1.89692 11.298875,-2.77977 4.28522,-1.0017 8.5687,-2.0192 12.88571,-2.87354 9.30568,-1.84162 16.43437,-2.76851 25.76979,-4.10966 7.03503,-1.01067 14.07185,-2.0089 21.10751,-3.01512 7.62412,-0.88869 15.1487,-2.41347 22.71841,-3.64713 5.42175,-0.8836 10.85985,-1.60235 16.31533,-2.23529 8.1986,-0.85388 16.44844,-0.9855 24.68385,-1.07006 8.29527,-0.33809 16.49608,1.10809 24.51203,3.09401 7.73653,2.31664 15.31557,5.09738 22.84875,7.99634 0,0 -31.68316,-24.73418 -31.68316,-24.73418 v 0 c -4.45327,-1.47523 -8.88951,-2.99775 -13.32634,-4.52175 -1.74702,-0.60008 -3.47967,-1.24357 -5.24027,-1.80253 -1.53554,-0.48751 -3.09663,-0.89057 -4.64495,-1.33586 -1.38351,-0.28891 -2.7594,-0.6171 -4.15054,-0.86673 -6.93145,-1.24378 -13.99968,-1.62502 -21.03083,-1.53277 -8.18247,0.13071 -16.38651,0.38394 -24.45074,1.92452 -11.99877,2.33623 -23.80857,5.50296 -35.68195,8.39179 -14.49847,3.52288 -29.08784,6.76145 -43.80296,9.25842 -4.644768,0.78816 -9.311137,1.4436 -13.970788,2.13837 -4.214011,0.62832 -8.433318,1.22056 -12.649978,1.83084 -13.510604,1.56141 -7.705164,0.95451 -19.604172,2.11851 -5.760852,0.56355 -5.155081,0.5858 -10.373143,0.80877 -1.019778,0.0436 -2.040702,0.11846 -3.060906,0.0864 -0.608656,-0.0191 -1.207402,-0.15965 -1.811103,-0.23948 0,0 35.027492,25.44896 35.027492,25.44896 z" />
      </g>
    </g>
  </g>
</svg>
