<?xml version="1.0" encoding="UTF-8" standalone="no"?>
<!-- Created with Inkscape (http://www.inkscape.org/) -->

<svg
   width="300mm"
   height="300mm"
   viewBox="0 0 300 300"
   version="1.1"
   id="svg8"
   inkscape:version="1.2.2 (b0a8486541, 2022-12-01)"
   sodipodi:docname="mOrig.svg"
   xmlns:inkscape="http://www.inkscape.org/namespaces/inkscape"
   xmlns:sodipodi="http://sodipodi.sourceforge.net/DTD/sodipodi-0.dtd"
   xmlns="http://www.w3.org/2000/svg"
   xmlns:svg="http://www.w3.org/2000/svg"
   xmlns:rdf="http://www.w3.org/1999/02/22-rdf-syntax-ns#"
   xmlns:cc="http://creativecommons.org/ns#"
   xmlns:dc="http://purl.org/dc/elements/1.1/">
  <defs
     id="defs2" />
  <sodipodi:namedview
     id="base"
     pagecolor="#ffffff"
     bordercolor="#666666"
     borderopacity="1.0"
     inkscape:pageopacity="0.0"
     inkscape:pageshadow="2"
     inkscape:zoom="0.48892506"
     inkscape:cx="569.61695"
     inkscape:cy="485.75951"
     inkscape:document-units="mm"
     inkscape:current-layer="layer1"
     showgrid="false"
     inkscape:window-width="1920"
     inkscape:window-height="1043"
     inkscape:window-x="0"
     inkscape:window-y="0"
     inkscape:window-maximized="1"
     inkscape:showpageshadow="2"
     inkscape:pagecheckerboard="0"
     inkscape:deskcolor="#d1d1d1" />
  <metadata
     id="metadata5">
    <rdf:RDF>
      <cc:Work
         rdf:about="">
        <dc:format>image/svg+xml</dc:format>
        <dc:type
           rdf:resource="http://purl.org/dc/dcmitype/StillImage" />
      </cc:Work>
    </rdf:RDF>
  </metadata>
  <g
     inkscape:label="Layer 1"
     inkscape:groupmode="layer"
     id="layer1"
     transform="translate(0,3)">
    <g
       id="g1402"
       transform="translate(-1.0583333,-5.2916669)">
      <path
         style="fill:#000000;stroke-width:0.264583"
         id="path1390"
         d="m 48.38356,263.63753 c 0.293349,-0.66887 0.543777,-1.35824 0.880041,-2.0066 3.165205,-6.10278 7.151195,-11.83116 10.897587,-17.57519 8.240164,-12.63395 4.672232,-7.33897 13.836163,-20.20133 10.165101,-14.54448 20.92847,-28.65844 30.841529,-43.38039 6.13816,-9.1158 6.84683,-10.43872 12.5103,-19.56106 1.70717,-3.0727 3.47667,-6.11159 5.12152,-9.21809 1.63388,-3.08577 3.15779,-6.2286 4.71264,-9.35494 3.2587,-6.55226 5.70661,-11.44533 8.53402,-18.18985 3.20388,-7.64258 4.27043,-11.0812 6.9929,-18.88392 3.39132,-11.666903 6.76624,-23.358139 9.38778,-35.227979 1.20306,-5.447223 1.43153,-7.066185 2.36273,-12.37605 1.00604,-6.045308 0.52177,-3.194116 1.44674,-8.554601 0,0 -35.95562,-18.58301 -35.95562,-18.58301 v 0 c 0.274,5.805281 0.18957,2.737438 0.21008,9.204624 -0.2113,5.437095 -0.21308,7.349821 -0.75302,12.936347 -1.1708,12.113763 -3.45778,24.117371 -7.44257,35.639187 -1.04194,3.119009 -1.98998,6.270977 -3.12582,9.357029 -1.14989,3.124213 -2.44978,6.191523 -3.72828,9.265343 -1.89723,4.5614 -5.938812,13.82359 -8.047414,18.26015 -2.984683,6.27985 -6.341086,12.37868 -9.252847,18.69462 -1.696863,3.25989 -3.310422,6.56451 -5.090594,9.77966 -6.11496,11.04416 -13.074073,21.56897 -20.332573,31.88597 -2.589334,3.6804 -5.169431,7.36931 -7.874476,10.96552 -2.732423,3.6326 -5.622652,7.14378 -8.43398,10.71567 -8.978069,10.68777 -7.058802,8.8488 -16.550415,18.47059 -5.600015,5.67683 -11.362361,11.48131 -18.358881,15.44355 0,0 37.21246,22.49475 37.21246,22.49475 z" />
      <path
         style="fill:#000000;stroke-width:0.264583"
         id="path1392"
         d="m 121.71684,32.891364 c 3.16423,14.311272 8.73014,27.924394 13.77103,41.640394 1.31952,3.541144 2.63354,7.08434 3.95855,10.623434 3.66435,9.78749 7.28875,19.568778 10.46079,29.530548 1.82929,5.74488 2.82337,9.38964 4.44209,15.07771 2.29722,8.27354 4.34356,16.61635 6.22911,24.99251 0,0 37.42754,17.70516 37.42754,17.70516 v 0 c -3.34975,-8.96266 -6.34638,-18.05669 -9.97597,-26.915 -6.48187,-16.30655 0.74993,1.9826 -6.22185,-15.98233 -5.22727,-13.46963 -10.58739,-26.89197 -15.37624,-40.527177 -2.88961,-9.194371 -3.47787,-10.199685 -5.34861,-19.305698 -1.13112,-5.505916 -2.36859,-11.573963 -0.61148,-17.092912 0,0 -38.75496,-19.746639 -38.75496,-19.746639 z" />
      <path
         style="fill:#000000;stroke-width:0.264583"
         id="path1394"
         d="m 204.2837,162.89365 c 1.55841,-6.89616 6.11015,-12.87455 9.85985,-18.74782 3.34914,-5.06305 7.0258,-9.89179 10.4086,-14.93011 0.73539,-1.09529 1.51661,-2.16153 2.20008,-3.28996 0.68404,-1.12938 1.26555,-2.31777 1.89832,-3.47665 0.92124,-1.87405 2.48793,-4.92685 3.20849,-6.91377 1.23206,-3.39735 2.14464,-7.5098 2.60158,-11.09661 0.16498,-1.29504 0.22557,-2.60126 0.33836,-3.90188 -0.70658,-8.109535 -2.5866,-16.051041 -3.74694,-24.09548 -0.28531,-1.977975 -0.47426,-3.968655 -0.71138,-5.952982 0,0 -34.59001,-17.001199 -34.59001,-17.001199 v 0 c 1.21832,7.167946 0.9649,5.185995 1.86706,12.509024 0.38289,3.10801 0.99812,8.160384 1.15137,11.362819 0.07,1.462455 0.01,2.928239 0.0143,4.392358 -0.37051,3.522136 -0.67001,7.076181 -1.51575,10.526676 -0.85083,3.471246 -2.17365,6.816907 -3.7956,9.995414 -0.80891,1.51804 -2.74853,5.19729 -3.61498,6.66345 -3.06721,5.19018 -6.62422,10.06599 -9.98684,15.06232 -4.35234,5.90675 -8.46422,12.02301 -13.26918,17.57622 0,0 37.6827,21.31818 37.6827,21.31818 z" />
      <path
         style="fill:#000000;stroke-width:0.264583"
         id="path1396"
         d="m 197.65738,46.156365 c 4.11368,6.924487 8.08853,13.943359 11.63266,21.179959 2.35169,4.801815 2.98452,6.505829 5.01745,11.359997 2.33001,5.939237 4.72107,11.884959 6.65242,17.970852 0.64252,2.024639 1.13833,4.093107 1.73786,6.130887 4.10788,13.96259 0.40941,0.63811 4.44539,15.52585 3.98357,15.95041 7.36243,32.04724 10.86934,48.10824 1.73652,8.48003 3.16386,17.03043 5.0792,25.47401 4.40502,19.41901 -1.34933,-7.23751 2.57545,11.13824 2.04424,9.30523 3.86094,18.68191 4.76154,28.17288 0.14977,2.54481 0.21889,5.10077 0.14947,7.65014 -0.0108,0.39528 -0.0885,2.05048 -0.21028,2.56034 -0.0861,0.36022 -0.25211,0.6965 -0.37817,1.04474 -0.96866,1.70601 -2.5155,2.91213 -3.92984,4.21846 -0.49403,0.45629 -0.96716,0.93469 -1.45074,1.40204 -0.55155,0.49936 -1.10309,0.99872 -1.65464,1.49807 -2.52683,2.61399 -5.2979,4.92958 -8.1475,7.1767 0,0 35.30216,22.06737 35.30216,22.06737 v 0 c 2.73482,-2.42522 5.47918,-4.84563 8.42558,-7.01524 3.18172,-2.48983 6.59635,-4.90548 8.61078,-8.50641 0.6294,-1.3794 1.16946,-2.22826 1.27326,-3.78178 0.0419,-0.62738 -0.0959,-1.25459 -0.17965,-1.87777 -0.38706,-2.88059 -1.10892,-5.70703 -1.55559,-8.57736 -1.70384,-9.76058 -3.59463,-19.48223 -5.89423,-29.1232 -0.92009,-3.75798 -1.77737,-7.53178 -2.75355,-11.27558 -0.50485,-1.93624 -1.09066,-3.85063 -1.60626,-5.78403 -1.80676,-6.77485 -3.53062,-13.5761 -5.10942,-20.40757 -3.71753,-16.09811 -7.63556,-32.14813 -11.16111,-48.28968 -0.52157,-2.63128 -1.04811,-5.26157 -1.56472,-7.89383 -0.46506,-2.36962 -0.8203,-4.76276 -1.38026,-7.11177 -0.50833,-2.13238 -1.20425,-4.21568 -1.82144,-6.31914 -1.79512,-6.11795 -3.74697,-12.18109 -6.10746,-18.108978 -0.85211,-1.929691 -1.67086,-3.874465 -2.55635,-5.789075 -7.35113,-15.894727 1.55151,3.956095 -5.66577,-11.96476 -1.65402,-3.648652 -2.85261,-6.245466 -4.08334,-9.979784 -0.30377,-0.921692 -0.49592,-1.876497 -0.74387,-2.814743 0,0 -38.57837,-18.058075 -38.57837,-18.058075 z" />
    </g>
  </g>
</svg>
