<?xml version="1.0" encoding="UTF-8" standalone="no"?>
<!-- Created with Inkscape (http://www.inkscape.org/) -->

<svg
   width="300mm"
   height="300mm"
   viewBox="0 0 300 300"
   version="1.1"
   id="svg8"
   inkscape:version="1.2.2 (b0a8486541, 2022-12-01)"
   sodipodi:docname="nGrad.svg"
   xmlns:inkscape="http://www.inkscape.org/namespaces/inkscape"
   xmlns:sodipodi="http://sodipodi.sourceforge.net/DTD/sodipodi-0.dtd"
   xmlns:xlink="http://www.w3.org/1999/xlink"
   xmlns="http://www.w3.org/2000/svg"
   xmlns:svg="http://www.w3.org/2000/svg"
   xmlns:rdf="http://www.w3.org/1999/02/22-rdf-syntax-ns#"
   xmlns:cc="http://creativecommons.org/ns#"
   xmlns:dc="http://purl.org/dc/elements/1.1/">
  <defs
     id="defs2">
    <linearGradient
       inkscape:collect="always"
       id="linearGradient1004">
      <stop
         style="stop-color:#f7a276;stop-opacity:1;"
         offset="0.12171391"
         id="stop1000" />
      <stop
         style="stop-color:#f7a276;stop-opacity:0;"
         offset="1"
         id="stop1002" />
    </linearGradient>
    <radialGradient
       inkscape:collect="always"
       xlink:href="#linearGradient1004"
       id="radialGradient1006"
       cx="157.90968"
       cy="154.41884"
       fx="157.90968"
       fy="154.41884"
       r="151.47505"
       gradientTransform="matrix(0.99249935,0,0,0.98864355,-7.2730255,-6.3239782)"
       gradientUnits="userSpaceOnUse" />
  </defs>
  <sodipodi:namedview
     id="base"
     pagecolor="#ffffff"
     bordercolor="#666666"
     borderopacity="1.0"
     inkscape:pageopacity="0.0"
     inkscape:pageshadow="2"
     inkscape:zoom="0.48892506"
     inkscape:cx="570.6396"
     inkscape:cy="487.80482"
     inkscape:document-units="mm"
     inkscape:current-layer="layer1"
     showgrid="false"
     inkscape:window-width="1920"
     inkscape:window-height="1043"
     inkscape:window-x="0"
     inkscape:window-y="0"
     inkscape:window-maximized="1"
     inkscape:showpageshadow="2"
     inkscape:pagecheckerboard="0"
     inkscape:deskcolor="#d1d1d1" />
  <metadata
     id="metadata5">
    <rdf:RDF>
      <cc:Work
         rdf:about="">
        <dc:format>image/svg+xml</dc:format>
        <dc:type
           rdf:resource="http://purl.org/dc/dcmitype/StillImage" />
      </cc:Work>
    </rdf:RDF>
  </metadata>
  <g
     inkscape:label="Layer 1"
     inkscape:groupmode="layer"
     id="layer1"
     transform="translate(0,3)">
    <g
       id="g1013">
      <ellipse
         style="fill:url(#radialGradient1006);fill-opacity:1;stroke-width:0.272552"
         id="path369"
         cx="149.45224"
         cy="146.34122"
         rx="150.3389"
         ry="149.75484" />
      <g
         id="g1457"
         transform="matrix(0.83165134,0,0,0.68556237,36.553573,39.793948)"
         style="fill:#ffffff">
        <path
           style="fill:#ffffff;stroke-width:0.264583"
           id="path1448"
           d="m 38.343501,45.388764 c 0.615545,1.1615 1.173649,2.35531 1.846638,3.484494 7.415218,12.441703 0.569471,-0.166489 9.082773,14.861 3.673745,6.484813 7.337065,13.581311 10.545741,20.302257 1.63263,3.419734 3.147642,6.894388 4.721463,10.341583 1.347192,3.245967 2.745999,6.470992 4.041574,9.737902 2.403726,6.06122 4.069847,10.72021 5.988042,16.87947 2.060297,6.61555 3.720835,13.3186 5.278805,20.06529 2.619261,12.40481 3.335824,25.08839 3.909565,37.72033 0.600549,13.19194 -0.06403,26.38416 -0.522726,39.56701 -0.05738,1.6983 -0.115253,3.39657 -0.172136,5.09488 -0.141427,4.22262 -0.121682,4.81601 -0.391186,8.87282 -0.192299,2.89463 -0.485598,5.78198 -0.71882,8.67341 -0.305152,2.35258 -0.151178,4.76241 -0.638347,7.09367 -0.250918,1.20071 -0.480462,1.65199 -0.921388,2.77922 -1.270537,2.84547 -2.375334,5.74139 -3.25873,8.73058 -5.776939,18.23003 -9.208283,1.20764 36.514101,24.64523 0,0 -38.071869,-20.56151 -38.071869,-20.56151 v 0 c 12.65888,7.08445 25.317759,14.16891 37.976639,21.25337 -0.0703,-0.6282 -0.15844,-1.12898 -0.0556,-1.78295 0.16813,-1.06894 0.62633,-2.07883 0.79329,-3.14788 1.01808,-2.925 2.39289,-5.61679 3.40354,-8.54001 0.133,-0.43257 0.97607,-3.16082 1.05428,-3.47644 0.65048,-2.62536 0.72077,-5.34117 0.42725,-8.02097 -0.57392,-7.95488 -1.15477,-15.90654 -1.17946,-23.88877 -0.37526,-13.41722 -0.91748,-26.83479 -0.64661,-40.26077 0.013,-2.35828 0.0833,-11.15509 0.0126,-13.64379 -0.23559,-8.29351 -1.13829,-16.61007 -3.17576,-24.66251 -1.65269,-6.11007 -1.92255,-7.49456 -4.01897,-13.60604 -4.16278,-12.1354 -9.64596,-23.76307 -14.866813,-35.4637 -1.561087,-3.46455 -3.117501,-6.9312 -4.683262,-10.393641 -4.019987,-8.889574 -8.18882,-17.755435 -11.447217,-26.965375 -1.245653,-3.520866 -1.322062,-4.133252 -1.96479,-7.051429 0,0 -38.862672,-18.636731 -38.862672,-18.636731 z" />
        <path
           style="fill:#ffffff;stroke-width:0.264583"
           id="path1450"
           d="m 58.679937,54.225202 c 18.395285,13.406802 38.647411,22.038788 58.737483,31.885569 1.26484,0.646121 2.55017,1.253625 3.79453,1.938362 1.09882,0.604652 4.32116,2.548307 3.23126,1.927725 -10.69786,-6.091293 -21.2968,-12.357428 -32.055717,-18.340197 -1.04757,-0.582525 1.969622,1.370531 2.899349,2.12707 2.629657,2.13981 3.424923,3.134325 5.780168,5.605206 6.63587,7.49164 12.21704,15.846432 17.65963,24.222753 5.45968,8.92414 10.27121,18.21878 15.34144,27.36339 4.42101,8.04256 9.34218,15.80485 13.72118,23.87075 0.89966,1.65712 1.73534,3.34819 2.60301,5.02227 3.42697,7.10973 6.18322,14.5113 9.00067,21.87574 2.73605,6.99842 4.38065,14.32819 5.84051,21.6769 1.25954,7.05539 2.09034,14.17892 3.06692,21.27766 0.82821,4.88447 1.37147,9.80952 1.7317,14.7483 0,0 36.87581,18.1746 36.87581,18.1746 v 0 c -0.94937,-4.96128 -1.71889,-9.95013 -2.23942,-14.97661 -0.86161,-7.16402 -1.23603,-14.39898 -2.88711,-21.4521 -0.15188,-0.85027 -1.16605,-6.57615 -1.35077,-7.41613 -0.47081,-2.14098 -1.39719,-5.29578 -1.97424,-7.39585 -0.34978,-1.27295 -0.65804,-2.55759 -1.03532,-3.82266 -0.36201,-1.21386 -0.78786,-2.40775 -1.18179,-3.61163 -1.18339,-3.53038 -2.43932,-7.00725 -3.95533,-10.41219 -1.43746,-3.22854 -2.27329,-4.78292 -3.94582,-7.97836 -0.83111,-1.58787 -1.67561,-3.16871 -2.51342,-4.75306 -5.14164,-9.54916 -10.19153,-19.14833 -15.45971,-28.62869 -5.34565,-9.26878 -10.74247,-18.50602 -16.05676,-27.79291 -2.25171,-4.09396 -2.7938,-5.2642 -5.2795,-9.09656 -3.38593,-5.22028 -7.17964,-10.16185 -10.78772,-15.226039 -1.77307,-2.172909 -3.18287,-4.000963 -5.13467,-6.008462 -0.83898,-0.862926 -1.59763,-1.852221 -2.62502,-2.479109 C 115.91007,77.659959 101.68072,68.327792 86.198778,61.233599 81.801601,59.197911 77.425271,57.13895 73.134783,54.883557 59.492789,47.712335 37.730059,33.071138 98.625587,69.683356 c 0,0 -39.94565,-15.458154 -39.94565,-15.458154 z" />
        <path
           style="fill:#ffffff;stroke-width:0.264583"
           id="path1452"
           d="m 215.79449,281.0356 c 1.33577,-10.05509 3.08932,-20.05383 4.75441,-30.05952 0.38282,-2.51908 0.81158,-5.03161 1.14846,-7.55724 0.80493,-6.03452 1.00488,-9.32106 1.66205,-15.34881 0.69267,-6.3535 1.51163,-12.69474 2.33781,-19.03194 0.57447,-5.9038 1.70294,-11.73541 2.38805,-17.6244 0.29953,-2.5747 0.53656,-5.15639 0.83325,-7.73142 0.14679,-1.43887 0.33104,-2.8744 0.44037,-4.3166 0.1306,-1.72302 0.18614,-3.45092 0.27922,-5.17638 0.44653,-8.27705 0.65373,-16.56126 1.1001,-24.8385 0.41742,-7.14284 1.37254,-14.23918 1.89047,-21.37312 0.28636,-3.94442 0.27794,-4.6968 0.4195,-8.62667 0.39939,-9.68701 -0.34362,-19.370673 -0.90209,-29.036187 -0.21531,-4.618985 -0.8351,-9.216589 -2.30039,-13.619404 -0.52515,-1.57793 -1.19684,-3.103411 -1.82067,-4.644995 -1.23047,-3.040703 -2.33833,-5.55307 -3.63708,-8.55385 -0.51992,-1.219168 -1.01565,-2.448936 -1.55976,-3.657502 -0.50159,-1.114113 -0.98585,-2.23955 -1.57664,-3.309035 -2.2333,-4.042847 -5.22634,-7.681786 -7.99244,-11.365018 -1.61206,-2.129105 -0.85089,-1.138211 -2.27853,-2.97651 0,0 -39.14414,-16.286538 -39.14414,-16.286538 v 0 c 2.14365,1.851017 1.03106,0.833771 3.31352,3.078046 4.99725,5.452404 9.87455,11.108023 12.91364,17.933599 2.61534,5.405252 5.36721,11.00383 7.02721,16.794352 1.05356,3.675102 1.13629,5.151393 1.69881,8.972952 0.19089,1.665248 0.44337,3.324588 0.57266,4.995749 0.60251,7.78769 -0.15143,15.56195 -0.0666,23.353811 -0.10303,10.25474 0.0707,20.51798 -0.51014,30.76174 -0.2839,4.24398 -0.48932,8.49377 -0.84211,12.73258 -0.24921,2.99443 -0.84496,8.29388 -1.30383,11.33612 -0.24279,1.6097 -0.57577,3.2046 -0.84215,4.81057 -0.23008,1.3872 -0.43144,2.77901 -0.64716,4.16852 -0.46152,2.9131 -0.83477,4.89461 -1.06888,7.82622 -0.49083,6.14624 -0.28802,12.33644 -0.79957,18.4823 -0.49388,14.12791 -1.00921,28.31357 -3.70374,42.232 -1.42354,6.5026 -2.77871,12.87271 -5.44045,19.01427 -0.58792,1.35656 -1.33501,2.63853 -2.01964,3.94895 -1.19385,2.28513 -1.08352,2.04919 -2.20786,3.91309 0,0 37.88429,20.77877 37.88429,20.77877 z" />
      </g>
    </g>
  </g>
</svg>
