<?xml version="1.0" encoding="UTF-8" standalone="no"?>
<!-- Created with Inkscape (http://www.inkscape.org/) -->

<svg
   width="300mm"
   height="300mm"
   viewBox="0 0 300 300"
   version="1.1"
   id="svg8"
   inkscape:version="1.2.2 (b0a8486541, 2022-12-01)"
   sodipodi:docname="oGrad.svg"
   xmlns:inkscape="http://www.inkscape.org/namespaces/inkscape"
   xmlns:sodipodi="http://sodipodi.sourceforge.net/DTD/sodipodi-0.dtd"
   xmlns:xlink="http://www.w3.org/1999/xlink"
   xmlns="http://www.w3.org/2000/svg"
   xmlns:svg="http://www.w3.org/2000/svg"
   xmlns:rdf="http://www.w3.org/1999/02/22-rdf-syntax-ns#"
   xmlns:cc="http://creativecommons.org/ns#"
   xmlns:dc="http://purl.org/dc/elements/1.1/">
  <defs
     id="defs2">
    <linearGradient
       inkscape:collect="always"
       id="linearGradient1258">
      <stop
         style="stop-color:#5aa99c;stop-opacity:1;"
         offset="0.16002867"
         id="stop1254" />
      <stop
         style="stop-color:#5aa99c;stop-opacity:0;"
         offset="1"
         id="stop1256" />
    </linearGradient>
    <radialGradient
       inkscape:collect="always"
       xlink:href="#linearGradient1258"
       id="radialGradient1260"
       cx="155.25714"
       cy="156.94887"
       fx="155.25714"
       fy="156.94887"
       r="133.1033"
       gradientTransform="matrix(1.1290159,0,0,1.1162177,-24.154806,-27.305199)"
       gradientUnits="userSpaceOnUse" />
  </defs>
  <sodipodi:namedview
     id="base"
     pagecolor="#ffffff"
     bordercolor="#666666"
     borderopacity="1.0"
     inkscape:pageopacity="0.0"
     inkscape:pageshadow="2"
     inkscape:zoom="0.48892506"
     inkscape:cx="570.6396"
     inkscape:cy="487.80482"
     inkscape:document-units="mm"
     inkscape:current-layer="layer1"
     showgrid="false"
     inkscape:window-width="1920"
     inkscape:window-height="1043"
     inkscape:window-x="0"
     inkscape:window-y="0"
     inkscape:window-maximized="1"
     inkscape:showpageshadow="2"
     inkscape:pagecheckerboard="0"
     inkscape:deskcolor="#d1d1d1" />
  <metadata
     id="metadata5">
    <rdf:RDF>
      <cc:Work
         rdf:about="">
        <dc:format>image/svg+xml</dc:format>
        <dc:type
           rdf:resource="http://purl.org/dc/dcmitype/StillImage" />
      </cc:Work>
    </rdf:RDF>
  </metadata>
  <g
     inkscape:label="Layer 1"
     inkscape:groupmode="layer"
     id="layer1"
     transform="translate(0,3)">
    <g
       id="g1280">
      <ellipse
         style="fill:url(#radialGradient1260);fill-opacity:1;stroke-width:0.297203"
         id="path363"
         cx="151.13297"
         cy="147.88391"
         rx="150.27574"
         ry="148.57225" />
      <path
         style="fill:#ffffff;stroke-width:0.207802"
         id="path1484"
         d="m 163.68349,59.603338 c -3.79872,1.057608 -7.65536,1.777463 -11.43314,2.958504 -1.32878,0.415417 -2.64431,0.895331 -3.96647,1.342996 -1.42229,0.514002 -2.84999,1.00491 -4.26689,1.542009 -3.12091,1.183026 -6.13364,2.404201 -9.17771,3.882117 -4.93532,2.396133 -9.73444,5.214364 -14.5179,8.045726 -1.52831,1.081756 -3.06144,2.152807 -4.58494,3.24527 -1.47374,1.05679 -2.95954,2.08879 -4.40664,3.202386 -2.57508,1.981598 -5.8039,4.738933 -8.2339,7.002525 -3.283425,3.05857 -4.287021,4.232432 -7.390068,7.532429 -6.306492,7.02841 -11.416077,15.56655 -15.225181,25.01532 -0.831742,2.06319 -1.53933,4.20206 -2.308994,6.30309 -0.646143,2.34449 -1.328501,4.67365 -1.938425,7.03347 -1.400277,5.4177 -2.205294,9.0303 -3.187376,14.59739 -1.218838,6.9092 -2.008277,13.88848 -2.745106,20.89778 -0.627248,5.42322 -1.094287,10.86922 -1.044978,16.35634 0.01373,1.52658 0.03185,3.05748 0.160247,4.57558 0.322379,3.81168 0.693654,4.78638 1.549204,8.38251 0.603223,1.35029 1.120803,2.76717 1.809674,4.05087 1.730771,3.22528 4.66959,7.02267 7.367711,8.98218 26.617662,19.33106 17.151723,15.833 30.537102,20.20169 1.34974,0.26391 2.69113,0.60774 4.04921,0.79172 1.57451,0.21331 3.15835,0.30608 4.74024,0.39902 4.34762,0.25543 7.44934,0.23308 11.86098,0.20156 5.10254,-0.0365 10.10565,-0.15263 15.21103,-0.25345 11.1533,-0.17084 22.36958,-0.0105 33.40155,-2.41454 6.48491,-1.41317 7.08863,-1.92726 13.18103,-4.35521 1.83528,-0.99651 3.72405,-1.84954 5.50586,-2.98956 4.80017,-3.07122 9.26913,-7.31148 13.07168,-12.09783 2.9223,-3.67836 3.78291,-5.41043 6.24673,-9.52617 0.82826,-1.87978 1.72212,-3.71607 2.48478,-5.63935 1.47836,-3.72812 3.05985,-8.73804 4.14622,-12.64742 1.23759,-4.45351 2.49642,-9.7884 3.3511,-14.37189 0.4909,-2.63262 0.86144,-5.29852 1.29215,-7.94778 1.15089,-7.50002 2.10169,-15.0451 2.875,-22.62093 0.42299,-4.14412 0.8827,-8.51469 0.91532,-12.70678 0.0157,-2.02029 -0.13548,-4.03718 -0.20323,-6.05577 -0.30605,-1.97601 -0.44582,-4.00462 -0.91817,-5.92802 -1.04574,-4.25833 -2.76997,-8.16248 -5.20013,-11.42993 -3.75294,-5.04598 -8.11961,-8.51472 -12.88721,-11.898452 -9.35823,-6.641863 -18.85861,-12.961206 -28.2879,-19.441809 -9.58606,-4.979369 -19.33332,-9.44142 -29.04815,-14.000259 0,0 17.5509,17.240008 17.5509,17.240008 v 0 c 2.85829,1.221032 5.73739,2.367439 8.57487,3.663098 9.97943,4.556835 10.34925,5.016617 20.21263,10.490116 -3.63416,-2.879898 -7.30458,-5.688527 -10.90249,-8.639696 -2.06196,-1.691317 4.28738,3.065063 6.29368,4.85934 4.15428,3.715245 7.84474,8.541358 9.69841,14.612174 0.54169,1.77406 0.77396,3.67423 1.16094,5.51135 0.1628,1.95013 0.40993,3.89201 0.48839,5.8504 0.083,2.07294 0.0295,4.15158 -0.005,6.2267 -0.16144,9.82133 -0.89649,19.64636 -2.45441,29.27831 -0.50226,2.53601 -0.95819,5.08726 -1.50677,7.60801 -0.94599,4.34685 -2.26885,9.58605 -3.59322,13.7916 -0.66537,2.11288 -1.42021,4.17995 -2.17421,6.24512 -0.70149,1.92134 -1.38624,3.85667 -2.19154,5.71238 -0.77264,1.78045 -1.69074,3.45457 -2.5361,5.18186 -2.32423,4.02572 -3.03371,5.53114 -5.77955,9.16392 -4.85251,6.41993 -10.56249,11.26365 -17.04291,14.71164 -5.22714,2.4101 -6.41526,3.20704 -12.00089,4.71646 -10.71085,2.89443 -21.73596,3.0027 -32.63282,2.51011 -7.77274,-0.35164 -15.54594,-0.65853 -23.2934,-1.57651 -3.94106,-0.46698 -7.296831,-0.96154 -11.14623,-2.00016 -1.411936,-0.38096 -2.794603,-0.91713 -4.191904,-1.3757 -11.143059,-5.32454 -4.303901,-2.35099 17.079344,13.67997 0.94611,0.7093 -1.95949,-1.27872 -2.87317,-2.05248 -1.5484,-1.3113 -3.836954,-3.82842 -5.058805,-5.60405 -0.701656,-1.01968 -1.261051,-2.18166 -1.891578,-3.2725 -0.4286,-1.22322 -0.935432,-2.40759 -1.285803,-3.66968 -2.253701,-8.11814 -1.691628,-16.85214 -1.553521,-25.27796 0.318402,-5.55516 0.383111,-8.08023 1.03647,-13.65316 1.128394,-9.62481 3.147235,-19.06824 6.306867,-27.96177 1.8121,-4.65401 2.68952,-7.26227 4.92014,-11.60594 3.48013,-6.77686 7.85879,-12.72763 12.63811,-18.07073 2.69844,-2.91968 4.26166,-4.70204 7.10644,-7.41243 5.25018,-5.00214 10.90837,-9.332919 16.74294,-13.157601 3.64822,-2.216573 5.61879,-3.526433 9.41974,-5.375153 6.13127,-2.982144 12.51447,-5.121375 18.93495,-6.840634 1.39831,-0.308362 2.79005,-0.668216 4.19489,-0.925089 4.48771,-0.820565 9.06326,-1.159446 13.56225,-0.305201 0,0 -24.59239,-22.493454 -24.59239,-22.493454 z" />
    </g>
  </g>
</svg>
