<?xml version="1.0" encoding="UTF-8" standalone="no"?>
<!-- Created with Inkscape (http://www.inkscape.org/) -->

<svg
   width="300mm"
   height="300mm"
   viewBox="0 0 300 300"
   version="1.1"
   id="svg8"
   inkscape:version="1.2.2 (b0a8486541, 2022-12-01)"
   sodipodi:docname="oOrig.svg"
   xmlns:inkscape="http://www.inkscape.org/namespaces/inkscape"
   xmlns:sodipodi="http://sodipodi.sourceforge.net/DTD/sodipodi-0.dtd"
   xmlns="http://www.w3.org/2000/svg"
   xmlns:svg="http://www.w3.org/2000/svg"
   xmlns:rdf="http://www.w3.org/1999/02/22-rdf-syntax-ns#"
   xmlns:cc="http://creativecommons.org/ns#"
   xmlns:dc="http://purl.org/dc/elements/1.1/">
  <defs
     id="defs2" />
  <sodipodi:namedview
     id="base"
     pagecolor="#ffffff"
     bordercolor="#666666"
     borderopacity="1.0"
     inkscape:pageopacity="0.0"
     inkscape:pageshadow="2"
     inkscape:zoom="0.48892506"
     inkscape:cx="569.61695"
     inkscape:cy="485.75951"
     inkscape:document-units="mm"
     inkscape:current-layer="layer1"
     showgrid="false"
     inkscape:window-width="1920"
     inkscape:window-height="1043"
     inkscape:window-x="0"
     inkscape:window-y="0"
     inkscape:window-maximized="1"
     inkscape:showpageshadow="2"
     inkscape:pagecheckerboard="0"
     inkscape:deskcolor="#d1d1d1" />
  <metadata
     id="metadata5">
    <rdf:RDF>
      <cc:Work
         rdf:about="">
        <dc:format>image/svg+xml</dc:format>
        <dc:type
           rdf:resource="http://purl.org/dc/dcmitype/StillImage" />
      </cc:Work>
    </rdf:RDF>
  </metadata>
  <g
     inkscape:label="Layer 1"
     inkscape:groupmode="layer"
     id="layer1"
     transform="translate(0,3)">
    <path
       style="fill:#000000;stroke-width:0.264583"
       id="path1484"
       d="m 169.51594,44.511955 c -5.42684,1.200163 -10.93643,2.017048 -16.33335,3.357282 -1.8983,0.471411 -3.77766,1.016013 -5.66649,1.524018 -2.03189,0.583285 -4.07149,1.140362 -6.09568,1.749857 -4.45853,1.342487 -8.76251,2.728264 -13.11126,4.405389 -7.05058,2.719109 -13.9066,5.91721 -20.74023,9.130212 -2.18335,1.227566 -4.37357,2.442985 -6.55004,3.682701 -2.105381,1.199235 -4.227989,2.370339 -6.29532,3.634036 -3.678749,2.248699 -8.291432,5.377696 -11.762926,7.946398 -4.690698,3.470836 -6.124432,4.802923 -10.557439,8.547727 -9.00944,7.975761 -16.308982,17.664765 -21.75066,28.387145 -1.188225,2.34129 -2.199084,4.76846 -3.298624,7.15269 -0.923078,2.6605 -1.897893,5.30361 -2.769229,7.98151 -2.000433,6.14795 -3.150479,10.24749 -4.553479,16.56498 -1.741229,7.84049 -2.86902,15.76051 -3.921652,23.71459 -0.896085,6.15422 -1.563296,12.33429 -1.492853,18.56102 0.01961,1.73235 0.0455,3.4696 0.228928,5.19232 0.46055,4.32546 0.990952,5.43154 2.213189,9.51239 0.861764,1.5323 1.601177,3.14016 2.585297,4.59689 2.472576,3.66002 6.670966,7.96926 10.525495,10.19289 38.02593,21.9367 24.502914,17.96714 43.625239,22.92469 1.928231,0.29948 3.844539,0.68965 5.784687,0.89843 2.249347,0.24206 4.512017,0.34734 6.771897,0.45281 6.211,0.28986 10.64212,0.26449 16.94457,0.22872 7.28948,-0.0414 14.43692,-0.1732 21.73046,-0.28761 15.93357,-0.19387 31.95713,-0.0119 47.71738,-2.73999 9.26433,-1.60366 10.1268,-2.18704 18.83039,-4.94225 2.62188,-1.13084 5.32017,-2.09885 7.86565,-3.39253 6.85752,-3.48519 13.24186,-8.297 18.67418,-13.7285 4.17479,-4.17417 5.40425,-6.1397 8.92407,-10.8102 1.18325,-2.13316 2.46021,-4.21697 3.54974,-6.39948 2.11199,-4.23064 4.3713,-9.91585 5.92329,-14.35218 1.76802,-5.0538 3.56637,-11.10778 4.78737,-16.30908 0.7013,-2.98747 1.23065,-6.0127 1.84597,-9.01906 1.64415,-8.51095 3.00246,-17.07303 4.10721,-25.67001 0.60428,-4.70271 1.26103,-9.66239 1.30762,-14.41953 0.0225,-2.29261 -0.19354,-4.58135 -0.29033,-6.87203 -0.43722,-2.24236 -0.6369,-4.54441 -1.3117,-6.72707 -1.49394,-4.83231 -3.95716,-9.262697 -7.42889,-12.970566 C 254.16698,90.484438 247.92876,86.548142 241.11778,82.708316 227.74863,75.171194 214.17642,68.000065 200.70575,60.645939 187.01113,54.9954 173.08621,49.931907 159.20762,44.758581 c 0,0 25.07319,19.563794 25.07319,19.563794 v 0 c 4.08334,1.385615 8.19641,2.686547 12.25003,4.156848 14.2566,5.171053 14.78492,5.692809 28.87572,11.904082 -5.19175,-3.26808 -10.43531,-6.455285 -15.57527,-9.804243 -2.94571,-1.91929 6.12494,3.478204 8.99114,5.514332 5.93479,4.216024 11.20697,9.69265 13.85512,16.581744 0.77386,2.013191 1.10568,4.169492 1.65852,6.254231 0.23257,2.212991 0.58563,4.416621 0.69772,6.638981 0.11863,2.35235 0.0422,4.71117 -0.007,7.066 -0.23064,11.14515 -1.28073,22.2945 -3.50637,33.22474 -0.71753,2.87784 -1.36887,5.77298 -2.15257,8.6335 -1.35144,4.93276 -3.24128,10.87816 -5.13327,15.65057 -0.95054,2.39768 -2.0289,4.74337 -3.10607,7.0869 -1.00215,2.18032 -1.98037,4.37652 -3.13082,6.48236 -1.1038,2.02044 -2.41539,3.92021 -3.62308,5.88032 -3.32038,4.56835 -4.33395,6.27669 -8.25665,10.39913 -6.93228,7.28528 -15.08955,12.78188 -24.34746,16.69463 -7.46748,2.73496 -9.16483,3.63932 -17.14444,5.35219 -15.3015,3.28457 -31.05196,3.40743 -46.61919,2.84845 -11.10412,-0.39904 -22.208896,-0.74729 -33.276897,-1.78901 -5.630196,-0.52992 -10.424237,-1.09114 -15.92348,-2.26976 -2.017088,-0.43231 -3.992364,-1.04075 -5.988544,-1.56113 -15.91895,-6.04224 -6.148544,-2.66788 24.399509,15.5239 1.351614,0.8049 -2.799323,-1.45108 -4.104595,-2.32914 -2.212046,-1.48805 -5.48147,-4.34445 -7.227003,-6.35942 -1.002385,-1.15712 -1.801535,-2.47573 -2.702304,-3.7136 -0.612298,-1.3881 -1.336357,-2.73211 -1.836896,-4.16432 -3.219632,-9.21239 -2.416656,-19.12365 -2.219357,-28.68518 0.454869,-6.30395 0.547312,-9.16937 1.480699,-15.49348 1.612021,-10.92214 4.496133,-21.63845 9.009972,-31.73074 2.588773,-5.28133 3.842253,-8.24116 7.0289,-13.17031 4.971719,-7.69032 11.227051,-14.44319 18.054786,-20.50649 3.85498,-3.31323 6.08819,-5.33584 10.15224,-8.41156 7.50039,-5.67638 15.58367,-10.590901 23.91893,-14.931113 5.21184,-2.515346 8.02699,-4.001762 13.45703,-6.099672 8.75912,-3.384108 17.87814,-5.811687 27.05043,-7.762685 1.99761,-0.349927 3.98585,-0.758285 5.99281,-1.049782 6.41113,-0.931169 12.94774,-1.315728 19.37499,-0.346339 0,0 -35.13263,-25.525354 -35.13263,-25.525354 z" />
  </g>
</svg>
