<?xml version="1.0" encoding="UTF-8" standalone="no"?>
<!-- Created with Inkscape (http://www.inkscape.org/) -->

<svg
   width="300mm"
   height="300mm"
   viewBox="0 0 300 300"
   version="1.1"
   id="svg8"
   inkscape:version="1.2.2 (b0a8486541, 2022-12-01)"
   sodipodi:docname="pGrad.svg"
   xmlns:inkscape="http://www.inkscape.org/namespaces/inkscape"
   xmlns:sodipodi="http://sodipodi.sourceforge.net/DTD/sodipodi-0.dtd"
   xmlns:xlink="http://www.w3.org/1999/xlink"
   xmlns="http://www.w3.org/2000/svg"
   xmlns:svg="http://www.w3.org/2000/svg"
   xmlns:rdf="http://www.w3.org/1999/02/22-rdf-syntax-ns#"
   xmlns:cc="http://creativecommons.org/ns#"
   xmlns:dc="http://purl.org/dc/elements/1.1/">
  <defs
     id="defs2">
    <linearGradient
       inkscape:collect="always"
       id="linearGradient1418">
      <stop
         style="stop-color:#948686;stop-opacity:1;"
         offset="0.13564649"
         id="stop1414" />
      <stop
         style="stop-color:#dcd4d4;stop-opacity:0;"
         offset="1"
         id="stop1416" />
    </linearGradient>
    <radialGradient
       inkscape:collect="always"
       xlink:href="#linearGradient1418"
       id="radialGradient1420"
       cx="141.72466"
       cy="153.341"
       fx="141.72466"
       fy="153.341"
       r="139.6366"
       gradientTransform="matrix(1.0704131,0,0,1.0792382,-1.8832484,-17.753713)"
       gradientUnits="userSpaceOnUse" />
  </defs>
  <sodipodi:namedview
     id="base"
     pagecolor="#ffffff"
     bordercolor="#666666"
     borderopacity="1.0"
     inkscape:pageopacity="0.0"
     inkscape:pageshadow="2"
     inkscape:zoom="0.48892506"
     inkscape:cx="570.6396"
     inkscape:cy="487.80482"
     inkscape:document-units="mm"
     inkscape:current-layer="layer1"
     showgrid="false"
     inkscape:window-width="1920"
     inkscape:window-height="1043"
     inkscape:window-x="0"
     inkscape:window-y="0"
     inkscape:window-maximized="1"
     inkscape:showpageshadow="2"
     inkscape:pagecheckerboard="0"
     inkscape:deskcolor="#d1d1d1" />
  <metadata
     id="metadata5">
    <rdf:RDF>
      <cc:Work
         rdf:about="">
        <dc:format>image/svg+xml</dc:format>
        <dc:type
           rdf:resource="http://purl.org/dc/dcmitype/StillImage" />
      </cc:Work>
    </rdf:RDF>
  </metadata>
  <g
     inkscape:label="Layer 1"
     inkscape:groupmode="layer"
     id="layer1"
     transform="translate(0,3)">
    <g
       id="g1426">
      <ellipse
         style="fill:url(#radialGradient1420);fill-opacity:1;stroke-width:0.284307"
         id="path367"
         cx="149.82068"
         cy="147.73776"
         rx="149.46884"
         ry="150.70116" />
      <g
         id="g1514"
         transform="matrix(0.85277386,0,0,0.71141799,44.644905,41.859548)"
         style="fill:#ffffff">
        <path
           style="fill:#ffffff;stroke-width:0.264583"
           id="path1508"
           d="m 27.405158,38.93722 c 4.794985,6.286037 8.305747,13.452144 11.791886,20.510989 3.859064,7.813947 5.612955,11.618915 9.402551,19.636348 5.153919,11.702198 3.996452,8.822132 8.699698,20.478237 3.320553,8.229356 4.981006,12.168996 7.693628,20.551376 2.50771,7.74918 2.814249,9.60977 4.647867,17.21499 1.605539,7.98465 3.17423,15.9917 4.441132,24.03939 0.0082,0.0521 1.397658,9.93051 1.414253,10.04848 1.202174,9.04302 0.192058,0.94817 1.103455,9.711 0.64084,6.16152 0.668261,4.72151 1.026594,11.045 0.220009,3.88253 0.270124,7.57176 0.357788,11.4584 -0.03187,10.03638 -0.03113,20.07235 -0.3645,30.10417 -0.158295,5.24768 -0.408816,10.54111 -2.1927,15.52222 -1.042636,1.77127 -1.411298,3.76183 -1.866038,5.74204 0,0 36.986648,20.24698 36.986648,20.24698 v 0 c 0.2329,-0.58412 0.44142,-1.17859 0.6987,-1.75242 0.59055,-1.31715 1.46625,-2.50433 1.65905,-3.97931 0.96862,-5.81112 0.5692,-11.75907 0.35416,-17.61549 -0.30819,-10.2306 -0.27422,-20.46705 -0.61553,-30.69663 -0.17034,-9.44092 -0.0271,-2.09216 -0.2397,-11.51784 -0.0192,-0.85261 -0.19894,-9.90085 -0.27182,-10.92134 -0.0622,-0.87128 -1.11175,-9.18651 -1.20921,-9.96753 -0.49425,-2.99939 -1.20295,-7.41262 -1.76818,-10.3759 -1.65206,-8.66114 -3.97199,-17.17979 -6.74072,-25.54893 -3.249727,-9.57197 -6.590375,-19.10901 -10.118681,-28.58277 -1.297926,-3.48503 -2.582656,-6.97593 -3.968268,-10.42703 -1.379479,-3.43582 -2.882159,-6.82089 -4.325633,-10.23031 -1.454851,-3.4363 -2.912893,-6.871238 -4.36934,-10.306858 -4.757012,-12.022349 -9.85734,-24.057541 -12.683408,-36.71631 0,0 -39.543682,-17.670952 -39.543682,-17.670952 z" />
        <path
           style="fill:#ffffff;stroke-width:0.264583"
           id="path1510"
           d="m 86.07898,57.50404 c 0.383778,-0.308644 0.728226,-0.673894 1.151337,-0.925933 3.801115,-2.264251 8.353501,-3.523697 12.552592,-4.720778 8.254841,-2.353297 7.066291,-1.939769 15.926581,-3.868417 9.09699,-1.772843 18.33012,-2.663129 27.56994,-3.241233 5.62115,-0.351698 9.67095,-0.590759 15.2506,-0.254932 2.29887,0.138364 4.58162,0.473845 6.87243,0.710769 6.5672,0.985044 12.85349,3.096784 18.93423,5.710031 1.73111,0.743958 3.44247,1.536695 5.12357,2.387611 1.47128,0.744704 5.75989,3.21401 4.32787,2.396365 -10.14278,-5.791242 -20.30698,-11.5449 -30.46046,-17.317352 5.07498,3.379095 9.45153,7.710657 12.7529,12.852014 2.36456,3.68245 2.73767,4.965956 4.47103,8.940226 1.6073,4.405257 2.84684,8.946165 3.33769,13.622191 0.62037,5.909869 0.27749,11.808802 -0.0864,17.716786 -0.75334,7.237314 -1.76311,14.513482 -3.80743,21.515802 -0.88064,3.01642 -1.21562,3.66641 -2.3383,6.45571 -1.15623,2.59974 -2.727,4.9034 -5.25922,6.31287 -1.59332,0.88687 -2.91388,1.22652 -4.66652,1.8163 -8.6192,2.62779 -17.50921,4.22954 -26.35006,5.90704 -10.63091,1.46934 -21.69364,2.71666 -32.43853,1.99203 -1.90384,-0.12839 -3.79234,-0.42716 -5.68851,-0.64073 -7.433525,-1.06453 -14.809947,-3.13262 -21.410121,-6.79265 -0.86665,-0.48059 -1.682141,-1.04814 -2.523214,-1.57221 54.563275,38.78127 43.269745,25.06749 31.359195,17.80651 0,0 -39.647403,-17.18266 -39.647403,-17.18266 v 0 c 0.172746,0.37403 0.294682,0.77602 0.518234,1.1221 8.494591,13.15002 53.504119,-3.20952 40.146689,24.28271 7.27053,3.13659 14.97671,4.99645 22.89812,5.46235 1.85893,0.064 3.71675,0.19144 5.57677,0.19194 4.07706,0.001 8.22133,-0.32872 12.28192,-0.62043 6.83716,-0.49118 13.67143,-1.04342 20.48167,-1.83298 2.10503,-0.24069 4.21405,-0.44878 6.31511,-0.72206 7.5823,-0.98621 15.09124,-2.46631 22.51495,-4.28772 2.63045,-0.84836 3.84643,-1.03338 6.12988,-2.50842 3.31911,-2.14405 4.51625,-5.36231 5.67854,-8.96146 0.31143,-1.14962 0.68841,-2.28345 0.93429,-3.44884 0.27889,-1.32185 0.44114,-2.66579 0.6378,-4.00235 1.10387,-7.50206 1.6164,-15.07264 2.64149,-22.58532 0.71487,-5.92134 1.49384,-11.863299 1.47366,-17.842231 -0.006,-1.730373 -0.005,-3.470992 -0.23725,-5.185723 -0.40491,-2.989961 -1.72724,-6.651712 -2.64104,-9.489476 -1.36656,-3.519231 -2.30309,-6.21855 -4.05287,-9.575287 -2.93554,-5.631497 -6.70105,-10.299848 -11.68748,-14.23715 -13.91236,-8.095339 -27.08546,-17.748644 -41.96148,-23.896187 -7.5667,-3.126952 -15.52755,-5.336043 -23.6749,-6.231095 -2.3314,-0.118128 -4.65983,-0.362544 -6.9942,-0.354386 -4.75578,0.01662 -9.62986,0.698478 -14.3281,1.304451 -9.11763,1.175985 -18.208698,2.551535 -27.323517,3.748489 -12.213857,1.811314 -24.506576,3.376652 -36.546059,6.160924 0,0 36.264016,23.882791 36.264016,23.882791 z" />
      </g>
    </g>
  </g>
</svg>
