<?xml version="1.0" encoding="UTF-8" standalone="no"?>
<!-- Created with Inkscape (http://www.inkscape.org/) -->

<svg
   width="300mm"
   height="300mm"
   viewBox="0 0 300 300"
   version="1.1"
   id="svg8"
   inkscape:version="1.2.2 (b0a8486541, 2022-12-01)"
   sodipodi:docname="project.svg"
   xmlns:inkscape="http://www.inkscape.org/namespaces/inkscape"
   xmlns:sodipodi="http://sodipodi.sourceforge.net/DTD/sodipodi-0.dtd"
   xmlns="http://www.w3.org/2000/svg"
   xmlns:svg="http://www.w3.org/2000/svg"
   xmlns:rdf="http://www.w3.org/1999/02/22-rdf-syntax-ns#"
   xmlns:cc="http://creativecommons.org/ns#"
   xmlns:dc="http://purl.org/dc/elements/1.1/">
  <defs
     id="defs2" />
  <sodipodi:namedview
     id="base"
     pagecolor="#ffffff"
     bordercolor="#666666"
     borderopacity="1.0"
     inkscape:pageopacity="0.0"
     inkscape:pageshadow="2"
     inkscape:zoom="0.48892506"
     inkscape:cx="566.54899"
     inkscape:cy="483.71421"
     inkscape:document-units="mm"
     inkscape:current-layer="layer1"
     showgrid="false"
     inkscape:window-width="1920"
     inkscape:window-height="1043"
     inkscape:window-x="0"
     inkscape:window-y="0"
     inkscape:window-maximized="1"
     inkscape:showpageshadow="2"
     inkscape:pagecheckerboard="0"
     inkscape:deskcolor="#d1d1d1" />
  <metadata
     id="metadata5">
    <rdf:RDF>
      <cc:Work
         rdf:about="">
        <dc:format>image/svg+xml</dc:format>
        <dc:type
           rdf:resource="http://purl.org/dc/dcmitype/StillImage" />
        <dc:title />
      </cc:Work>
    </rdf:RDF>
  </metadata>
  <g
     inkscape:label="Layer 1"
     inkscape:groupmode="layer"
     id="layer1"
     transform="translate(0,3)">
    <g
       id="g4978"
       transform="translate(18.903367,-0.12078839)">
      <path
         style="fill:#000000;stroke-width:0.264583"
         id="path4790"
         d="m 14.72352,17.604231 c 0.192101,1.161221 0.424448,2.316496 0.576303,3.483662 0.453853,3.488344 0.862351,8.69526 1.093538,12.038564 0.6674,9.651579 1.002166,19.325293 1.488003,28.987027 1.581632,18.375339 1.241899,36.814093 0.534101,55.217096 -0.583053,9.07034 -0.07823,18.14516 -0.04134,27.22069 0.275163,8.57982 -0.09724,17.16058 -0.2301,25.73959 -0.08053,3.50619 0.329398,6.99042 1.833019,10.19509 0.788609,1.68076 1.473262,2.56439 2.501746,4.07705 0.415221,0.54354 0.81557,1.09877 1.245663,1.63062 1.569814,1.94121 1.513256,1.63259 2.984317,3.67709 1.600293,2.22413 2.755967,4.58634 3.916215,7.05928 2.43582,5.87769 3.736149,12.11667 4.884226,18.34707 0.803117,3.74601 0.727044,7.57887 0.793743,11.38533 -0.0024,0.49126 -0.005,0.98252 -0.0075,1.47378 0,0 38.245132,19.45572 38.245132,19.45572 v 0 c -0.009,-0.51361 -0.01797,-1.02722 -0.02697,-1.54083 -0.06654,-4.1431 -0.565933,-8.25487 -1.064459,-12.36649 -0.181824,-0.86582 -0.334504,-1.73827 -0.545473,-2.59745 -0.182263,-0.74227 -1.564028,-5.54369 -1.712216,-6.08658 -1.217801,-4.46139 -0.667092,-2.63622 -1.811944,-7.1253 -0.287565,-1.12757 -0.595563,-2.24983 -0.893347,-3.37474 -0.555932,-1.83102 -1.07419,-3.76735 -1.86096,-5.52393 -1.26978,-2.83498 -3.086856,-5.46716 -5.202764,-7.72696 -1.461161,-1.61886 -3.027923,-3.25308 -4.105764,-5.16959 -1.220946,-2.17097 -1.664391,-4.60136 -1.947241,-7.04525 -0.946094,-8.65216 -1.082924,-17.37047 -0.832387,-26.06645 7.94e-4,-4.60831 0.14899,-9.22082 0.123343,-13.82801 -0.01886,-3.38851 -0.160641,-5.29561 -0.431085,-8.70363 -0.138554,-1.74598 -0.303173,-3.48979 -0.454758,-5.23469 -1.858735,-18.83346 -3.909065,-37.700465 -3.492145,-56.6594 0.04242,-3.463332 0.02945,-6.927784 0.127259,-10.389992 0.132985,-4.707363 0.583705,-12.365159 0.944329,-17.212791 0.217697,-2.926387 0.62936,-7.829505 1.093537,-10.924191 0.146018,-0.973497 0.384204,-1.930921 0.576304,-2.89638 0,0 -38.300352,-19.515005 -38.300352,-19.515005 z" />
      <path
         style="fill:#000000;stroke-width:0.264583"
         id="path4792"
         d="m 53.072998,35.731615 c 0.868132,-0.12365 1.72879,-0.323442 2.604394,-0.370953 2.771457,-0.150387 8.133109,0.12179 10.580552,0.274989 8.0342,0.502904 16.016309,1.465059 24.007847,2.40379 16.319999,2.210893 32.791649,2.806094 49.240519,3.019353 12.66439,-0.110931 25.29758,0.815827 37.91016,1.836526 1.7038,0.261589 3.44927,0.06858 5.15621,0.29191 0.64475,0.08436 1.26954,0.282091 1.90362,0.426209 1.97159,0.448117 3.92931,0.938398 5.90644,1.362334 0.62986,0.134684 1.25553,0.290722 1.88958,0.404046 0.53341,0.09534 3.15025,0.431305 3.67674,0.51707 2.35653,0.383881 4.70443,0.838866 7.05953,1.234625 2.16917,0.306226 4.28156,0.96344 6.49176,0.919911 2.49266,-0.04909 5.04123,-0.590637 7.49595,-0.960348 2.9031,-0.282098 5.79672,-0.639508 8.6868,-1.030097 0,0 -34.47981,-24.266012 -34.47981,-24.266012 v 0 c -2.72953,0.465394 -5.46786,0.862157 -8.23536,1.029599 -2.27477,0.07053 -3.51356,0.168267 -5.72181,0.03187 -2.63643,-0.16284 -5.24219,-0.735418 -7.85586,-1.076933 -4.29152,-0.823821 -8.57312,-1.696241 -12.86745,-2.506014 -2.04632,-0.432068 -4.11816,-0.929178 -6.21264,-1.063298 -2.1819,-0.139719 -4.37459,0.161217 -6.55621,0.113327 -11.58837,0.558314 -23.1907,0.855481 -34.79118,0.433725 C 104.81697,18.616043 96.373742,18.344917 92.156001,18.137982 81.376739,17.609119 70.625726,16.622291 59.901714,15.425793 46.027853,13.762144 32.175489,11.907545 18.278466,10.451909 c 0,0 34.794532,25.279706 34.794532,25.279706 z" />
      <path
         style="fill:#000000;stroke-width:0.264583"
         id="path4794"
         d="m 204.99243,31.157203 c -0.89101,7.483922 -1.52272,14.99753 -2.38236,22.485489 -0.82098,7.151209 -1.75287,14.289249 -2.62516,21.434378 -0.48446,3.723438 -0.9906,7.444118 -1.45339,11.170311 -1.00861,8.120978 -1.64455,13.521539 -2.27773,21.667289 -0.72672,9.34897 -1.06389,18.70948 -1.27863,28.08098 -0.29489,10.28802 0.0599,20.57315 0.84762,30.83028 0.49498,7.8526 0.25359,15.7226 0.094,23.58138 0.16337,5.22789 -0.32733,10.43963 -0.37573,15.66193 0.0635,4.00144 0.0366,7.99587 -0.16857,11.99247 -0.0307,0.42486 -0.0614,0.84973 -0.0921,1.2746 0,0 38.35217,19.54225 38.35217,19.54225 v 0 c -0.0305,-0.45596 -0.0611,-0.91192 -0.0916,-1.36788 -0.19573,-4.04989 -0.23146,-8.09736 -0.15386,-12.1516 -0.0351,-5.35688 -0.4978,-10.70447 -0.36617,-16.06587 -0.22542,-8.05587 -0.61332,-16.10621 -0.80897,-24.16302 -0.0403,-1.49983 -0.0324,-3.00172 -0.12084,-4.49948 -0.54491,-9.22802 -2.71589,-18.27857 -3.29775,-27.50409 -0.55994,-8.14237 -0.81538,-9.7117 -0.7503,-18.14133 0.11142,-14.43444 1.72888,-28.82478 3.72852,-43.102625 1.22779,-6.694721 2.42565,-13.872004 4.08034,-20.497086 0.68401,-2.738662 1.49279,-5.446413 2.35424,-8.134543 0.90717,-2.830803 2.25889,-6.533499 3.73268,-9.285795 0.30214,-0.564237 0.72384,-1.055778 1.08575,-1.583669 0,0 -38.03217,-21.224369 -38.03217,-21.224369 z" />
      <path
         style="fill:#000000;stroke-width:0.264583"
         id="path4796"
         d="m 70.740809,248.89168 c 0.618175,-0.0995 1.233294,-0.22029 1.854523,-0.29847 5.374266,-0.67633 10.813121,-0.94036 16.219394,-1.17659 8.502042,-0.37151 10.037784,-0.34428 18.815924,-0.51266 12.24416,-0.0745 24.4857,0.24718 36.7259,0.50876 2.42629,0.0519 4.85194,0.1438 7.27871,0.16178 2.41211,0.0179 4.82422,-0.0361 7.23633,-0.0542 9.84832,-0.11615 19.71293,-0.0718 29.54535,0.56578 4.72812,0.3066 6.54257,0.53458 11.08455,1.00536 3.53787,0.56562 7.12429,0.73229 10.67809,1.143 2.8497,0.32934 5.69848,0.82196 8.53327,1.26231 4.90844,0.82895 9.87516,1.18396 14.75504,2.17987 1.81708,0.2669 3.57504,0.91579 5.3897,1.18973 1.15773,0.17477 2.32751,0.0284 3.48159,-0.0795 1.61766,-0.0718 0.79518,0.0109 2.46611,-0.26079 0,0 -35.06459,-25.08264 -35.06459,-25.08264 v 0 c -1.5477,-0.0361 -0.77784,-0.0205 -2.30958,-0.047 -2.58441,-0.27273 -5.13146,-0.84916 -7.71973,-1.11449 -4.94299,-0.64833 -9.87103,-1.40114 -14.81791,-2.01704 -6.00854,-0.58195 -12.02671,-1.31463 -18.07439,-1.20707 -13.08847,-0.0697 -26.17676,-0.15512 -39.26475,-0.29082 -2.46184,-0.0181 -4.92369,-0.0728 -7.38553,-0.0542 -2.27836,0.0172 -4.55552,0.11006 -6.83336,0.16178 -11.7732,0.26733 -23.54788,0.59103 -35.325399,0.50876 -14.129544,-0.25745 -28.297367,-0.49692 -42.361572,-1.98772 0,0 35.09233,25.49607 35.09233,25.49607 z" />
      <path
         style="fill:#000000;stroke-width:0.264583"
         id="path4798"
         d="m 86.688095,100.74619 c 4.447898,-0.46092 8.937072,-0.45313 13.405275,-0.47919 4.83776,-0.0967 9.66899,0.0998 14.49973,0.32212 1.80821,0.12523 3.61996,0.12655 5.43115,0.16563 1.7326,-0.053 3.46604,-0.0402 5.19886,-0.0677 1.25103,0.0115 2.50133,0.0263 3.75244,0.009 0.34043,-0.005 0.68319,-0.0617 1.02116,-0.0206 0.35642,0.0433 0.69492,0.18089 1.04238,0.27134 1.31908,0.27724 2.66528,0.37914 4.00401,0.51041 0,0 -34.48606,-25.675858 -34.48606,-25.675858 v 0 c -1.373007,-0.188079 -2.740591,-0.421066 -4.122679,-0.534532 -2.075511,0.01815 -4.150688,-0.04399 -6.226196,5.29e-4 -1.794989,-0.02732 -3.590557,-0.01582 -5.38535,-0.06775 -1.65935,0.03808 -3.319545,0.03374 -4.975209,0.165632 -4.534686,0.238964 -9.069927,0.422029 -13.612977,0.32213 -4.909346,-0.02819 -9.830366,-0.05822 -14.72438,-0.479192 0,0 35.177846,25.558201 35.177846,25.558201 z" />
      <path
         style="fill:#000000;stroke-width:0.264583"
         id="path4800"
         d="m 168.02975,109.39762 c 5.81291,-0.45144 11.64492,0.16926 17.43567,0.67135 3.02691,0.18995 6.04381,0.52086 9.0738,0.65894 1.57344,-0.0183 3.14407,-0.0956 4.71882,-0.0916 0,0 -34.96354,-25.396884 -34.96354,-25.396884 v 0 c -1.6191,0.0076 -3.23416,-0.05481 -4.8515,-0.112993 -2.63971,0.03095 -5.28005,0.105704 -7.91928,-0.0088 -6.14795,-0.135488 -12.30117,-0.414433 -18.41551,-1.092039 0,0 34.92154,25.371986 34.92154,25.371986 z" />
      <path
         style="fill:#000000;stroke-width:0.264583"
         id="path4802"
         d="m 85.123733,139.64949 c 3.517189,0.15864 6.920318,1.18828 10.353485,1.87784 2.973763,0.59728 3.418684,0.60497 6.422872,1.00178 5.7428,0.87498 11.44898,2.04684 17.21764,2.7452 2.74121,0.39397 5.55042,0.0809 8.2795,0.51825 0.32565,0.0858 0.64671,0.19149 0.97695,0.2575 2.09362,0.41848 0.17405,-0.11613 2.40972,0.39675 1.66306,0.38152 3.30545,0.87061 4.96809,1.26108 0,0 -33.90215,-25.88747 -33.90215,-25.88747 v 0 c -3.045156,-0.76418 -6.128605,-1.58234 -9.282261,-1.67372 -2.553322,0.0586 -5.107646,-0.0175 -7.647768,-0.30295 -5.485011,-0.55067 -10.948371,-1.23939 -16.358801,-2.32144 -6.152189,-1.07985 -12.225507,-2.52523 -18.346724,-3.75951 0,0 34.909447,25.88669 34.909447,25.88669 z" />
      <path
         style="fill:#000000;stroke-width:0.264583"
         id="path4804"
         d="m 155.86007,145.30193 c 6.32772,-0.95939 12.77272,-0.66782 19.14822,-0.49983 2.48447,0.12646 4.98384,0.0879 7.46659,0.25535 1.67628,0.11307 3.33829,0.32047 5.01874,0.40803 2.30219,0.29364 4.62029,0.40299 6.93297,0.57555 0,0 -34.43052,-25.38306 -34.43052,-25.38306 v 0 c -2.33455,-0.15051 -4.65822,-0.42203 -6.99513,-0.54078 -3.91233,-0.22225 -7.80842,0.0445 -11.72141,0.17953 -6.8416,0.19438 -13.71543,0.34339 -20.52411,-0.49982 0,0 35.10465,25.50503 35.10465,25.50503 z" />
      <path
         style="fill:#000000;stroke-width:0.264583"
         id="path4806"
         d="m 97.241126,185.86387 c 0.849508,-0.12098 1.69487,-0.27587 2.548522,-0.36293 3.317962,-0.33839 5.724112,-0.40175 9.121332,-0.46476 5.18878,-0.0962 10.37161,-0.0168 15.55847,0.11528 4.15837,0.0301 8.3034,0.49579 12.46053,0.54593 1.50979,0.0182 3.01962,-0.0334 4.52943,-0.0502 2.99042,0.0255 1.53034,-5.3e-4 4.38031,0.0746 0,0 -34.42053,-25.00798 -34.42053,-25.00798 v 0 c -2.68048,0.0763 -1.28886,0.0494 -4.17499,0.0746 -1.55584,-0.0168 -3.11173,-0.0696 -4.66754,-0.0502 -3.657025,0.0456 -7.298996,0.52635 -10.957718,0.54593 -9.727197,0.26623 -19.504234,0.36062 -29.189426,-0.71242 0,0 34.81161,25.29212 34.81161,25.29212 z" />
      <path
         style="fill:#000000;stroke-width:0.264583"
         id="path4808"
         d="m 171.09444,194.56622 c 4.20373,-0.41628 8.44506,-0.29122 12.66455,-0.26327 3.81084,0.0144 7.63691,0.21437 11.44341,-0.002 2.02943,-0.10204 4.05859,-0.1883 6.08647,-0.31907 0,0 -34.6389,-24.98718 -34.6389,-24.98718 v 0 c -2.0568,0.0159 -4.09881,0.13488 -6.14999,0.28003 -3.67643,0.0434 -7.35336,0.0349 -11.02894,0.11651 -4.46249,0.0301 -8.93898,0.12436 -13.38924,-0.26326 0,0 35.01264,25.43817 35.01264,25.43817 z" />
    </g>
  </g>
</svg>
