<?xml version="1.0" encoding="UTF-8" standalone="no"?>
<!-- Created with Inkscape (http://www.inkscape.org/) -->

<svg
   width="300mm"
   height="300mm"
   viewBox="0 0 300 300"
   version="1.1"
   id="svg8"
   inkscape:version="1.2.2 (b0a8486541, 2022-12-01)"
   sodipodi:docname="qGrad.svg"
   xmlns:inkscape="http://www.inkscape.org/namespaces/inkscape"
   xmlns:sodipodi="http://sodipodi.sourceforge.net/DTD/sodipodi-0.dtd"
   xmlns:xlink="http://www.w3.org/1999/xlink"
   xmlns="http://www.w3.org/2000/svg"
   xmlns:svg="http://www.w3.org/2000/svg"
   xmlns:rdf="http://www.w3.org/1999/02/22-rdf-syntax-ns#"
   xmlns:cc="http://creativecommons.org/ns#"
   xmlns:dc="http://purl.org/dc/elements/1.1/">
  <defs
     id="defs2">
    <linearGradient
       inkscape:collect="always"
       id="linearGradient1054">
      <stop
         style="stop-color:#f79b10;stop-opacity:1;"
         offset="0.13759165"
         id="stop1050" />
      <stop
         style="stop-color:#f79b10;stop-opacity:0;"
         offset="1"
         id="stop1052" />
    </linearGradient>
    <radialGradient
       inkscape:collect="always"
       xlink:href="#linearGradient1054"
       id="radialGradient1056"
       cx="150.04416"
       cy="160.72055"
       fx="150.04416"
       fy="160.72055"
       r="145.69235"
       gradientTransform="matrix(1.0274371,0,0,1.0322512,-3.5811096,-19.223026)"
       gradientUnits="userSpaceOnUse" />
  </defs>
  <sodipodi:namedview
     id="base"
     pagecolor="#ffffff"
     bordercolor="#666666"
     borderopacity="1.0"
     inkscape:pageopacity="0.0"
     inkscape:pageshadow="2"
     inkscape:zoom="0.48892506"
     inkscape:cx="570.6396"
     inkscape:cy="487.80482"
     inkscape:document-units="mm"
     inkscape:current-layer="layer1"
     showgrid="false"
     inkscape:window-width="1920"
     inkscape:window-height="1043"
     inkscape:window-x="0"
     inkscape:window-y="0"
     inkscape:window-maximized="1"
     inkscape:showpageshadow="2"
     inkscape:pagecheckerboard="0"
     inkscape:deskcolor="#d1d1d1" />
  <metadata
     id="metadata5">
    <rdf:RDF>
      <cc:Work
         rdf:about="">
        <dc:format>image/svg+xml</dc:format>
        <dc:type
           rdf:resource="http://purl.org/dc/dcmitype/StillImage" />
      </cc:Work>
    </rdf:RDF>
  </metadata>
  <g
     inkscape:label="Layer 1"
     inkscape:groupmode="layer"
     id="layer1"
     transform="translate(0,3)">
    <g
       id="g1062">
      <ellipse
         style="fill:url(#radialGradient1056);fill-opacity:1;stroke-width:0.273246"
         id="path367"
         cx="150.57982"
         cy="146.68097"
         rx="149.68973"
         ry="150.39111" />
      <g
         id="g1546"
         transform="matrix(0.66647378,0,0,0.72407947,53.92608,29.950702)"
         style="fill:#ffffff">
        <path
           style="fill:#ffffff;stroke-width:0.264583"
           id="path1540"
           d="m 187.41844,39.736941 c -1.5834,0.229815 -3.13435,0.662835 -4.72171,0.863669 -3.24811,0.410956 -8.73199,0.69306 -11.83001,0.83947 -17.3002,0.817594 3.00805,-0.298307 -14.17693,0.681443 -8.29156,0.55749 -16.60459,1.801621 -24.53569,4.357687 -3.859,1.243692 -6.80394,2.579179 -10.52727,4.148772 -8.38696,4.002958 -16.52503,8.657897 -23.856519,14.399678 -1.544336,1.209474 -3.012231,2.513497 -4.518348,3.770244 C 85.417492,75.340788 77.770137,82.28919 71.307419,90.227743 69.881104,91.979775 68.57984,93.83 67.216054,95.63113 c -1.365986,1.9684 -2.820255,3.878377 -4.097952,5.9052 -1.454848,2.30783 -2.707256,4.73743 -4.092649,7.08762 -4.285244,7.26949 -8.714446,14.45404 -12.894857,21.78588 -1.308008,2.29405 -2.564805,4.61692 -3.847206,6.92539 -5.455171,10.51621 -10.49152,21.30947 -14.118651,32.60856 -0.631663,1.96774 -1.161888,3.9666 -1.742834,5.9499 -0.461853,1.95285 -1.00538,3.88816 -1.385558,5.85854 -0.525181,2.72189 -1.343563,9.27653 -1.692712,12.0745 -0.601833,4.82292 -1.130952,9.63254 -1.499374,14.47832 -0.02052,1.24952 -0.184258,2.50491 -0.06157,3.74856 1.090231,11.05175 10.878223,17.4843 19.01057,23.47731 20.662849,13.19203 41.900956,25.71627 64.577319,35.11937 7.74616,3.21207 9.52048,3.67258 17.31654,6.31127 7.23897,2.3087 14.67201,3.99023 22.23181,4.80232 7.39481,0.79438 14.86406,0.83179 22.29019,0.9231 13.17912,-0.0411 26.27848,-2.48867 38.71355,-6.82638 2.23678,-0.78026 4.4167,-1.71482 6.62505,-2.57225 8.60132,-3.51854 16.71253,-8.18719 23.86623,-14.13968 1.21805,-1.01353 2.35298,-2.12299 3.52947,-3.18448 6.1353,-5.94288 11.49642,-12.67468 15.88434,-20.00635 0.91569,-1.53002 1.74248,-3.1115 2.61373,-4.66726 3.35556,-6.43464 6.59436,-13.09913 7.99667,-20.2832 1.13748,-5.82718 1.04648,-9.41227 1.3208,-15.47948 0.18122,-2.85992 0.50859,-5.71433 0.54364,-8.57977 0.0409,-3.34481 -0.1765,-6.68804 -0.31596,-10.03019 -0.17973,-4.30834 -0.81404,-16.01085 -1.20259,-20.40779 -0.73059,-8.268 -1.21787,-10.56359 -2.47238,-18.68574 -1.75831,-10.43917 -4.55726,-20.68594 -8.32458,-30.57737 -0.99164,-2.6036 -3.59959,-8.782932 -4.75412,-11.541409 -2.33599,-4.698418 -2.45615,-5.527021 -5.86441,-9.80568 -3.96483,-4.977376 -9.37086,-9.835846 -14.84831,-13.089493 -12.62718,-7.500628 -25.42885,-14.703542 -38.14327,-22.055312 -5.97029,-2.801946 -12.32171,-6.266365 -19.05742,-6.742967 -0.61364,-0.04342 -1.23012,0.02381 -1.84518,0.03571 -0.48116,0.117859 -0.96231,0.235718 -1.44346,0.353576 0,0 35.18327,24.766609 35.18327,24.766609 v 0 c 0.23687,0.0096 0.47376,0.01929 0.71064,0.02892 5.83255,0.519674 11.20502,2.971993 16.32851,5.687531 -9.07383,-5.312309 -18.11881,-10.674231 -27.2215,-15.936931 -1.88528,-1.089969 3.78249,2.170682 5.56769,3.417838 1.72923,1.208058 3.37959,2.533374 4.95648,3.934462 4.30381,3.823981 7.79721,8.333436 10.48703,13.418711 0.9894,1.830078 2.03298,3.631888 2.9682,5.490234 5.89843,11.720505 10.3035,24.163911 13.21272,36.953471 1.38855,7.23093 2.30117,11.32694 3.19541,18.68084 0.40187,3.30487 0.74731,6.62008 0.92932,9.94431 0.50736,9.26628 -0.16486,18.50032 -1.1028,27.71436 -1.16214,6.22984 -1.34485,8.03891 -2.96567,13.86664 -1.86638,6.71066 -4.73239,13.07669 -7.87247,19.27603 -2.57696,4.34149 -5.11161,8.7381 -8.23134,12.72471 -3.01227,3.84927 -6.52103,7.26975 -10.09147,10.59113 -2.01884,1.79688 -4.74411,4.27367 -6.86304,5.95493 -5.59824,4.44191 -11.70103,8.22006 -18.13726,11.32031 -5.1606,2.20056 -7.37121,3.32167 -12.8495,4.90423 -10.10102,2.91796 -20.61057,3.83072 -31.09048,3.60637 -2.52132,-0.0762 -5.04477,-0.10002 -7.56397,-0.22864 -12.03308,-0.61437 -24.02961,-2.3606 -35.579698,-5.85184 -2.610382,-0.86844 -5.245139,-1.66679 -7.831142,-2.60534 -6.355192,-2.30652 -11.174968,-4.40019 -17.319668,-7.31475 -3.004388,-1.42505 -11.722047,-6.25065 -8.933375,-4.43946 4.898911,3.18176 35.977295,21.1954 15.158034,8.79433 -5.859256,-4.17123 -12.776954,-8.60119 -15.879082,-15.43386 -1.217988,-2.68271 -1.195959,-4.19817 -1.583859,-7.09813 -0.08315,-1.44402 -0.216453,-2.88603 -0.249439,-4.33207 -0.214469,-9.40189 0.841706,-18.78578 2.892989,-27.95531 1.293735,-5.14832 1.656357,-6.87847 3.240537,-11.9984 2.836378,-9.16692 6.561127,-18.01561 10.865678,-26.58768 1.169035,-2.3325 2.294765,-4.6872 3.507107,-6.99748 2.441589,-4.65277 5.482638,-10.01379 8.264068,-14.46224 3.561707,-5.69636 5.379264,-8.20599 9.379786,-13.52389 1.409517,-1.87368 2.86884,-3.70936 4.30326,-5.56404 4.133934,-4.74769 8.236054,-9.53103 12.738454,-13.94001 2.94638,-2.885237 5.83864,-5.408999 8.99331,-8.059968 1.49115,-1.253051 3.01371,-2.468237 4.52056,-3.702357 5.88959,-4.373663 11.82116,-8.729824 18.2546,-12.288789 1.61866,-0.895438 3.27738,-1.717464 4.93874,-2.53096 1.61668,-0.791622 3.26247,-1.52238 4.8937,-2.283571 4.51161,-1.882685 5.40638,-2.377141 10.10694,-3.846089 7.51624,-2.348857 15.31267,-3.678084 23.14982,-4.338336 2.25675,-0.147563 4.51031,-0.357142 6.77026,-0.442687 9.43315,-0.357071 18.89092,0.132839 28.23576,1.451041 0,0 -34.99959,-25.428689 -34.99959,-25.428689 z" />
        <path
           style="fill:#ffffff;stroke-width:0.264583"
           id="path1542"
           d="m 149.13445,206.11405 c 0.72736,0.81348 1.40958,1.66968 2.18208,2.44041 3.72178,3.71327 6.50035,5.90137 10.77992,9.33639 5.67122,4.55204 10.29139,8.10259 16.19245,12.39606 2.9052,2.11375 5.85937,4.15936 8.78906,6.23904 11.92234,8.31058 24.115,16.22461 36.37329,24.02812 0,0 37.34506,14.36974 37.34506,14.36974 v 0 c -14.26271,-7.8794 -28.09887,-16.53896 -41.5666,-25.7061 -5.59357,-3.98402 -10.74263,-7.52675 -16.09619,-11.81398 -2.17759,-1.74386 -4.28412,-3.5761 -6.36796,-5.43097 -2.88504,-2.56804 -4.68707,-4.25787 -7.01775,-7.07095 -0.36919,-0.4456 -0.66965,-0.94393 -1.00448,-1.41589 0,0 -39.60888,-17.37187 -39.60888,-17.37187 z" />
      </g>
    </g>
  </g>
</svg>
