<?xml version="1.0" encoding="UTF-8" standalone="no"?>
<!-- Created with Inkscape (http://www.inkscape.org/) -->

<svg
   width="300mm"
   height="300mm"
   viewBox="0 0 300 300"
   version="1.1"
   id="svg8"
   inkscape:version="1.2.2 (b0a8486541, 2022-12-01)"
   sodipodi:docname="rGrad.svg"
   xmlns:inkscape="http://www.inkscape.org/namespaces/inkscape"
   xmlns:sodipodi="http://sodipodi.sourceforge.net/DTD/sodipodi-0.dtd"
   xmlns:xlink="http://www.w3.org/1999/xlink"
   xmlns="http://www.w3.org/2000/svg"
   xmlns:svg="http://www.w3.org/2000/svg"
   xmlns:rdf="http://www.w3.org/1999/02/22-rdf-syntax-ns#"
   xmlns:cc="http://creativecommons.org/ns#"
   xmlns:dc="http://purl.org/dc/elements/1.1/">
  <defs
     id="defs2">
    <linearGradient
       inkscape:collect="always"
       id="linearGradient1056">
      <stop
         style="stop-color:#ac57a0;stop-opacity:1;"
         offset="0.16635208"
         id="stop1052" />
      <stop
         style="stop-color:#ac57a0;stop-opacity:0;"
         offset="1"
         id="stop1054" />
    </linearGradient>
    <radialGradient
       inkscape:collect="always"
       xlink:href="#linearGradient1056"
       id="radialGradient1058"
       cx="141.78294"
       cy="148.51768"
       fx="141.78294"
       fy="148.51768"
       r="140.47491"
       gradientTransform="matrix(1.0715048,0,0,1.0664943,-0.85274314,-10.065134)"
       gradientUnits="userSpaceOnUse" />
  </defs>
  <sodipodi:namedview
     id="base"
     pagecolor="#ffffff"
     bordercolor="#666666"
     borderopacity="1.0"
     inkscape:pageopacity="0.0"
     inkscape:pageshadow="2"
     inkscape:zoom="0.48892506"
     inkscape:cx="570.6396"
     inkscape:cy="487.80482"
     inkscape:document-units="mm"
     inkscape:current-layer="layer1"
     showgrid="false"
     inkscape:window-width="1920"
     inkscape:window-height="1043"
     inkscape:window-x="0"
     inkscape:window-y="0"
     inkscape:window-maximized="1"
     inkscape:showpageshadow="2"
     inkscape:pagecheckerboard="0"
     inkscape:deskcolor="#d1d1d1" />
  <metadata
     id="metadata5">
    <rdf:RDF>
      <cc:Work
         rdf:about="">
        <dc:format>image/svg+xml</dc:format>
        <dc:type
           rdf:resource="http://purl.org/dc/dcmitype/StillImage" />
      </cc:Work>
    </rdf:RDF>
  </metadata>
  <g
     inkscape:label="Layer 1"
     inkscape:groupmode="layer"
     id="layer1"
     transform="translate(0,3)">
    <g
       id="g1065">
      <ellipse
         style="fill:url(#radialGradient1058);fill-opacity:1;stroke-width:0.286479"
         id="path369"
         cx="151.06836"
         cy="148.32814"
         rx="150.51955"
         ry="149.81569" />
      <g
         id="g1581"
         transform="matrix(0.7797719,0,0,0.70613971,50.350258,39.863629)"
         style="fill:#ffffff">
        <path
           style="fill:#ffffff;stroke-width:0.264583"
           id="path1572"
           d="m 24.799613,48.996609 c 0.228708,0.722307 0.445639,1.448451 0.686122,2.166922 1.457077,4.353189 2.19042,6.085094 3.529283,10.8347 1.496001,5.307047 2.751428,10.811039 3.719655,16.235778 0.501872,2.811883 0.860274,5.647494 1.290413,8.471239 0.27352,2.627439 0.594547,5.250367 0.820562,7.882318 0.200729,2.337469 0.299006,4.682628 0.459436,7.023214 0.647258,9.44311 1.186495,18.86905 1.460056,28.33137 0.385931,13.04082 0.01709,26.09372 -0.611693,39.12087 -0.530844,6.8173 -1.046017,13.64529 -1.927217,20.42874 -0.427948,3.29432 -0.929132,6.57883 -1.359414,9.87284 -1.107836,7.93516 -1.499883,15.93939 -2.531999,23.88331 -0.765733,4.68253 -1.270611,9.39896 -1.938027,14.09752 -0.380691,5.11942 -1.40339,10.13664 -2.366701,15.16628 -0.665384,2.65207 -0.815734,5.46033 -1.818442,8.01708 0,0 38.425112,19.78394 38.425112,19.78394 v 0 c -0.09225,-0.28363 -0.24066,-0.55483 -0.276746,-0.85092 -0.280078,-2.29786 0.731139,-4.96737 0.747593,-7.28605 0.433173,-3.08834 0.233029,-1.5195 0.597014,-4.70696 0.469508,-3.5388 1.222346,-7.03467 1.649436,-10.58068 1.570728,-9.58894 -0.73991,4.60056 0.746289,-4.80047 0.214085,-1.3542 0.619329,-3.40906 0.725615,-4.78456 0.05688,-0.73608 0.05454,-4.51683 0.0565,-5.09446 0.171773,-8.16016 0.280033,-16.32768 1.042916,-24.46151 0.385427,-3.69686 0.64099,-6.29161 1.088544,-9.9949 0.420806,-3.48197 1.035023,-6.94089 1.374994,-10.43168 0.290751,-2.98539 0.3668,-7.49903 0.451853,-10.46764 0.07408,-13.32483 -0.802367,-26.63813 -0.637558,-39.96682 -0.111972,-7.17256 -0.148175,-14.34463 -0.663975,-21.50335 -0.53612,-7.44072 -0.619141,-7.00094 -1.71605,-14.50689 -0.396547,-2.71349 -0.791628,-5.4272 -1.18744,-8.1408 -0.781582,-5.698403 -1.539978,-10.981032 -2.191472,-16.69142 -0.273751,-2.399456 -0.527735,-4.801637 -0.731105,-7.208083 -0.289795,-3.429141 -0.625033,-6.966239 -0.01873,-10.387507 0,0 -38.89482,-19.451421 -38.89482,-19.451421 z" />
        <path
           style="fill:#ffffff;stroke-width:0.264583"
           id="path1574"
           d="m 70.203004,61.911853 c 5.625308,-4.534009 12.579601,-6.821707 19.319641,-9.117875 6.757914,-1.887588 13.720225,-3.461856 20.784735,-3.214423 4.84921,0.169844 6.60067,0.672973 11.32982,1.548511 1.68806,0.466037 3.41625,0.805625 5.06419,1.398111 1.50355,0.540576 2.90703,1.32692 4.36054,1.990381 -10.11242,-5.700715 -20.09749,-11.633472 -30.33725,-17.102142 -1.576527,-0.841965 2.97641,2.001141 4.30337,3.198431 4.16608,3.758957 5.69084,6.37698 9.08204,10.989715 5.50186,8.737325 9.61556,18.323483 12.13644,28.341362 1.24527,4.948616 1.5096,7.667921 2.21869,12.62879 0.81001,7.066052 1.25147,14.248796 0.41858,21.338196 -0.42316,3.60183 -0.79865,4.69292 -1.64038,8.08778 -1.15498,4.18309 -2.53264,8.43704 -4.86299,12.14085 -1.64684,2.61745 -2.51957,3.35373 -4.59927,5.60106 -2.02952,1.95746 -4.24875,3.71621 -6.73242,5.06354 -0.67211,0.36461 -2.12269,1.04393 -2.94775,1.21943 -0.40256,0.0856 -0.82069,0.0632 -1.23104,0.0949 -2.96951,0.37988 -5.97064,0.33754 -8.935851,0.73911 -0.400201,0.0542 -3.257159,0.53618 -3.789069,0.62539 0,0 34.89287,24.33645 34.89287,24.33645 v 0 c 4.25791,-0.97152 8.61558,-1.01321 12.92315,-1.6604 0.63954,-0.26653 1.31345,-0.46223 1.91862,-0.79959 0.50153,-0.27958 2.32358,-1.91844 2.63025,-2.20524 2.1453,-2.00628 4.09122,-4.20847 6.05271,-6.39064 2.56359,-3.0206 5.24639,-6.08076 7.2007,-9.55319 1.77468,-3.15324 2.59986,-6.65853 3.13287,-10.20349 1.41136,-10.47592 1.95244,-21.16667 0.0237,-31.61846 -1.42238,-7.02886 -2.91252,-14.084251 -5.14222,-20.913449 -2.46918,-7.562654 -5.89392,-14.763062 -9.46665,-21.852638 -2.13954,-3.83258 -4.08577,-7.736232 -6.83707,-11.189348 -1.05722,-1.326904 -2.07489,-2.789653 -3.52326,-3.673182 -4.72388,-2.881648 -27.82328,-19.603068 -42.624604,-23.126059 -1.609804,-0.383164 -3.257158,-0.586563 -4.885737,-0.879845 -1.846604,-0.204767 -3.687017,-0.476406 -5.539817,-0.614299 -3.838191,-0.285652 -8.366916,-0.375846 -12.19985,0.0066 -5.375487,0.536319 -10.621902,2.11413 -15.821147,3.478649 -6.498084,2.058398 -3.347749,1.012309 -9.638111,3.190822 -3.687932,1.277226 -7.399973,2.631906 -11.20838,3.523414 -0.616186,0.144243 -1.247894,0.211471 -1.871842,0.317207 0,0 36.041774,24.255639 36.041774,24.255639 z" />
        <path
           style="fill:#ffffff;stroke-width:0.264583"
           id="path1576"
           d="m 82.522154,161.46035 c 0.647192,0.30879 1.285592,0.63672 1.941579,0.92636 1.235871,0.54566 2.502209,1.02125 3.732696,1.57894 6.884284,3.12019 13.627121,6.55717 20.453241,9.79882 3.34093,1.58657 6.7072,3.11922 10.0608,4.67884 18.77224,8.76458 37.92641,16.79735 56.13757,26.7178 3.01282,1.64122 5.95905,3.40183 8.93858,5.10275 -36.58204,-20.68685 -26.01701,-15.43092 -15.67543,-8.17789 2.08189,1.46013 4.1308,2.96958 6.12773,4.54391 3.28199,2.58741 6.13279,5.14463 9.05421,8.09932 0.98515,0.99638 1.90088,2.05908 2.85132,3.08863 5.45486,6.20232 8.1776,14.11599 10.53704,21.89308 0.30598,1.23636 0.61196,2.47272 0.91794,3.70908 0,0 36.51601,17.28581 36.51601,17.28581 v 0 c -0.46442,-1.33439 -0.92885,-2.66877 -1.39327,-4.00316 -1.47121,-4.46077 -2.82769,-8.95182 -4.24347,-13.43011 -0.73303,-2.31866 -1.43127,-5.03277 -2.83377,-7.08902 -0.78435,-1.14995 -1.85201,-2.07856 -2.77802,-3.11784 -4.6063,-4.45775 -9.28328,-8.8245 -14.3188,-12.80402 -16.03867,-12.67521 -34.67921,-21.78368 -52.15009,-32.09242 -2.76971,-1.47732 -5.51203,-3.00718 -8.30912,-4.43197 -6.26805,-3.19285 -13.55366,-6.53751 -19.90496,-9.46502 -11.12388,-5.12735 -12.43847,-5.61889 -23.6884,-10.95389 -3.99764,-1.89578 -7.972231,-3.83977 -11.958348,-5.75966 -12.864656,-6.47349 -8.757912,-4.33064 -20.812721,-10.67495 -6.741408,-3.54792 -8.264903,-4.44539 -14.571426,-7.57418 -1.700459,-0.84363 -3.389519,-1.71446 -5.128795,-2.47484 -1.193051,-0.52158 -2.439466,-0.9114 -3.6592,-1.3671 0,0 34.157104,25.99273 34.157104,25.99273 z" />
      </g>
    </g>
  </g>
</svg>
