<?xml version="1.0" encoding="UTF-8" standalone="no"?>
<!-- Created with Inkscape (http://www.inkscape.org/) -->

<svg
   width="300mm"
   height="300mm"
   viewBox="0 0 300 300"
   version="1.1"
   id="svg8"
   inkscape:version="1.2.2 (b0a8486541, 2022-12-01)"
   sodipodi:docname="sGrad.svg"
   xmlns:inkscape="http://www.inkscape.org/namespaces/inkscape"
   xmlns:sodipodi="http://sodipodi.sourceforge.net/DTD/sodipodi-0.dtd"
   xmlns:xlink="http://www.w3.org/1999/xlink"
   xmlns="http://www.w3.org/2000/svg"
   xmlns:svg="http://www.w3.org/2000/svg"
   xmlns:rdf="http://www.w3.org/1999/02/22-rdf-syntax-ns#"
   xmlns:cc="http://creativecommons.org/ns#"
   xmlns:dc="http://purl.org/dc/elements/1.1/">
  <defs
     id="defs2">
    <linearGradient
       inkscape:collect="always"
       id="linearGradient1206">
      <stop
         style="stop-color:#4fb173;stop-opacity:1;"
         offset="0.14849454"
         id="stop1202" />
      <stop
         style="stop-color:#4fb173;stop-opacity:0;"
         offset="1"
         id="stop1204" />
    </linearGradient>
    <radialGradient
       inkscape:collect="always"
       xlink:href="#linearGradient1206"
       id="radialGradient1208"
       cx="144.62532"
       cy="156.63644"
       fx="144.62532"
       fy="156.63644"
       r="144.06537"
       gradientTransform="matrix(1.037266,0,0,1.0353775,0.44339348,-14.892553)"
       gradientUnits="userSpaceOnUse" />
  </defs>
  <sodipodi:namedview
     id="base"
     pagecolor="#ffffff"
     bordercolor="#666666"
     borderopacity="1.0"
     inkscape:pageopacity="0.0"
     inkscape:pageshadow="2"
     inkscape:zoom="0.48892506"
     inkscape:cx="570.6396"
     inkscape:cy="487.80482"
     inkscape:document-units="mm"
     inkscape:current-layer="layer1"
     showgrid="false"
     inkscape:window-width="1920"
     inkscape:window-height="1043"
     inkscape:window-x="0"
     inkscape:window-y="0"
     inkscape:window-maximized="1"
     inkscape:showpageshadow="2"
     inkscape:pagecheckerboard="0"
     inkscape:deskcolor="#d1d1d1" />
  <metadata
     id="metadata5">
    <rdf:RDF>
      <cc:Work
         rdf:about="">
        <dc:format>image/svg+xml</dc:format>
        <dc:type
           rdf:resource="http://purl.org/dc/dcmitype/StillImage" />
      </cc:Work>
    </rdf:RDF>
  </metadata>
  <g
     inkscape:label="Layer 1"
     inkscape:groupmode="layer"
     id="layer1"
     transform="translate(0,3)">
    <g
       id="g1212">
      <ellipse
         style="fill:url(#radialGradient1208);fill-opacity:1;stroke-width:0.27286"
         id="path363"
         cx="150.45833"
         cy="147.28528"
         rx="149.43411"
         ry="149.16203" />
      <path
         style="fill:#ffffff;stroke-width:0.17205"
         id="path1610"
         d="m 195.12899,72.040449 c -0.24127,0.0196 -0.48219,0.0721 -0.72384,0.0589 -0.51411,-0.0281 -1.02389,-0.11703 -1.5351,-0.18255 -4.45645,-0.57125 -4.49436,-0.52802 -9.73383,-1.7874 -5.89335,-1.41655 -9.86778,-2.64222 -15.72726,-4.33858 -8.24816,-2.40559 -16.41208,-5.25143 -24.87414,-6.669997 -4.31314,-0.723049 -5.23826,-0.684505 -9.57676,-0.990826 -3.08544,-0.143157 -6.54692,-0.40531 -9.63697,-0.14132 -1.68961,0.144347 -3.36288,0.466899 -5.03588,0.761102 -3.89817,0.685507 -6.22465,1.230178 -10.03113,2.336471 -1.54901,0.45019 -3.07888,0.97456 -4.61833,1.46184 -5.045345,1.75264 -9.956122,3.96701 -14.650572,6.63324 -2.001246,1.13662 -3.553454,2.19587 -5.477467,3.45711 -1.474023,1.03338 -3.29958,2.21799 -4.611113,3.50948 -0.746485,0.73508 -1.398397,1.57639 -2.072311,2.3898 -1.426215,1.72143 -2.499992,3.13278 -3.730717,5.01859 -0.525332,0.80494 -1.000954,1.64675 -1.50143,2.47012 -1.761795,3.17133 -3.01323,6.70763 -2.889828,10.47531 0.09739,2.97354 0.641822,4.509021 1.347728,7.404761 1.170351,3.23929 1.771922,5.48661 3.752688,8.36762 2.801115,4.07421 6.793046,7.97216 10.384683,11.10889 5.902807,5.15516 9.202192,7.23135 15.594636,11.74921 12.034063,7.5057 21.362283,14.27408 33.447403,19.88765 2.89261,1.34362 5.84538,2.53474 8.81322,3.669 5.5476,2.1202 10.45643,3.6386 16.16325,5.06228 2.30777,0.57571 4.64277,1.01443 6.96415,1.52166 5.28881,0.88284 6.39987,1.21944 11.59365,1.5308 2.88123,0.17273 7.64985,0.13481 10.53892,0.1525 6.05233,0.037 4.13575,0.0144 10.12255,0.20375 6.89577,0.39162 13.82975,1.48653 20.20935,4.49124 0.8808,0.41485 1.71628,0.93481 2.57442,1.40222 -6.44244,-3.95981 -12.88488,-7.91959 -19.32732,-11.8794 0.67473,0.52319 1.3866,0.99418 2.0242,1.56956 0.63036,0.56884 1.22234,1.19119 1.76938,1.85377 1.02805,1.24518 1.8814,2.65985 2.55717,4.15963 0.33391,0.74105 0.58146,1.52432 0.87219,2.28649 1.44402,4.86594 1.63116,9.93291 1.37308,14.99483 -0.23223,3.45421 -0.99103,6.84741 -2.1209,10.08251 -0.80195,2.29621 -1.21912,3.12526 -2.18941,5.32583 -1.89515,4.02074 -3.8867,8.03417 -6.33643,11.69831 -0.38697,0.5788 -0.80811,1.12979 -1.21217,1.69467 -1.69175,2.26197 -3.81932,3.91975 -6.39283,4.78099 -0.59999,0.2008 -1.21758,0.33352 -1.82638,0.50025 -6.64262,1.30521 -13.43012,1.39493 -20.15936,1.63294 -7.51838,0.20742 -15.03924,0.45298 -22.56086,0.45692 -3.14221,0.002 -9.02282,-0.0786 -12.19366,-0.1167 -5.39981,-0.0718 -10.79894,-0.18826 -16.19827,-0.29056 -2.6687,-0.0506 -6.52895,-0.0863 -9.22111,-0.22941 -1.35854,-0.0722 -2.71378,-0.20482 -4.07067,-0.30722 -4.54192,-0.49528 -9.148824,-1.36011 -13.344559,-3.39943 -0.45324,-0.22029 -0.88597,-0.48721 -1.328956,-0.73081 -7.877154,-5.78045 -4.592071,-3.33397 21.348885,13.2054 0.14863,0.0948 -0.37721,0.0964 -0.51708,-0.0129 -0.29036,-0.22701 -0.52512,-0.55631 -0.66697,-0.91276 -0.4803,-1.20684 -1.25356,-4.84591 -1.50537,-5.94673 -0.72929,-3.14906 -1.01894,-6.37458 -1.28521,-9.59741 0,0 -22.530133,-11.99155 -22.530133,-11.99155 v 0 c 0.625458,3.2242 1.267557,6.45282 1.502002,9.74632 0.09553,1.46481 0.310169,3.62275 0.177751,5.16737 -0.0517,0.60309 -0.288028,1.17888 -0.320211,1.78356 -0.02051,0.38538 -0.138021,0.94077 0.164381,1.14426 20.63694,13.88653 14.92208,11.90654 24.29345,15.03241 4.34717,1.27969 8.82575,1.88899 13.33384,1.86007 9.37222,0.0286 18.74084,-0.26999 28.11215,-0.3756 3.23435,-0.0328 8.73093,-0.0984 11.93172,-0.0902 7.90736,0.0202 15.81241,0.29841 23.7184,0.4281 4.4185,0.072 8.83849,0.16561 13.25764,0.0902 2.30161,-0.0393 4.29639,-0.0821 6.57015,-0.36301 0.8743,-0.10802 1.73941,-0.29044 2.60912,-0.43564 1.69678,-0.5128 2.48753,-0.64707 4.04067,-1.50607 2.21283,-1.22385 3.8253,-3.19172 5.17749,-5.40648 2.61907,-4.58191 4.94738,-9.34868 7.24535,-14.12686 0.88921,-2.13766 1.40485,-3.34611 2.25353,-5.51389 0.5891,-1.50477 1.52972,-3.92541 1.96755,-5.51288 0.50968,-1.84797 0.64801,-3.20362 0.92419,-5.09806 0.0316,-0.83794 0.0864,-1.67522 0.0949,-2.5138 0.0189,-1.87517 -0.0743,-3.44181 -0.19216,-5.3146 -0.0844,-1.34177 -0.27928,-4.21763 -0.47195,-5.55039 -0.12862,-0.88982 -0.33745,-1.76379 -0.50618,-2.64569 -0.66974,-2.42446 -0.66557,-2.85578 -1.77941,-5.09958 -0.76137,-1.53372 -1.9078,-3.35168 -2.99876,-4.63158 -6.78005,-7.95426 -20.34923,-8.99231 -25.68239,-16.73694 -0.81753,-0.32528 -1.62254,-0.69029 -2.4526,-0.97582 -6.22819,-2.14244 -12.81972,-2.55194 -19.30285,-2.79323 -10.27726,-0.14518 -20.59496,0.23612 -30.81738,-1.20568 -2.06941,-0.3567 -4.15243,-0.63043 -6.20823,-1.07012 -8.0008,-1.71117 -15.84741,-4.34747 -23.3208,-7.89413 -2.92049,-1.38599 -5.60624,-5.70815 -8.60327,-4.53002 -2.78569,1.09506 5.10251,3.26884 7.65377,4.90326 -2.53181,-1.79201 -5.12302,-3.48896 -7.59544,-5.37604 -5.35751,-4.08913 -10.748677,-8.7071 -14.567932,-14.57242 -1.858232,-2.85373 -2.166873,-4.22386 -3.304551,-7.36322 -0.634326,-2.80786 -0.945751,-3.46635 -0.998553,-6.26748 -0.06188,-3.28296 0.987606,-6.41277 2.244247,-9.344801 1.10101,-2.09051 1.403612,-2.84749 2.818706,-4.76488 2.293175,-3.10715 5.229543,-5.49508 8.215673,-7.75873 5.88745,-4.19367 11.85576,-7.8729 18.53995,-10.4107 4.00708,-1.42091 4.82454,-1.84718 9.05957,-2.76772 6.4813,-1.40881 13.08402,-1.5445 19.65675,-0.94878 3.72973,0.37249 5.64309,0.5162 9.3259,1.06673 7.55157,1.12886 15.00319,2.94307 22.40257,4.90234 6.84811,1.95791 9.55377,2.66179 16.42246,4.91816 2.66535,0.87557 5.30616,1.83674 7.96018,2.75193 1.90179,0.6558 3.78643,1.37402 5.70722,1.96103 1.12181,0.34284 2.51435,0.52649 3.70262,0.70671 0,0 -21.99844,-17.33749 -21.99844,-17.33749 z" />
    </g>
  </g>
</svg>
