<?xml version="1.0" encoding="UTF-8" standalone="no"?>
<!-- Created with Inkscape (http://www.inkscape.org/) -->

<svg
   width="300mm"
   height="300mm"
   viewBox="0 0 300 300"
   version="1.1"
   id="svg8"
   inkscape:version="1.2.2 (b0a8486541, 2022-12-01)"
   sodipodi:docname="sOrig.svg"
   xmlns:inkscape="http://www.inkscape.org/namespaces/inkscape"
   xmlns:sodipodi="http://sodipodi.sourceforge.net/DTD/sodipodi-0.dtd"
   xmlns="http://www.w3.org/2000/svg"
   xmlns:svg="http://www.w3.org/2000/svg"
   xmlns:rdf="http://www.w3.org/1999/02/22-rdf-syntax-ns#"
   xmlns:cc="http://creativecommons.org/ns#"
   xmlns:dc="http://purl.org/dc/elements/1.1/">
  <defs
     id="defs2" />
  <sodipodi:namedview
     id="base"
     pagecolor="#ffffff"
     bordercolor="#666666"
     borderopacity="1.0"
     inkscape:pageopacity="0.0"
     inkscape:pageshadow="2"
     inkscape:zoom="0.48892506"
     inkscape:cx="569.61695"
     inkscape:cy="485.75951"
     inkscape:document-units="mm"
     inkscape:current-layer="layer1"
     showgrid="false"
     inkscape:window-width="1920"
     inkscape:window-height="1043"
     inkscape:window-x="0"
     inkscape:window-y="0"
     inkscape:window-maximized="1"
     inkscape:showpageshadow="2"
     inkscape:pagecheckerboard="0"
     inkscape:deskcolor="#d1d1d1" />
  <metadata
     id="metadata5">
    <rdf:RDF>
      <cc:Work
         rdf:about="">
        <dc:format>image/svg+xml</dc:format>
        <dc:type
           rdf:resource="http://purl.org/dc/dcmitype/StillImage" />
      </cc:Work>
    </rdf:RDF>
  </metadata>
  <g
     inkscape:label="Layer 1"
     inkscape:groupmode="layer"
     id="layer1"
     transform="translate(0,3)">
    <path
       style="fill:#000000;stroke-width:0.264583"
       id="path1610"
       d="m 220.48506,37.378595 c -0.38645,0.029 -0.77231,0.106524 -1.15936,0.087 -0.82344,-0.04155 -1.63994,-0.172791 -2.45873,-0.269544 -7.13777,-0.843457 -7.19849,-0.779635 -15.59041,-2.639137 -9.43922,-2.09156 -15.80496,-3.901292 -25.18993,-6.406015 -13.21086,-3.551901 -26.2868,-7.753858 -39.84024,-9.848405 -6.90824,-1.067599 -8.38999,-1.010687 -15.33884,-1.462977 -4.94186,-0.211375 -10.48603,-0.59845 -15.43528,-0.208663 -2.7062,0.213132 -5.38623,0.689388 -8.065826,1.123786 -6.243595,1.012166 -9.969862,1.816386 -16.066592,3.449852 -2.481009,0.664723 -4.931368,1.438962 -7.397052,2.158444 -8.080999,2.587813 -15.946458,5.857375 -23.465432,9.794131 -3.205343,1.678244 -5.691473,3.242263 -8.773112,5.104509 -2.360904,1.525804 -5.284849,3.274914 -7.385497,5.18183 -1.195629,1.085363 -2.239775,2.327579 -3.319169,3.528599 -2.284328,2.54172 -4.004168,4.625616 -5.975387,7.410053 -0.841409,1.188527 -1.603201,2.431466 -2.404801,3.647197 -2.82182,4.682543 -4.826207,9.903976 -4.628557,15.467044 0.15599,4.390498 1.02799,6.657668 2.158618,10.933298 1.87452,4.782891 2.838038,8.101111 6.010579,12.354991 4.486472,6.015662 10.880242,11.771092 16.632871,16.402542 9.454367,7.61172 14.738903,10.67726 24.97751,17.34799 19.274636,11.08233 34.215397,21.07601 53.571807,29.36457 4.63302,1.98389 9.36238,3.74261 14.11589,5.41737 8.88544,3.13052 16.74779,5.37248 25.88825,7.47457 3.69629,0.85006 7.4362,1.49784 11.15429,2.24677 8.47094,1.30354 10.2505,1.80054 18.56924,2.26027 4.61478,0.25504 12.25256,0.19905 16.8799,0.22516 9.69386,0.0547 6.62412,0.0212 16.21301,0.30085 11.04477,0.57823 22.15074,2.19489 32.36878,6.63142 1.41075,0.61253 2.74891,1.38027 4.12337,2.07041 -10.31868,-5.84675 -20.63736,-11.69347 -30.95604,-17.54021 1.0807,0.7725 2.22087,1.46793 3.2421,2.31748 1.00964,0.83991 1.95779,1.75882 2.83397,2.73714 1.6466,1.83854 3.01339,3.92733 4.09576,6.14179 0.53481,1.09418 0.93131,2.2507 1.39696,3.37606 2.31285,7.18468 2.61258,14.66618 2.19923,22.14022 -0.37197,5.10022 -1.58732,10.11036 -3.39699,14.88706 -1.28447,3.39041 -1.95264,4.61452 -3.50673,7.86371 -3.0354,5.93672 -6.22522,11.86264 -10.14889,17.27284 -0.61979,0.8546 -1.29433,1.66815 -1.9415,2.50222 -2.70962,3.33984 -6.11729,5.7876 -10.23922,7.05924 -0.96099,0.29649 -1.95017,0.49245 -2.92526,0.73863 -10.63931,1.92717 -21.51067,2.05965 -32.28871,2.41107 -12.04198,0.30626 -24.08794,0.66884 -36.13512,0.67466 -5.03279,0.003 -14.4516,-0.11606 -19.53026,-0.17232 -8.64872,-0.10602 -17.29636,-0.27796 -25.944321,-0.42901 -4.274383,-0.0747 -10.457246,-0.12748 -14.769202,-0.33873 -2.175942,-0.1066 -4.346594,-0.30242 -6.519892,-0.45362 -7.274674,-0.73129 -14.653424,-2.00824 -21.373621,-5.01934 -0.725942,-0.32526 -1.419034,-0.71938 -2.128552,-1.07905 -12.616626,-8.53497 -7.354998,-4.92269 34.193932,19.49807 0.238059,0.13994 -0.604168,0.1424 -0.828188,-0.019 -0.465055,-0.33518 -0.841068,-0.8214 -1.068276,-1.34771 -0.769276,-1.78192 -2.007783,-7.1551 -2.411098,-8.78049 -1.16809,-4.64965 -1.632016,-9.41221 -2.058484,-14.17079 0,0 -36.085918,-17.70581 -36.085918,-17.70581 v 0 c 1.001779,4.76061 2.030212,9.52774 2.405716,14.39067 0.153017,2.16282 0.49679,5.34908 0.2847,7.62974 -0.08281,0.89048 -0.461327,1.74064 -0.512874,2.63347 -0.03285,0.56902 -0.221064,1.38907 0.263285,1.68953 33.053641,20.50378 23.900288,17.58028 38.910167,22.19571 6.96274,1.88949 14.13597,2.78913 21.356456,2.74643 15.01123,0.0423 30.01669,-0.39864 45.02646,-0.55458 5.18037,-0.0484 13.9841,-0.14523 19.11072,-0.13319 12.66501,0.0298 25.32631,0.44061 37.98913,0.63211 7.07698,0.10634 14.15637,0.24453 21.2344,0.13315 3.68642,-0.058 6.88141,-0.12128 10.52323,-0.536 1.40034,-0.15949 2.78597,-0.42883 4.17896,-0.64323 2.71768,-0.75716 3.98421,-0.95541 6.47183,-2.22374 3.54424,-1.80705 6.12688,-4.71266 8.29265,-7.9828 4.19489,-6.76529 7.92409,-13.80355 11.60468,-20.85864 1.42422,-3.15631 2.25012,-4.94061 3.60942,-8.14139 0.94355,-2.22182 2.45012,-5.79596 3.15137,-8.13989 0.81635,-2.72858 1.03791,-4.73023 1.48026,-7.52741 0.0506,-1.23723 0.13836,-2.4735 0.15196,-3.71169 0.0303,-2.76873 -0.11907,-5.0819 -0.30777,-7.84713 -0.13517,-1.98115 -0.44733,-6.22742 -0.75591,-8.19527 -0.20601,-1.31384 -0.54049,-2.60428 -0.81074,-3.90643 -1.0727,-3.57977 -1.06603,-4.21662 -2.85004,-7.52965 -1.21946,-2.26458 -3.05567,-4.94883 -4.80303,-6.83863 -10.85942,-11.74466 -32.59281,-13.27737 -41.13479,-24.71249 -1.30942,-0.48028 -2.59878,-1.01923 -3.92826,-1.44082 -9.97553,-3.16336 -20.53301,-3.768 -30.91687,-4.12427 -16.46081,-0.21437 -32.98638,0.34863 -49.35936,-1.78021 -3.31452,-0.52669 -6.65084,-0.93085 -9.94356,-1.58006 -12.81466,-2.52658 -25.38237,-6.41914 -37.352287,-11.65588 -4.677669,-2.04644 -8.979373,-8.42821 -13.779632,-6.68867 -4.461753,1.61688 8.172561,4.82652 12.258841,7.23978 -4.055136,-2.64595 -8.205409,-5.15154 -12.165414,-7.93785 -8.580977,-6.0377 -17.215866,-12.85624 -23.333064,-21.51653 -2.97628,-4.21359 -3.470622,-6.23663 -5.29281,-10.87197 -1.015984,-4.145872 -1.514784,-5.118152 -1.599356,-9.254082 -0.09911,-4.84736 1.581822,-9.468597 3.59455,-13.797807 1.763458,-3.086695 2.248127,-4.204396 4.514646,-7.035469 3.672917,-4.58778 8.376018,-8.113607 13.158819,-11.455935 9.429769,-6.192064 18.989064,-11.624532 29.694937,-15.371645 6.41804,-2.098009 7.72734,-2.727405 14.51047,-4.086614 10.38093,-2.080136 20.95632,-2.280486 31.48368,-1.400887 5.97381,0.549979 9.0384,0.762177 14.93705,1.575049 12.09515,1.666787 24.03021,4.345508 35.8816,7.238425 10.96843,2.890893 15.30202,3.93019 26.30341,7.261776 4.26902,1.292801 8.49874,2.711989 12.74961,4.063288 3.04604,0.968301 6.06462,2.028775 9.1411,2.895512 1.79677,0.506201 4.02717,0.777375 5.93039,1.04347 0,0 -35.23431,-25.599221 -35.23431,-25.599221 z" />
  </g>
</svg>
