<?xml version="1.0" encoding="UTF-8" standalone="no"?>
<!-- Created with Inkscape (http://www.inkscape.org/) -->

<svg
   width="300mm"
   height="300mm"
   viewBox="0 0 300 300"
   version="1.1"
   id="svg8"
   inkscape:version="1.2.2 (b0a8486541, 2022-12-01)"
   sodipodi:docname="tOrig.svg"
   xmlns:inkscape="http://www.inkscape.org/namespaces/inkscape"
   xmlns:sodipodi="http://sodipodi.sourceforge.net/DTD/sodipodi-0.dtd"
   xmlns="http://www.w3.org/2000/svg"
   xmlns:svg="http://www.w3.org/2000/svg"
   xmlns:rdf="http://www.w3.org/1999/02/22-rdf-syntax-ns#"
   xmlns:cc="http://creativecommons.org/ns#"
   xmlns:dc="http://purl.org/dc/elements/1.1/">
  <defs
     id="defs2" />
  <sodipodi:namedview
     id="base"
     pagecolor="#ffffff"
     bordercolor="#666666"
     borderopacity="1.0"
     inkscape:pageopacity="0.0"
     inkscape:pageshadow="2"
     inkscape:zoom="0.48892506"
     inkscape:cx="569.61695"
     inkscape:cy="485.75951"
     inkscape:document-units="mm"
     inkscape:current-layer="layer1"
     showgrid="false"
     inkscape:window-width="1920"
     inkscape:window-height="1043"
     inkscape:window-x="0"
     inkscape:window-y="0"
     inkscape:window-maximized="1"
     inkscape:showpageshadow="2"
     inkscape:pagecheckerboard="0"
     inkscape:deskcolor="#d1d1d1" />
  <metadata
     id="metadata5">
    <rdf:RDF>
      <cc:Work
         rdf:about="">
        <dc:format>image/svg+xml</dc:format>
        <dc:type
           rdf:resource="http://purl.org/dc/dcmitype/StillImage" />
      </cc:Work>
    </rdf:RDF>
  </metadata>
  <g
     inkscape:label="Layer 1"
     inkscape:groupmode="layer"
     id="layer1"
     transform="translate(0,3)">
    <g
       id="g1642"
       transform="translate(-6.3500003)">
      <path
         style="fill:#000000;stroke-width:0.264583"
         id="path1634"
         d="m 65.41695,61.104427 c 5.633067,0.936667 3.472204,0.551767 11.136855,2.011486 11.14126,2.121834 13.511382,2.712263 25.395095,4.564436 11.03645,1.720122 21.12447,2.963884 32.20774,4.409106 13.09297,1.511674 17.85061,2.273314 30.88454,2.959608 4.73037,0.249074 9.46831,0.456954 14.20496,0.406551 4.57762,-0.04871 9.14816,-0.394499 13.71558,-0.703649 9.64005,-0.652494 15.43402,-1.363567 24.92031,-2.382025 3.48307,-0.422052 6.9659,-0.846182 10.44922,-1.266153 9.18825,-1.107792 8.20083,-0.925308 16.86501,-2.156184 5.58718,-0.79374 11.15969,-1.683036 16.74637,-2.480332 3.3922,-0.639286 6.83485,-0.899977 10.2552,-1.316439 2.66636,-0.324655 5.31098,-0.814607 7.97335,-1.172009 0.68556,-0.07608 1.37115,-0.152159 2.05671,-0.22824 0,0 -34.60807,-24.250253 -34.60807,-24.250253 v 0 c -0.59386,0.145066 -1.18772,0.290129 -1.78158,0.435192 -5.5987,1.24269 -11.32717,1.892514 -16.81374,3.635235 -1.45091,0.414464 -7.53576,2.156317 -8.69757,2.471356 -6.83909,1.854488 -13.72464,3.465124 -20.65726,4.929873 -3.11995,0.659196 -6.24661,1.286248 -9.36992,1.92937 -9.43086,1.61244 -13.39363,2.494392 -23.17824,3.268959 -18.82676,1.490361 -37.72525,0.504275 -56.45963,-1.625274 -5.40508,-0.71858 -10.829846,-1.302015 -16.215236,-2.155733 -21.44251,-3.399168 -42.746125,-8.653433 -62.640415,-17.47625 0,0 33.610721,26.191369 33.610721,26.191369 z" />
      <path
         style="fill:#000000;stroke-width:0.264583"
         id="path1638"
         d="m 132.32247,59.801616 c 0.009,0.535942 -0.0287,1.074652 0.0264,1.607828 0.36886,3.568231 1.05492,7.098117 1.45258,10.663253 0.34153,3.061822 0.63905,6.129231 0.87085,9.201308 0.69813,9.252305 0.73659,13.550054 1.04978,22.972145 0.34916,15.80352 -0.26025,31.62867 0.68864,47.4194 0.23396,3.89339 0.65695,7.77316 0.96053,11.66174 0.29058,3.72208 0.54795,7.44667 0.82193,11.17001 0.44711,9.08833 1.01461,18.17735 0.98888,27.28121 -0.0146,5.14871 -0.30275,10.27325 -0.71599,15.4018 -0.16156,2.30824 -0.71717,4.54085 -0.52231,6.86451 0.0915,1.09043 0.30323,2.16793 0.41381,3.25659 0.35163,3.4617 0.38269,5.19688 0.55346,8.76245 0.10721,7.15138 0.14037,3.57091 -0.10111,10.7414 0,0 34.84283,17.94368 34.84283,17.94368 v 0 c 0.37539,-7.08406 0.12008,-3.57766 0.7588,-10.51972 0.23471,-2.742 0.41603,-5.48907 0.70267,-8.22613 0.10206,-0.97456 0.31416,-1.93746 0.37813,-2.91526 0.17305,-2.64517 -0.7022,-5.17285 -1.00401,-7.77285 -2.45227,-15.16391 -4.19502,-30.41731 -5.93728,-45.67658 -0.37049,-3.76169 -0.78706,-7.51913 -1.11149,-11.28507 -1.68633,-19.5742 -2.56273,-39.24292 -1.89344,-58.8873 0.56124,-11.79273 0.80279,-23.815511 3.76752,-35.317718 0.31363,-1.216779 0.8403,-2.60604 1.29425,-3.838647 0,0 -38.28543,-20.508049 -38.28543,-20.508049 z" />
    </g>
  </g>
</svg>
