<?xml version="1.0" encoding="UTF-8" standalone="no"?>
<!-- Created with Inkscape (http://www.inkscape.org/) -->

<svg
   width="300mm"
   height="300mm"
   viewBox="0 0 300 300"
   version="1.1"
   id="svg8"
   inkscape:version="1.2.2 (b0a8486541, 2022-12-01)"
   sodipodi:docname="uGrad.svg"
   xmlns:inkscape="http://www.inkscape.org/namespaces/inkscape"
   xmlns:sodipodi="http://sodipodi.sourceforge.net/DTD/sodipodi-0.dtd"
   xmlns:xlink="http://www.w3.org/1999/xlink"
   xmlns="http://www.w3.org/2000/svg"
   xmlns:svg="http://www.w3.org/2000/svg"
   xmlns:rdf="http://www.w3.org/1999/02/22-rdf-syntax-ns#"
   xmlns:cc="http://creativecommons.org/ns#"
   xmlns:dc="http://purl.org/dc/elements/1.1/">
  <defs
     id="defs2">
    <linearGradient
       inkscape:collect="always"
       id="linearGradient1002">
      <stop
         style="stop-color:#e91b4b;stop-opacity:1;"
         offset="0.14935119"
         id="stop998" />
      <stop
         style="stop-color:#e91b4b;stop-opacity:0;"
         offset="1"
         id="stop1000" />
    </linearGradient>
    <radialGradient
       inkscape:collect="always"
       xlink:href="#linearGradient1002"
       id="radialGradient1004"
       cx="155.65317"
       cy="160.64262"
       fx="155.65317"
       fy="160.64262"
       r="140.60516"
       gradientTransform="matrix(1.0680122,0,0,1.0612436,-14.858558,-22.841717)"
       gradientUnits="userSpaceOnUse" />
  </defs>
  <sodipodi:namedview
     id="base"
     pagecolor="#ffffff"
     bordercolor="#666666"
     borderopacity="1.0"
     inkscape:pageopacity="0.0"
     inkscape:pageshadow="2"
     inkscape:zoom="0.48892506"
     inkscape:cx="570.6396"
     inkscape:cy="487.80482"
     inkscape:document-units="mm"
     inkscape:current-layer="layer1"
     showgrid="false"
     inkscape:window-width="1920"
     inkscape:window-height="1043"
     inkscape:window-x="0"
     inkscape:window-y="0"
     inkscape:window-maximized="1"
     inkscape:showpageshadow="2"
     inkscape:pagecheckerboard="0"
     inkscape:deskcolor="#d1d1d1" />
  <metadata
     id="metadata5">
    <rdf:RDF>
      <cc:Work
         rdf:about="">
        <dc:format>image/svg+xml</dc:format>
        <dc:type
           rdf:resource="http://purl.org/dc/dcmitype/StillImage" />
      </cc:Work>
    </rdf:RDF>
  </metadata>
  <g
     inkscape:label="Layer 1"
     inkscape:groupmode="layer"
     id="layer1"
     transform="translate(0,3)">
    <g
       id="g1010">
      <ellipse
         style="fill:url(#radialGradient1004);fill-opacity:1;stroke-width:0.281836"
         id="path367"
         cx="151.38092"
         cy="147.63924"
         rx="150.16803"
         ry="149.21634" />
      <g
         id="g1674"
         transform="matrix(0.7075588,0,0,0.71800391,47.284981,38.841731)"
         style="fill:#ffffff">
        <path
           style="fill:#ffffff;stroke-width:0.264583"
           id="path1668"
           d="m 31.675485,30.412609 c 2.551054,9.557687 4.297577,19.306313 6.548054,28.93541 0.649057,2.777117 1.354836,5.540669 2.032256,8.311002 3.191801,12.933595 6.608935,25.816546 10.321259,38.611149 1.847976,6.3691 3.765385,12.71791 5.614071,19.08681 0.87017,2.77279 1.699721,5.55866 2.610507,8.31838 2.429181,7.36051 5.315582,14.48989 8.623818,21.49861 2.31145,4.89697 3.4896,7.01707 5.95975,11.70642 0.920367,1.61943 1.827861,3.24623 2.761097,4.85828 1.958572,3.38317 2.982359,5.12039 5.176599,8.34313 3.043298,4.46977 6.418699,8.67952 9.78453,12.90617 6.284385,7.04582 13.009164,13.84195 20.701184,19.36905 1.25771,0.90372 2.57661,1.71909 3.86491,2.57863 5.67238,2.90183 34.24069,25.18849 50.96638,23.8941 1.76498,-0.1366 3.49266,-0.58016 5.23875,-0.87159 1.87041,-0.31219 3.74052,-0.6262 5.61078,-0.93929 8.87934,-1.89842 17.6791,-4.3025 26.0165,-7.94353 1.38346,-0.60417 2.73335,-1.28247 4.10003,-1.92371 4.91552,-2.66562 9.68423,-5.71108 13.82227,-9.49762 2.26987,-2.07706 3.46527,-3.49431 5.52557,-5.75962 3.26266,-4.29222 6.50203,-8.79595 8.5212,-13.8409 1.25277,-3.13008 1.57575,-5.12291 2.33967,-8.42088 2.25347,-11.82814 3.04058,-23.88266 3.74539,-35.88456 0.76722,-12.0694 1.35213,-24.15008 2.1985,-36.21442 0.36852,-4.32081 0.96315,-8.61672 1.48455,-12.92057 -0.0214,-1.91395 0.0709,-1.2173 -0.71906,-3.96906 -1.59602,-5.559605 -1.60561,-4.460332 -3.3142,-10.807647 -1.86822,-6.940333 -1.92137,-8.17345 -3.19508,-15.349902 -1.12596,-9.790192 -0.71508,-5.044125 -1.28365,-14.233692 0,0 -33.90396,-16.820798 -33.90396,-16.820798 v 0 c 1.44391,9.607392 0.74945,4.683326 2.07036,14.774027 0.9864,8.926327 2.29002,17.893051 1.99821,26.8933 0.56207,4.772535 1.14003,9.546296 1.44688,14.343692 0.57425,12.30325 0.70583,24.64093 -0.22198,36.93258 -0.23156,2.30612 -0.42567,4.61631 -0.69469,6.91837 -0.70199,6.00698 -1.74613,11.95281 -2.86467,17.89326 -0.30645,1.62753 -0.58392,3.26118 -0.93678,4.87929 -0.32643,1.49693 -0.73361,2.97511 -1.10041,4.46267 -1.04202,3.72662 -2.0961,7.43102 -3.83222,10.91146 -1.70835,3.42477 -3.97882,6.51447 -6.45192,9.41971 -0.82069,0.91281 -1.60773,1.85703 -2.46206,2.73841 -4.52937,4.6728 -9.90381,8.44298 -15.64042,11.48077 -1.25372,0.6343 -2.49137,1.30141 -3.76114,1.90291 -7.81888,3.70381 -16.11537,6.3657 -24.69402,7.57958 -5.21182,0.54922 -5.98364,0.89032 -11.22513,0.40761 -2.74495,-0.2528 -5.58169,-0.96724 -8.17792,-1.88088 -10.98277,-3.86497 -35.595465,-20.23126 26.4324,16.17948 -1.43476,-0.8123 -2.90449,-1.5657 -4.30428,-2.4369 -8.02524,-4.99471 -15.00228,-11.57363 -21.37578,-18.49698 -1.13572,-1.41044 -2.29686,-2.80078 -3.40716,-4.23132 -5.41208,-6.97311 -10.35151,-14.31473 -15.25731,-21.64574 -1.1643,-1.86057 -2.37969,-3.69014 -3.49292,-5.58171 C 98.083509,165.33707 92.834594,152.94782 88.181221,140.42106 85.408068,132.55804 84.109644,129.23002 81.772465,121.12923 78.205652,108.76646 75.789239,96.116302 73.171771,83.531282 72.63971,80.874641 72.052187,78.228508 71.575588,75.561358 70.593838,70.067256 70.212304,67.037433 69.805962,61.57107 c -0.241361,-3.246956 -0.415655,-6.136558 -0.102058,-9.350981 0.07289,-0.747133 0.289483,-1.47319 0.434226,-2.209784 0,0 -38.462645,-19.597696 -38.462645,-19.597696 z" />
        <path
           style="fill:#ffffff;stroke-width:0.264583"
           id="path1670"
           d="m 214.13423,100.37893 c 0.9111,8.52666 1.33699,17.09443 1.85851,25.65036 0.2372,3.89127 0.57926,7.7768 0.74272,11.67186 0.173,4.12222 0.17765,8.24979 0.26647,12.37469 -0.0174,4.09094 0.007,8.18227 -0.0523,12.27281 -0.0733,5.05368 -0.45846,17.04689 -0.6381,22.26446 -0.29911,8.68765 -0.64546,17.36569 -1.1562,26.04324 -0.26829,4.61821 -0.82275,9.20999 -1.33712,13.80451 -0.17938,1.6023 -0.40142,2.90474 -0.24529,4.50838 0.0691,0.70979 0.26078,1.40223 0.39117,2.10335 0.91643,3.79927 2.78741,7.24522 4.56788,10.68995 1.27098,2.45901 2.55445,4.91154 3.82969,7.36833 2.16761,4.53956 1.17784,2.34151 2.99275,6.58352 0,0 37.20979,16.92847 37.20979,16.92847 v 0 c -2.31292,-4.47141 -1.14223,-2.17165 -3.50743,-6.90158 -2.56246,-5.38749 -5.19876,-10.76011 -7.00028,-16.46264 -0.30438,-0.87512 -1.00454,-2.83728 -1.22813,-3.69921 -1.53209,-5.90638 -1.79951,-12.07521 -2.5537,-18.09995 -0.20903,-2.64088 -0.45584,-5.27904 -0.62711,-7.92264 -0.46424,-7.16566 -0.59967,-12.12041 -0.80466,-19.3751 -0.16434,-5.81618 -0.44305,-17.1109 -0.45962,-22.81078 -0.0119,-4.07691 0.0758,-8.15351 0.11364,-12.23026 0.59213,-14.02678 0.16605,-9.35672 1.57427,-22.6701 0.68614,-6.48681 1.26998,-13.15629 3.03465,-19.47107 0.23795,-0.85147 0.61591,-1.65745 0.92386,-2.48618 0,0 -37.89542,-20.13442 -37.89542,-20.13442 z" />
      </g>
    </g>
  </g>
</svg>
