<?xml version="1.0" encoding="UTF-8" standalone="no"?>
<!-- Created with Inkscape (http://www.inkscape.org/) -->

<svg
   width="300mm"
   height="300mm"
   viewBox="0 0 300 300"
   version="1.1"
   id="svg8"
   inkscape:version="1.2.2 (b0a8486541, 2022-12-01)"
   sodipodi:docname="vOrig.svg"
   xmlns:inkscape="http://www.inkscape.org/namespaces/inkscape"
   xmlns:sodipodi="http://sodipodi.sourceforge.net/DTD/sodipodi-0.dtd"
   xmlns="http://www.w3.org/2000/svg"
   xmlns:svg="http://www.w3.org/2000/svg"
   xmlns:rdf="http://www.w3.org/1999/02/22-rdf-syntax-ns#"
   xmlns:cc="http://creativecommons.org/ns#"
   xmlns:dc="http://purl.org/dc/elements/1.1/">
  <defs
     id="defs2" />
  <sodipodi:namedview
     id="base"
     pagecolor="#ffffff"
     bordercolor="#666666"
     borderopacity="1.0"
     inkscape:pageopacity="0.0"
     inkscape:pageshadow="2"
     inkscape:zoom="0.48892506"
     inkscape:cx="569.61695"
     inkscape:cy="485.75951"
     inkscape:document-units="mm"
     inkscape:current-layer="layer1"
     showgrid="false"
     inkscape:window-width="1920"
     inkscape:window-height="1043"
     inkscape:window-x="0"
     inkscape:window-y="0"
     inkscape:window-maximized="1"
     inkscape:showpageshadow="2"
     inkscape:pagecheckerboard="0"
     inkscape:deskcolor="#d1d1d1" />
  <metadata
     id="metadata5">
    <rdf:RDF>
      <cc:Work
         rdf:about="">
        <dc:format>image/svg+xml</dc:format>
        <dc:type
           rdf:resource="http://purl.org/dc/dcmitype/StillImage" />
      </cc:Work>
    </rdf:RDF>
  </metadata>
  <g
     inkscape:label="Layer 1"
     inkscape:groupmode="layer"
     id="layer1"
     transform="translate(0,3)">
    <g
       id="g1706"
       transform="translate(4.2333335,-3.7041668)">
      <path
         style="fill:#000000;stroke-width:0.264583"
         id="path1700"
         d="m 29.354658,50.051302 c 1.669222,2.124297 3.298145,4.280887 5.007665,6.372892 10.580421,12.947639 7.739518,8.583186 18.178793,22.884018 6.633345,9.087062 11.661595,16.584573 17.599044,26.116058 2.639412,4.23709 5.137896,8.56036 7.706844,12.84053 11.151968,19.00912 20.817826,39.00451 28.914726,59.50481 1.18745,3.00649 2.27739,6.05058 3.41609,9.07587 2.43078,6.86444 4.96859,13.69705 6.78605,20.75752 0.96554,3.75095 1.61799,7.56086 2.25941,11.37605 0.58211,3.73234 0.78978,7.51836 0.75518,11.29258 0,0 38.15938,19.30414 38.15938,19.30414 v 0 c -0.10555,-1.67822 -0.20048,-3.38315 -0.43081,-5.04929 -0.36171,-2.61655 -1.07506,-5.17166 -1.60241,-7.75514 -0.31728,-1.18794 -0.57838,-2.39231 -0.95183,-3.5638 -0.85613,-2.68566 -2.61568,-6.945 -3.61668,-9.42047 -3.04286,-7.52507 -6.07022,-15.06535 -9.65093,-22.35657 C 130.6272,177.42044 119.0949,153.49963 105.69733,130.59186 96.786746,116.06292 98.597036,118.82714 89.290569,104.41221 81.494192,92.336285 73.048894,80.484179 67.28216,67.24884 c 0,0 -37.927502,-17.197538 -37.927502,-17.197538 z" />
      <path
         style="fill:#000000;stroke-width:0.264583"
         id="path1702"
         d="m 164.95112,264.19503 c -0.011,-0.65471 -0.0728,-1.31056 -0.033,-1.96413 0.0782,-1.28476 0.24519,-2.56266 0.38669,-3.84199 0.24553,-2.2199 0.43837,-4.44739 0.77437,-6.6554 0.84996,-5.58533 2.52101,-13.65248 3.83739,-18.97636 0.92171,-3.72768 2.01299,-7.41138 3.01948,-11.11707 4.2527,-13.51393 9.24375,-26.84298 15.42412,-39.60307 1.30532,-2.69499 2.73912,-5.3259 4.08752,-7.99959 1.35116,-2.67915 2.67403,-5.37247 4.01104,-8.0587 1.33312,-2.75352 2.68658,-5.49727 3.99937,-8.26054 1.36762,-2.8787 2.75441,-5.74939 4.04165,-8.66493 2.91051,-6.59222 5.5169,-13.31524 8.38177,-19.92744 4.43677,-10.24024 4.17544,-9.43994 8.9283,-19.22326 3.37513,-7.24575 7.25571,-14.226737 11.10543,-21.223333 2.44752,-4.448183 4.78993,-8.95282 7.22018,-13.410422 1.84729,-3.214333 3.59099,-6.491272 5.21128,-9.825699 0,0 -36.94801,-20.449622 -36.94801,-20.449622 v 0 c -0.83537,3.598325 -1.98406,7.094813 -3.21927,10.575832 -1.7157,4.839454 -3.54575,9.634093 -5.29885,14.460194 -1.09696,3.019779 -4.09006,11.378451 -5.10133,14.089528 -1.08208,2.900886 -2.20784,5.785286 -3.31176,8.677931 -3.53752,8.605231 -4.41268,10.961361 -8.3388,19.558411 -5.55339,12.16031 -12.02702,23.85525 -17.89788,35.86055 -3.12443,6.35689 -5.02801,9.95713 -7.71804,16.53312 -5.43713,13.29147 -9.28706,27.1611 -14.18688,40.64577 -3.26239,9.03611 -4.06503,11.5687 -7.61209,20.2465 -2.51806,6.16039 -5.17521,12.37765 -9.04721,17.83345 0,0 38.28456,20.72027 38.28456,20.72027 z" />
    </g>
  </g>
</svg>
