<?xml version="1.0" encoding="UTF-8" standalone="no"?>
<!-- Created with Inkscape (http://www.inkscape.org/) -->

<svg
   width="300mm"
   height="300mm"
   viewBox="0 0 300 300"
   version="1.1"
   id="svg8"
   inkscape:version="1.2.2 (b0a8486541, 2022-12-01)"
   sodipodi:docname="wGrad.svg"
   xmlns:inkscape="http://www.inkscape.org/namespaces/inkscape"
   xmlns:sodipodi="http://sodipodi.sourceforge.net/DTD/sodipodi-0.dtd"
   xmlns:xlink="http://www.w3.org/1999/xlink"
   xmlns="http://www.w3.org/2000/svg"
   xmlns:svg="http://www.w3.org/2000/svg"
   xmlns:rdf="http://www.w3.org/1999/02/22-rdf-syntax-ns#"
   xmlns:cc="http://creativecommons.org/ns#"
   xmlns:dc="http://purl.org/dc/elements/1.1/">
  <defs
     id="defs2">
    <linearGradient
       inkscape:collect="always"
       id="linearGradient1006">
      <stop
         style="stop-color:#d81bd2;stop-opacity:1;"
         offset="0.15966766"
         id="stop1002" />
      <stop
         style="stop-color:#d81bd2;stop-opacity:0;"
         offset="1"
         id="stop1004" />
    </linearGradient>
    <radialGradient
       inkscape:collect="always"
       xlink:href="#linearGradient1006"
       id="radialGradient1008"
       cx="147.74924"
       cy="156.05086"
       fx="147.74924"
       fy="156.05086"
       r="143.63603"
       gradientTransform="matrix(1.0331904,0,0,1.0403693,-6.4961017,-15.16954)"
       gradientUnits="userSpaceOnUse" />
  </defs>
  <sodipodi:namedview
     id="base"
     pagecolor="#ffffff"
     bordercolor="#666666"
     borderopacity="1.0"
     inkscape:pageopacity="0.0"
     inkscape:pageshadow="2"
     inkscape:zoom="0.48892506"
     inkscape:cx="570.6396"
     inkscape:cy="487.80482"
     inkscape:document-units="mm"
     inkscape:current-layer="layer1"
     showgrid="false"
     inkscape:window-width="1920"
     inkscape:window-height="1043"
     inkscape:window-x="0"
     inkscape:window-y="0"
     inkscape:window-maximized="1"
     inkscape:showpageshadow="2"
     inkscape:pagecheckerboard="0"
     inkscape:deskcolor="#d1d1d1" />
  <metadata
     id="metadata5">
    <rdf:RDF>
      <cc:Work
         rdf:about="">
        <dc:format>image/svg+xml</dc:format>
        <dc:type
           rdf:resource="http://purl.org/dc/dcmitype/StillImage" />
      </cc:Work>
    </rdf:RDF>
  </metadata>
  <g
     inkscape:label="Layer 1"
     inkscape:groupmode="layer"
     id="layer1"
     transform="translate(0,3)">
    <g
       id="g1016">
      <ellipse
         style="fill:url(#radialGradient1008);fill-opacity:1;stroke-width:0.281326"
         id="path371"
         cx="146.15701"
         cy="147.18098"
         rx="148.40338"
         ry="149.43451" />
      <g
         id="g1752"
         transform="matrix(0.58804669,0,0,0.67472206,61.042917,55.037972)"
         style="fill:#ffffff">
        <path
           style="fill:#ffffff;stroke-width:0.264583"
           id="path1740"
           d="m 5.4534088,56.361691 c 0.8791408,1.192451 1.7416335,2.397355 2.6374227,3.577349 4.8977035,6.451587 3.1158285,3.802309 8.2127525,10.828909 2.381368,3.282942 6.498918,9.191823 8.712848,12.566938 1.443126,2.200032 2.815133,4.4459 4.222701,6.66885 5.620313,9.488175 10.992733,19.152813 15.737051,29.113793 1.764165,3.70397 4.337868,9.66517 6.003497,13.47261 0.78986,1.97882 1.593058,3.95236 2.369579,5.93645 1.826244,4.66623 2.611937,6.68301 4.131003,11.42586 1.900907,5.93503 3.46198,11.97605 5.075793,17.99288 0.671208,2.37181 1.352714,4.74074 2.013627,7.11544 2.268964,8.15251 1.838436,7.18277 4.556623,15.57332 2.786223,8.60057 5.978945,17.03005 9.249256,25.45469 3.766487,9.63406 7.522202,19.27504 11.041599,29.0027 0,0 37.503729,17.08063 37.503729,17.08063 v 0 c -2.11798,-3.73632 -4.09544,-7.53202 -6.08144,-11.3402 -3.37687,-6.47517 -6.78133,-12.94014 -9.75875,-19.61354 -2.98756,-7.29403 -3.8946,-9.16132 -6.39115,-16.64716 -3.28317,-9.84457 -5.513113,-19.99657 -7.719365,-30.12372 -0.799931,-3.58268 -1.90617,-8.72681 -2.86688,-12.29513 -2.228323,-8.27654 -5.277569,-16.30863 -9.037354,-24.00996 -7.033509,-14.54422 -14.069684,-29.10583 -22.001985,-43.18741 -1.32941,-2.23708 -2.615946,-4.50021 -3.988231,-6.711253 -4.968947,-8.006021 -10.780313,-15.567665 -14.688011,-24.187104 0,0 -38.9343152,-17.694942 -38.9343152,-17.694942 z" />
        <path
           style="fill:#ffffff;stroke-width:0.264583"
           id="path1742"
           d="m 139.58086,256.50286 c -0.0218,-0.62522 -0.0701,-1.25009 -0.0654,-1.87568 0.0167,-2.20369 0.14275,-4.40543 0.17368,-6.60896 0.0659,-4.69313 -0.016,-5.1401 0.24838,-9.9965 0.0996,-1.83054 0.25629,-3.65753 0.38444,-5.48629 0.53779,-6.82968 1.03771,-13.67871 1.99843,-20.46612 0.49025,-3.46356 2.33339,-13.71646 2.87998,-16.99427 0.52266,-3.13431 1.00752,-6.27481 1.51128,-9.41221 2.28455,-10.75941 4.6131,-21.53577 7.71696,-32.09514 1.12146,-3.81521 2.14512,-6.84407 3.37113,-10.57564 0.97151,-3.15722 2.05186,-6.28256 3.37126,-9.31246 0.59753,-1.3722 0.97167,-1.90187 1.36223,-3.33066 0.1788,-0.65411 0.27554,-1.32793 0.41332,-1.9919 0.5979,-3.63378 1.06383,-7.28497 1.67244,-10.91736 0,0 -36.53919,-19.41332 -36.53919,-19.41332 v 0 c -0.61641,3.45189 -1.21088,6.92729 -2.34562,10.25607 -1.44169,5.23655 -1.83868,10.67203 -2.6461,16.02907 -2.05197,14.96137 -4.87893,29.80542 -7.77177,44.62327 -0.64075,3.04023 -1.24765,6.08779 -1.92225,9.12069 -2.69354,12.1097 -6.09212,24.08238 -7.76758,36.39821 -0.56284,4.90656 -1.16515,9.76995 -2.13307,14.61603 -0.34631,1.73389 -0.76815,3.8474 -1.40922,5.54316 -0.20101,0.53173 -0.49891,1.02159 -0.74837,1.53239 0,0 38.24503,20.35762 38.24503,20.35762 z" />
        <path
           style="fill:#ffffff;stroke-width:0.264583"
           id="path1744"
           d="m 137.51202,111.66052 c 3.70428,14.27144 4.41514,29.03898 5.24136,43.68864 0.63301,11.82811 0.81329,23.67009 1.00134,35.51087 0.11922,7.50624 0.35401,15.01104 0.39344,22.51812 0.0158,3.00233 -0.0598,6.00443 -0.0897,9.00665 -0.0388,7.02683 -0.61792,14.04801 -0.35347,21.0748 0,0 38.03289,18.17977 38.03289,18.17977 v 0 c -0.32038,-0.67732 -0.68885,-1.33391 -0.96114,-2.03195 -2.6435,-6.77679 -3.503,-14.14012 -4.84752,-21.22888 -0.41076,-3.20554 -0.9097,-6.40102 -1.23229,-9.61664 -0.87333,-8.70551 -1.00651,-14.00711 -1.21899,-22.81521 -0.28148,-11.66862 -0.1476,-23.33168 0.0437,-35.00067 0.0915,-5.6707 0.19357,-14.10514 0.41247,-19.86627 0.22575,-5.94151 0.44529,-12.06751 1.6635,-17.91724 0.12894,-0.61916 0.36762,-1.21029 0.55143,-1.81544 0,0 -38.63703,-19.68655 -38.63703,-19.68655 z" />
        <path
           style="fill:#ffffff;stroke-width:0.264583"
           id="path1746"
           d="m 195.8144,268.04271 c 3.49549,-3.23638 6.32972,-7.07129 8.90223,-11.06363 3.95775,-6.1421 5.74001,-9.4701 8.62915,-16.48143 1.59021,-3.8591 2.90318,-7.82671 4.35477,-11.74006 3.65949,-11.82264 5.90485,-18.52655 8.94419,-30.82738 1.72351,-6.97536 3.09095,-14.03456 4.75021,-21.02549 1.858,-7.82828 3.75856,-15.64761 5.801,-23.42981 5.38147,-20.50473 7.60552,-27.17785 13.7088,-47.32724 5.59037,-17.700461 12.06145,-35.114635 19.36969,-52.175801 3.34976,-7.820057 7.06657,-15.456874 10.7587,-23.116688 2.18527,-4.443355 1.18448,-2.428899 2.99418,-6.047399 0,0 -36.56408,-19.7216955 -36.56408,-19.7216955 v 0 c -0.10371,4.3993373 -0.005,1.9582119 -0.35797,7.3206265 -0.6043,6.03481 -0.82179,8.68971 -1.71408,15.092868 -3.19584,22.93366 -8.05806,45.618662 -14.02233,67.985634 -5.8348,20.821485 -7.14313,26.514595 -14.07623,47.104045 -6.68638,19.85675 -8.10857,22.77041 -15.841,41.43669 -7.61966,18.39405 -4.721,11.7201 -12.52098,28.4743 -1.96149,3.50725 -3.76984,7.10464 -5.88446,10.52175 -4.96355,8.02084 -11.29207,16.34573 -19.98009,20.58692 -0.94022,0.45898 -1.96266,0.72571 -2.94399,1.08857 0,0 35.69229,23.34522 35.69229,23.34522 z" />
      </g>
    </g>
  </g>
</svg>
