<?xml version="1.0" encoding="UTF-8" standalone="no"?>
<!-- Created with Inkscape (http://www.inkscape.org/) -->

<svg
   width="300mm"
   height="300mm"
   viewBox="0 0 300 300"
   version="1.1"
   id="svg8"
   inkscape:version="1.2.2 (b0a8486541, 2022-12-01)"
   sodipodi:docname="xOrig.svg"
   xmlns:inkscape="http://www.inkscape.org/namespaces/inkscape"
   xmlns:sodipodi="http://sodipodi.sourceforge.net/DTD/sodipodi-0.dtd"
   xmlns="http://www.w3.org/2000/svg"
   xmlns:svg="http://www.w3.org/2000/svg"
   xmlns:rdf="http://www.w3.org/1999/02/22-rdf-syntax-ns#"
   xmlns:cc="http://creativecommons.org/ns#"
   xmlns:dc="http://purl.org/dc/elements/1.1/">
  <defs
     id="defs2" />
  <sodipodi:namedview
     id="base"
     pagecolor="#ffffff"
     bordercolor="#666666"
     borderopacity="1.0"
     inkscape:pageopacity="0.0"
     inkscape:pageshadow="2"
     inkscape:zoom="0.48892506"
     inkscape:cx="569.61695"
     inkscape:cy="485.75951"
     inkscape:document-units="mm"
     inkscape:current-layer="layer1"
     showgrid="false"
     inkscape:window-width="1920"
     inkscape:window-height="1043"
     inkscape:window-x="0"
     inkscape:window-y="0"
     inkscape:window-maximized="1"
     inkscape:showpageshadow="2"
     inkscape:pagecheckerboard="0"
     inkscape:deskcolor="#d1d1d1" />
  <metadata
     id="metadata5">
    <rdf:RDF>
      <cc:Work
         rdf:about="">
        <dc:format>image/svg+xml</dc:format>
        <dc:type
           rdf:resource="http://purl.org/dc/dcmitype/StillImage" />
      </cc:Work>
    </rdf:RDF>
  </metadata>
  <g
     inkscape:label="Layer 1"
     inkscape:groupmode="layer"
     id="layer1"
     transform="translate(0,3)">
    <g
       id="g1786"
       transform="translate(-5.2916669,1.0583333)">
      <path
         style="fill:#000000;stroke-width:0.264583"
         id="path1780"
         d="m 240.68506,55.485664 c -1.5669,2.04316 -0.005,0.05387 -2.38465,2.853438 -3.83911,4.517406 -3.72656,4.741119 -8.79092,9.598657 -8.02199,7.694375 -11.91384,10.5795 -20.94724,18.037297 -5.36262,4.212246 -10.59245,8.599262 -16.08786,12.636733 -18.72356,13.756171 -38.64125,25.759491 -58.58309,37.630491 -10.756,6.40284 -21.5604,12.72404 -32.33151,19.10145 -10.430243,6.27015 -20.917688,12.47794 -31.021353,19.2718 -3.462703,2.32837 -8.571132,5.95996 -11.903458,8.68038 -1.503154,1.22713 -2.913351,2.56391 -4.370028,3.84587 -1.283613,1.28601 -2.573068,2.56622 -3.850838,3.85803 -1.202577,1.2158 -2.375258,2.4612 -3.590126,3.66471 -3.203136,3.17319 -6.586379,6.15705 -9.929358,9.18001 -1.496933,1.42138 -2.623865,3.15699 -3.815834,4.82603 0,0 36.33362,21.47434 36.33362,21.47434 v 0 c 1.135113,-1.5524 2.327844,-3.05611 3.46465,-4.60717 4.264033,-6.47521 9.163548,-12.46889 14.586953,-18.0166 4.28376,-4.75309 8.596691,-9.47855 13.162262,-13.96622 8.07138,-7.93365 16.54949,-15.45582 25.27399,-22.66122 11.72646,-9.20764 15.80489,-12.6134 28.36387,-21.55988 25.06665,-17.85641 51.38363,-33.94576 79.01272,-47.53849 14.57112,-7.899531 29.08572,-15.969545 44.11717,-22.971097 0,0 -36.70897,-23.338559 -36.70897,-23.338559 z" />
      <path
         style="fill:#000000;stroke-width:0.264583"
         id="path1782"
         d="m 13.722719,43.69373 c 0.61017,0.585732 1.204624,1.188286 1.830509,1.75719 3.476118,3.159662 7.016757,6.247667 10.541239,9.353288 6.812251,6.00266 11.137977,9.819606 18.392026,15.725658 4.184928,3.407257 8.45198,6.712384 12.677971,10.068576 31.076537,24.057608 62.226896,48.017478 93.572016,71.724138 12.90574,9.27441 15.79998,11.56495 28.78211,20.10552 4.16807,2.74205 8.33656,5.48984 12.6249,8.03971 12.69032,7.54578 25.48234,14.9203 38.303,22.24245 3.78178,2.15985 7.64154,4.18126 11.49995,6.20106 3.56327,1.8653 7.17551,3.63551 10.76326,5.45327 15.6109,7.76648 31.64163,14.63155 47.38148,22.12411 0,0 -28.85144,-22.89857 -28.85144,-22.89857 v 0 c -15.01781,-6.41862 -30.08824,-12.73428 -44.65841,-20.1401 -3.42427,-1.71763 -6.86402,-3.40474 -10.27282,-5.15287 -3.49102,-1.79029 -13.50169,-7.89743 -10.42583,-5.46198 4.32544,3.42484 8.72265,8.91544 14.22158,8.46742 5.44217,-0.44339 -9.38933,-5.57862 -14.01207,-8.48449 -14.54363,-9.14218 -16.00004,-10.46312 -30.22908,-20.51142 -5.21221,-3.83251 -10.4499,-7.6306 -15.63663,-11.49753 C 134.81746,131.86565 109.80789,112.3724 85.50707,92.023209 76.024162,83.835775 75.254656,83.439779 66.845094,75.260672 63.754706,72.254974 59.568055,67.991189 56.663939,64.56442 56.35105,64.195223 54.460033,61.65013 53.754001,60.702035 c 0,0 -40.031282,-17.008305 -40.031282,-17.008305 z" />
    </g>
  </g>
</svg>
