<?xml version="1.0" encoding="UTF-8" standalone="no"?>
<!-- Created with Inkscape (http://www.inkscape.org/) -->

<svg
   width="300mm"
   height="300mm"
   viewBox="0 0 300 300"
   version="1.1"
   id="svg8"
   inkscape:version="1.2.2 (b0a8486541, 2022-12-01)"
   sodipodi:docname="yOrig.svg"
   xmlns:inkscape="http://www.inkscape.org/namespaces/inkscape"
   xmlns:sodipodi="http://sodipodi.sourceforge.net/DTD/sodipodi-0.dtd"
   xmlns="http://www.w3.org/2000/svg"
   xmlns:svg="http://www.w3.org/2000/svg"
   xmlns:rdf="http://www.w3.org/1999/02/22-rdf-syntax-ns#"
   xmlns:cc="http://creativecommons.org/ns#"
   xmlns:dc="http://purl.org/dc/elements/1.1/">
  <defs
     id="defs2" />
  <sodipodi:namedview
     id="base"
     pagecolor="#ffffff"
     bordercolor="#666666"
     borderopacity="1.0"
     inkscape:pageopacity="0.0"
     inkscape:pageshadow="2"
     inkscape:zoom="0.48892506"
     inkscape:cx="569.61695"
     inkscape:cy="485.75951"
     inkscape:document-units="mm"
     inkscape:current-layer="layer1"
     showgrid="false"
     inkscape:window-width="1920"
     inkscape:window-height="1043"
     inkscape:window-x="0"
     inkscape:window-y="0"
     inkscape:window-maximized="1"
     inkscape:showpageshadow="2"
     inkscape:pagecheckerboard="0"
     inkscape:deskcolor="#d1d1d1" />
  <metadata
     id="metadata5">
    <rdf:RDF>
      <cc:Work
         rdf:about="">
        <dc:format>image/svg+xml</dc:format>
        <dc:type
           rdf:resource="http://purl.org/dc/dcmitype/StillImage" />
      </cc:Work>
    </rdf:RDF>
  </metadata>
  <g
     inkscape:label="Layer 1"
     inkscape:groupmode="layer"
     id="layer1"
     transform="translate(0,3)">
    <g
       id="g1818"
       transform="translate(-10.054167,-14.287503)">
      <path
         style="fill:#000000;stroke-width:0.264583"
         id="path1812"
         d="m 58.948057,34.533725 c 1.134057,1.088673 2.317946,2.127708 3.402172,3.266017 4.452149,4.674237 8.063269,9.079828 12.168227,14.149361 5.287047,6.52939 10.973114,13.817168 15.986445,20.532666 2.697969,3.614007 5.315423,7.287429 7.973133,10.931144 11.710456,16.847917 24.127876,33.216177 35.414436,50.357617 1.5863,2.40919 3.10906,4.85964 4.66359,7.28945 2.69716,4.25086 5.09798,8.6701 7.37962,13.15256 0,0 36.95954,16.24199 36.95954,16.24199 v 0 c -3.83919,-5.07767 -7.71879,-10.12419 -11.60291,-15.16759 -14.81462,-19.46261 -29.32589,-39.1474 -43.42445,-59.136766 -5.25057,-7.427926 -9.659,-13.593519 -14.7643,-21.087802 -4.72015,-6.928908 -9.40616,-13.910699 -13.394149,-21.29536 -0.464717,-0.860533 -0.867495,-1.753105 -1.301242,-2.629656 0,0 -39.460112,-16.603631 -39.460112,-16.603631 z" />
      <path
         style="fill:#000000;stroke-width:0.264583"
         id="path1814"
         d="m 211.9452,41.315266 c -0.29278,0.497893 -0.61006,0.982165 -0.87833,1.493678 -0.44273,0.844151 -0.82109,1.72075 -1.25314,2.570414 -1.42236,2.79717 -2.39304,4.318397 -3.62665,7.349466 -0.76242,1.873322 -3.79641,10.690987 -4.36218,12.318942 -5.11271,13.998646 -9.95779,28.091886 -14.30317,42.347564 -2.19977,7.00575 -4.14762,14.08377 -6.04074,21.17694 -0.63708,2.38702 -1.33756,4.75824 -1.90353,7.16312 -0.81768,3.47443 -2.59836,12.79605 -3.26785,16.2312 -1.55152,7.93216 -3.23935,15.84071 -5.17158,23.68963 -0.566,2.29917 -1.22928,4.57403 -1.77446,6.87822 -1.33592,5.64626 -1.70566,8.14196 -2.74049,13.87553 -1.69422,10.78484 -2.97037,21.63165 -4.28134,32.46837 -0.36505,3.01755 -0.66308,6.04408 -1.1005,9.05199 -0.40259,2.76843 -0.94585,5.51457 -1.41877,8.27186 -1.85506,8.76756 -3.94323,17.4991 -6.37619,26.12605 -0.40697,0.86482 -0.74637,3.15863 -1.60425,3.82863 -0.0957,0.0747 -0.30679,-0.0418 -0.37797,-0.0705 -0.13157,0.0329 -0.26314,0.0658 -0.39472,0.0987 0,0 36.36678,23.6652 36.36678,23.6652 v 0 c 0.26524,-0.19129 0.53048,-0.38259 0.79572,-0.57388 0.24825,-0.26728 0.52448,-0.51104 0.74477,-0.80179 1.43011,-1.88757 1.25785,-4.37296 1.40436,-6.603 0.41811,-9.56622 0.86708,-19.13786 1.6464,-28.68197 0.32507,-2.84504 0.60075,-5.69616 0.97521,-8.53513 1.79237,-13.58914 4.41907,-27.05138 6.8299,-40.53836 2.92725,-14.9564 5.51113,-29.97947 8.69719,-44.88479 0.60226,-2.67891 1.14346,-5.37229 1.80678,-8.03674 0.63605,-2.55486 1.39461,-5.07765 2.09027,-7.61693 2.57875,-9.41283 5.06678,-18.85402 7.91147,-28.19103 4.49077,-14.05956 8.26346,-28.415724 14.60427,-41.80445 0.95634,-1.991291 1.82327,-4.028051 2.86903,-5.973874 1.86081,-3.462393 3.25394,-5.411795 5.63451,-8.379274 1.4694,-1.831671 2.99684,-3.764926 5.20272,-4.733523 0,0 -36.70352,-23.180193 -36.70352,-23.180193 z" />
    </g>
  </g>
</svg>
