<?xml version="1.0" encoding="UTF-8" standalone="no"?>
<!-- Created with Inkscape (http://www.inkscape.org/) -->

<svg
   width="300mm"
   height="300mm"
   viewBox="0 0 300 300"
   version="1.1"
   id="svg8"
   inkscape:version="1.2.2 (b0a8486541, 2022-12-01)"
   sodipodi:docname="zOrig.svg"
   xmlns:inkscape="http://www.inkscape.org/namespaces/inkscape"
   xmlns:sodipodi="http://sodipodi.sourceforge.net/DTD/sodipodi-0.dtd"
   xmlns="http://www.w3.org/2000/svg"
   xmlns:svg="http://www.w3.org/2000/svg"
   xmlns:rdf="http://www.w3.org/1999/02/22-rdf-syntax-ns#"
   xmlns:cc="http://creativecommons.org/ns#"
   xmlns:dc="http://purl.org/dc/elements/1.1/">
  <defs
     id="defs2" />
  <sodipodi:namedview
     id="base"
     pagecolor="#ffffff"
     bordercolor="#666666"
     borderopacity="1.0"
     inkscape:pageopacity="0.0"
     inkscape:pageshadow="2"
     inkscape:zoom="0.48892506"
     inkscape:cx="569.61695"
     inkscape:cy="485.75951"
     inkscape:document-units="mm"
     inkscape:current-layer="layer1"
     showgrid="false"
     inkscape:window-width="1920"
     inkscape:window-height="1043"
     inkscape:window-x="0"
     inkscape:window-y="0"
     inkscape:window-maximized="1"
     inkscape:showpageshadow="2"
     inkscape:pagecheckerboard="0"
     inkscape:deskcolor="#d1d1d1" />
  <metadata
     id="metadata5">
    <rdf:RDF>
      <cc:Work
         rdf:about="">
        <dc:format>image/svg+xml</dc:format>
        <dc:type
           rdf:resource="http://purl.org/dc/dcmitype/StillImage" />
      </cc:Work>
    </rdf:RDF>
  </metadata>
  <g
     inkscape:label="Layer 1"
     inkscape:groupmode="layer"
     id="layer1"
     transform="translate(0,3)">
    <g
       id="g1853"
       transform="translate(-17.489978,-0.14807065)">
      <path
         style="fill:#000000;stroke-width:0.264583"
         id="path1844"
         d="m 77.269995,71.18784 c 1.537219,0.561417 3.752149,1.38289 5.120905,1.786168 2.096434,0.617672 4.216958,1.150858 6.332497,1.699535 11.194103,2.903252 22.468553,5.404927 33.759083,7.900223 15.63737,3.322645 31.40947,5.996209 47.34184,7.394956 8.58127,0.753372 12.04623,0.809307 20.60783,1.179454 15.0203,0.207743 30.03194,0.566012 45.03256,1.369401 0,0 -30.95732,-22.485691 -30.95732,-22.485691 v 0 C 190.43498,70.96227 176.33144,71.15142 162.23844,70.480355 154.15108,70.141318 150.21507,70.04066 142.13057,69.442903 126.93101,68.319072 111.78164,66.338676 96.886777,63.069304 85.69004,60.343194 81.940841,59.66177 70.971055,56.062966 62.876771,53.407518 58.610388,51.58724 51.104858,48.364795 49.375567,47.622337 47.684012,46.79227 45.942723,46.078406 44.901159,45.6514 43.822056,45.322407 42.761722,44.944407 c 0,0 34.508273,26.243433 34.508273,26.243433 z" />
      <path
         style="fill:#000000;stroke-width:0.264583"
         id="path1846"
         d="m 227.08577,63.657873 c -0.3127,0.337746 -0.63921,0.66321 -0.9381,1.013235 -1.2696,1.486831 -2.42396,3.069344 -3.68853,4.560459 -1.21856,1.436864 -2.45431,2.859775 -3.7229,4.252674 -5.87691,6.452822 -6.54106,6.921667 -13.238,13.55825 -2.98681,2.757831 -5.94097,5.551445 -8.96043,8.273494 -16.94062,15.272015 -2.3634,1.631643 -19.61482,17.570845 -9.96004,9.20245 -19.7103,18.63176 -29.49853,28.01559 -2.95934,2.88657 -5.90398,5.78829 -8.87803,8.65971 -2.75576,2.66066 -5.49904,5.33528 -8.31116,7.93631 -7.70389,7.12561 -15.81775,13.77405 -23.91464,20.44081 -7.701401,5.90853 -13.959812,13.38221 -21.125914,19.87651 -1.968593,1.78404 -4.028491,3.46466 -6.042737,5.19699 -6.166067,4.6084 -6.513197,5.10779 -12.949102,9.01131 -1.845395,1.11928 -3.757814,2.12411 -5.636721,3.18617 0,0 32.332602,20.67991 32.332602,20.67991 v 0 c 5.695032,-4.56455 11.359072,-9.17822 17.362562,-13.33921 4.44457,-3.3206 8.32091,-6.18346 12.68889,-9.57141 4.49404,-3.48573 9.01953,-7.03375 13.07707,-11.03337 1.19345,-1.17641 2.30537,-2.43276 3.45805,-3.64915 6.51375,-7.73248 12.89002,-15.59758 19.59525,-23.16615 2.50238,-2.82457 5.07921,-5.58233 7.63025,-8.36304 2.74984,-2.9974 5.51489,-5.98082 8.27234,-8.97123 8.06114,-8.35861 10.1928,-10.77969 18.77858,-18.80786 7.98069,-7.46237 12.2681,-11.04108 20.65708,-17.99201 11.12486,-9.21783 8.70748,-7.19394 20.06546,-15.79841 3.1165,-2.1284 6.19062,-4.32021 9.34949,-6.385198 2.5426,-1.66212 5.1679,-3.194156 7.75058,-4.793287 3.96923,-2.457653 7.92211,-4.960088 12.00109,-7.232166 0,0 -36.49968,-23.129776 -36.49968,-23.129776 z" />
      <path
         style="fill:#000000;stroke-width:0.264583"
         id="path1848"
         d="m 60.128263,253.30584 c 0.585777,-0.004 1.172951,0.0298 1.757333,-0.0107 11.747551,-0.81575 -3.815024,-0.17998 13.499309,-0.93233 15.218746,-0.66129 30.447875,-0.80666 45.677725,-0.97081 25.99988,-0.31159 51.99656,0.30975 77.99216,0.65219 68.15659,0.89782 -29.99509,-0.54782 35.82425,0.44231 5.46022,0.11661 10.92082,0.2169 16.38066,0.34983 4.97391,0.1211 9.94626,0.30407 14.92047,0.41224 13.54955,0.29465 27.10556,0.34607 40.65783,0.37868 6.4321,-0.11026 3.46565,0.006 8.90133,-0.29227 0,0 -33.65963,-23.67854 -33.65963,-23.67854 v 0 c -3.86131,1.1423 -1.70919,0.56667 -6.47764,1.64535 -5.25177,0.94731 -7.31295,1.39354 -12.9565,2.03529 -16.90202,1.922 -33.9353,1.91724 -50.91741,2.32387 -29.45068,0.36803 -4.23412,0.0977 -34.80041,0.29222 -25.98558,0.16538 -51.98389,0.43569 -77.955633,-0.67592 -21.092684,-0.99119 -42.31318,-1.80097 -63.173289,-5.34292 -2.462917,-0.4182 -4.88859,-1.03273 -7.339425,-1.51671 -1.137658,-0.22466 -2.283439,-0.40602 -3.425158,-0.60904 0,0 35.094028,25.4973 35.094028,25.4973 z" />
    </g>
  </g>
</svg>
