<?xml version="1.0" encoding="UTF-8" standalone="no"?>
<!-- Created with Inkscape (http://www.inkscape.org/) -->

<svg
   width="300mm"
   height="300mm"
   viewBox="0 0 300 300"
   version="1.1"
   id="svg8"
   inkscape:version="1.2.2 (b0a8486541, 2022-12-01)"
   sodipodi:docname="projectHere.svg"
   xmlns:inkscape="http://www.inkscape.org/namespaces/inkscape"
   xmlns:sodipodi="http://sodipodi.sourceforge.net/DTD/sodipodi-0.dtd"
   xmlns="http://www.w3.org/2000/svg"
   xmlns:svg="http://www.w3.org/2000/svg"
   xmlns:rdf="http://www.w3.org/1999/02/22-rdf-syntax-ns#"
   xmlns:cc="http://creativecommons.org/ns#"
   xmlns:dc="http://purl.org/dc/elements/1.1/">
  <defs
     id="defs2" />
  <sodipodi:namedview
     id="base"
     pagecolor="#ffffff"
     bordercolor="#666666"
     borderopacity="1.0"
     inkscape:pageopacity="0.0"
     inkscape:pageshadow="2"
     inkscape:zoom="0.48892506"
     inkscape:cx="566.54899"
     inkscape:cy="481.66891"
     inkscape:document-units="mm"
     inkscape:current-layer="layer1"
     showgrid="false"
     inkscape:window-width="1920"
     inkscape:window-height="1043"
     inkscape:window-x="0"
     inkscape:window-y="0"
     inkscape:window-maximized="1"
     inkscape:showpageshadow="2"
     inkscape:pagecheckerboard="0"
     inkscape:deskcolor="#d1d1d1" />
  <metadata
     id="metadata5">
    <rdf:RDF>
      <cc:Work
         rdf:about="">
        <dc:format>image/svg+xml</dc:format>
        <dc:type
           rdf:resource="http://purl.org/dc/dcmitype/StillImage" />
        <dc:title />
      </cc:Work>
    </rdf:RDF>
  </metadata>
  <g
     inkscape:label="Layer 1"
     inkscape:groupmode="layer"
     id="layer1"
     transform="translate(0,3)">
    <g
       id="g136"
       transform="translate(0.158447,0.10794129)">
      <path
         inkscape:connector-curvature="0"
         d="m 42.327448,259.21874 c 0.428774,0.11088 0.851673,0.24767 1.286325,0.33265 1.787065,0.3494 3.599749,0.55414 5.392248,0.87449 1.340514,0.23958 2.672027,0.52819 4.013467,0.76252 3.227689,0.56384 6.468502,1.0498 9.701602,1.58172 11.732487,1.71079 23.489472,3.25302 35.217554,4.99586 10.004886,1.67185 2.424356,0.47202 12.381746,1.87129 5.89588,0.82855 6.11986,0.97962 12.01078,1.60057 3.03361,0.31975 8.41044,0.73385 11.47465,0.98036 8.95277,0.60733 17.85438,1.72204 26.7806,2.61454 4.13063,0.3539 8.27271,0.46738 12.41557,0.36631 3.11359,-0.12996 6.22494,0.0635 9.33717,0.14129 3.95763,0.0389 7.91456,-0.0328 11.87218,-0.0148 3.55945,-0.0445 7.11964,-0.12379 10.67946,-0.0976 3.2327,-0.15746 6.35552,-1.03921 9.45789,-1.89021 0.41415,-0.10322 0.84459,-0.15513 1.24246,-0.30965 0.65779,-0.25545 1.22754,-0.70437 1.8799,-0.9734 0.80729,-0.33292 1.6515,-0.49826 2.46762,-0.80436 3.49922,-0.49236 -2.12308,0.25387 1.81099,-0.10057 0.65133,-0.0587 1.27743,-0.294 1.92737,-0.36642 0.83256,-0.0928 1.44235,-0.0425 2.28491,-0.0172 2.74574,0.004 5.49156,-0.0156 8.23729,0.004 2.95735,-0.0473 5.91213,0.0605 8.86696,0.15737 4.04169,0.10422 8.08524,0.14817 12.12814,0.11576 2.00069,-0.10962 3.99689,-0.28514 5.99533,-0.42566 0.60856,-0.0428 1.22329,-0.0228 1.82674,-0.11232 0.5393,-0.08 1.05524,-0.27567 1.58736,-0.39444 0.51763,-0.11554 1.0406,-0.20553 1.56091,-0.30832 2.56537,-0.29554 5.03637,-1.14935 7.61568,-1.29847 2.3907,0.0685 4.78544,0.0393 7.17601,-0.0378 0.29223,-0.083 0.58311,-0.17092 0.87667,-0.24919 0.38676,-0.1031 1.16813,-0.29718 1.57723,-0.3503 2.49034,-0.32332 -1.09096,0.21992 1.59999,-0.009 0.27474,-0.0233 0.53819,-0.12039 0.80727,-0.18058 2.3749,-0.20973 4.76067,-0.13123 7.14078,-0.20296 1.48334,-0.0249 2.65634,-0.97618 4.02014,-1.38851 1.98143,-0.59904 0.0193,0.21212 1.79676,-0.58322 0.82433,-0.17936 1.46743,-0.59089 2.05636,-1.17898 0.17487,-0.17463 0.70993,-0.67442 0.49554,-0.55147 -44.11957,25.30731 -58.27758,37.20018 -44.5595,25.71625 46.44032,-26.65685 28.49765,-27.44877 46.90472,-26.51511 0,0 -42.11675,32.96999 -42.11675,32.96999 v 0 c -10.65638,14.39 -0.42349,0.46464 45.0269,-25.69482 -16.88735,7.2544 1.45465,-0.65125 -46.60452,26.99684 -0.51786,0.29792 -1.75555,0.30237 -2.36318,0.43709 -0.25793,0.0572 -0.50873,0.14274 -0.7631,0.2141 -2.46313,0.42897 0.63959,-0.14951 -1.78522,0.42508 -1.48985,0.35306 -3.01457,0.19045 -4.52762,0.18225 -2.41007,0.0836 -4.79822,0.39497 -7.17127,0.82018 -1.70988,0.0786 -3.38638,0.61664 -5.10955,0.23132 -2.2682,-0.0333 -4.56597,0.0233 -6.7852,0.53248 -2.31781,0.48834 -4.68425,0.64722 -7.02912,0.96242 -3.61791,0.34576 -7.27991,0.16354 -10.91079,0.2612 -4.14729,-0.035 -8.29512,0.0143 -12.44145,0.1076 -3.07798,0.0881 -6.15551,0.18301 -9.23545,0.16148 -2.7077,0.0576 -5.42971,0.0774 -8.10629,0.54276 -0.40637,0.098 -0.81274,0.19603 -1.21911,0.29404 -0.33769,0.0909 -0.67336,0.18965 -1.01306,0.2727 -0.65899,0.16111 -1.34348,0.22143 -1.98969,0.42791 -0.54533,0.17426 -1.02096,0.5293 -1.56867,0.69932 -0.74795,0.20857 -1.45271,0.51777 -2.20106,0.72112 -1.24119,0.33732 -0.71407,0.14333 -2.09638,0.32549 -0.35209,0.0464 -0.69996,0.1206 -1.04994,0.1809 -3.23444,0.49617 -6.50059,0.83926 -9.77807,0.74009 -3.4702,0.0251 -6.9407,-0.0504 -10.41055,-0.094 -3.95441,0.0225 -7.9084,-0.0401 -11.8627,0.0172 -3.32078,0.0901 -6.65066,0.34129 -9.96734,0.0408 -3.72382,-0.41035 -7.41472,-1.0422 -11.01693,-2.09572 -3.34416,-0.75789 -6.67915,-1.55159 -10.05998,-2.13513 -3.59636,-0.62077 -5.43663,-0.81052 -9.1045,-1.30463 -1.66249,-0.22397 -3.323951,-0.45554 -4.985931,-0.68332 -5.700443,-0.67156 -11.383328,-1.40364 -17.06072,-2.25115 -17.926955,-2.67613 5.894007,0.86249 -11.978666,-1.91043 -2.092315,-0.32461 -4.191008,-0.60668 -6.286513,-0.91003 -6.135394,-0.81484 -12.260466,-1.72622 -18.409449,-2.43501 -7.759253,-0.8944 -4.427262,-0.42146 -12.142891,-1.20581 -1.860126,-0.18913 -3.716498,-0.41347 -5.574746,-0.62021 -3.643853,-0.31621 -6.897524,-0.65564 -10.54857,-0.75489 -4.6928854,-0.12755 -9.392328,0.20183 -14.02334678,0.96494 0,0 42.92655078,-31.18796 42.92655078,-31.18796 z"
         id="path108"
         style="fill:#000000;stroke-width:0.26458332" />
      <path
         inkscape:connector-curvature="0"
         d="m 30.899436,240.23067 c 0.356266,0.0889 0.707723,0.20002 1.0688,0.26679 2.333363,0.4315 4.731811,0.50677 7.095249,0.61353 2.308204,0.10427 4.617432,0.18452 6.926016,0.2799 9.035608,0.37617 18.075468,0.28958 27.115791,0.34721 8.598681,0.42957 17.2016,0.51203 25.808167,0.40186 4.606931,-0.0521 9.204111,-0.37154 13.808881,-0.48201 1.89556,0.0282 3.80965,-0.22477 5.70485,-0.11862 0.91839,0.0514 1.82766,0.21146 2.74372,0.29463 1.35676,0.3489 2.76726,0.36284 4.11213,0.76963 0.50416,0.1525 0.97971,0.38867 1.47936,0.55537 0.9284,0.30972 1.87558,0.56079 2.80581,0.86498 0.43703,0.10625 0.87626,0.20386 1.3111,0.31874 1.47939,0.39085 1.16377,0.39707 2.63902,0.6464 1.31971,0.22305 2.65902,0.29473 3.99219,0.38388 3.76205,0.20002 7.5309,0.25618 11.29757,0.29488 4.10887,0.0229 8.21651,-0.14687 12.32488,-0.10835 3.76527,-0.0405 7.5308,-0.007 11.29553,-0.055 1.21413,-0.11368 2.43969,0.11913 3.65366,0.0212 0.57954,-0.0467 1.14286,-0.21595 1.71754,-0.30425 1.79469,-0.27576 3.59893,-0.39405 5.39473,-0.6677 2.3672,-0.1512 4.66559,-0.78033 7.00876,-1.10763 0.84759,-0.11839 2.01814,-0.19374 2.87652,-0.25855 1.17553,-0.35889 2.39315,-0.43428 3.61097,-0.49686 0.41912,-0.0215 0.84549,0.0206 1.25768,-0.0583 0.37547,-0.0719 0.71073,-0.28598 1.07889,-0.38895 0.39596,-0.11075 0.80515,-0.16707 1.20773,-0.25061 2.59369,-0.40654 5.16443,-0.81361 7.79146,-0.90614 3.08173,0.075 6.14727,-0.28995 9.22031,-0.47564 1.42103,-0.25634 2.87705,-0.28541 4.27975,-0.65057 0.43303,-0.11272 0.84241,-0.30506 1.27421,-0.42244 0.29953,-0.0814 2.24928,-0.46852 2.57015,-0.53307 0.78257,-0.20509 1.59576,-0.13802 2.38785,-0.25316 2.1334,-0.3101 -0.0376,-0.16033 2.07926,-0.43064 0.42186,-0.0539 1.75024,-0.0946 2.16537,-0.1104 2.24473,-0.43164 4.53615,-0.507 6.81574,-0.57831 1.88537,-0.53773 3.87641,-0.60465 5.82597,-0.56817 2.3218,0.0879 4.64639,0.0534 6.96787,0.12312 1.86962,0.10442 3.75924,-0.0255 5.62694,0.0822 1.05154,0.0606 2.09626,0.213 3.1474,0.28016 1.47212,-0.0264 2.88639,0.28817 4.30632,0.62032 0.38481,0.09 0.78282,0.13156 1.15705,0.25862 0.83365,0.28305 1.60941,0.71457 2.42213,1.05299 1.84848,0.65569 3.60759,1.56179 5.50415,2.07911 3.16188,0.86247 -0.70241,-0.3245 2.34871,0.63885 1.17263,0.17046 2.28327,0.59437 3.44567,0.80235 0.22405,0.0401 0.46566,0.003 0.67736,0.0863 0.30705,0.12134 0.5638,0.34369 0.84569,0.51553 0.62584,0.32179 1.28875,0.53336 1.98945,0.60287 0.1841,0.0183 0.37354,-0.0157 0.55457,0.0224 0.44643,0.0941 0.86664,0.28761 1.30804,0.40301 0.53555,0.16442 1.14374,-0.0644 1.67685,0.0425 0.25011,0.0502 0.47326,0.19205 0.7165,0.26899 0.50583,0.16001 0.67646,0.16168 1.18554,0.22966 1.5625,0.0763 2.15704,1.35509 3.77172,1.65127 0.72736,0.006 1.74034,0.24561 2.4494,0.037 0.18786,-0.0552 0.33025,-0.2131 0.50869,-0.29368 0.19021,-0.0859 0.39478,-0.13566 0.59219,-0.20349 0.65074,-0.77305 1.4219,-1.00959 2.33468,-1.31676 1.79097,-0.60269 -0.53147,0.0399 1.41187,-0.46792 0.98809,-0.16638 0.56666,0.032 1.28876,-0.5403 0,0 -41.99741,32.84165 -41.99741,32.84165 v 0 c -0.90504,0.0426 -0.47286,-0.0583 -1.29747,0.29871 -1.46949,0.58905 -2.96005,1.22174 -4.56544,0.83633 -1.66655,-0.19498 -3.28505,-0.77796 -4.81642,-1.45196 -0.63007,-0.30586 -1.31844,-0.76747 -2.04333,-0.79983 -0.52731,-0.0236 -0.25953,0.15811 -0.82812,0.0799 -0.20867,-0.0287 -0.40558,-0.11395 -0.60836,-0.17092 -0.31238,-0.084 -0.83486,-0.24029 -1.16508,-0.2686 -0.16767,-0.0143 -0.33799,0.0398 -0.50461,0.0161 -0.72467,-0.10281 -1.40853,-0.4622 -2.10794,-0.65468 -0.40131,-0.1256 -0.82293,-0.17957 -1.22334,-0.30803 -0.94467,-0.30308 -1.76853,-0.93469 -2.73892,-1.17636 -0.75377,-0.0265 -1.30212,-0.32877 -2.01239,-0.56499 -0.86135,-0.28644 -1.71991,-0.56693 -2.5298,-0.99026 -2.46139,-0.9779 -4.85164,-2.16437 -7.44913,-2.76315 -2.32756,-0.51342 -4.67713,-0.88268 -7.06568,-0.95755 -2.92402,-0.16717 -5.85738,0.0537 -8.78523,0.0493 -2.37015,0.0751 -4.7467,0.04 -7.10724,0.31557 -1.90386,0.2412 -3.8193,0.5932 -5.7413,0.52385 -2.23283,0.18674 -4.43496,0.54766 -6.66271,0.77978 -0.68162,0.11983 -1.35677,0.27506 -2.0391,0.39076 -1.38551,0.23498 -2.80452,0.25226 -4.16405,0.65175 -0.81286,0.14962 -1.61762,0.34997 -2.43739,0.4554 -1.91916,0.24691 -3.87813,0.24151 -5.80539,0.38717 -3.08419,0.18677 -6.18099,0.34205 -9.24479,0.73869 -2.5424,0.41598 -5.08103,0.85966 -7.61062,1.34588 -2.61803,0.445 0.0277,0.0607 -2.64952,0.25024 -1.58798,0.11245 -3.14033,0.60561 -4.74484,0.5229 -3.08682,0.35809 -6.17295,0.72252 -9.25963,1.08114 -1.8614,0.17489 -3.74111,0.46508 -5.61199,0.50662 -1.85727,0.0412 -3.72464,-0.10985 -5.58339,-0.0238 -3.71583,-0.0487 -7.43252,-0.0114 -11.14893,-0.0456 -4.02827,0.0451 -8.05626,-0.10427 -12.08497,-0.088 -4.0776,0.0212 -8.164785,0.11353 -12.232931,-0.22863 -2.976015,-0.36819 -5.844363,-1.1507 -8.695756,-2.07319 -0.488694,-0.1346 -2.1453,-0.60169 -2.625704,-0.68903 -1.697855,-0.30866 -3.466073,-0.34708 -5.181407,-0.46651 -2.644735,-0.11285 -5.300133,0.0643 -7.945969,-0.12984 -4.062069,-0.1371 -8.103616,-0.57414 -12.154998,-0.88333 -8.059711,-0.63834 -16.120761,-1.37949 -24.214285,-1.37047 -9.358813,0.0586 -18.717011,-0.0185 -28.0715844,0.34722 -6.09867437,0.22624 -12.238203,0.24884 -18.2838826,1.16022 0,0 43.057883,-31.28337 43.057883,-31.28337 z"
         id="path110"
         style="fill:#000000;stroke-width:0.26458332" />
      <path
         inkscape:connector-curvature="0"
         d="m 161.8266,251.57103 c 2.04146,1.53675 4.52937,2.04869 6.9615,2.62859 3.01519,0.71892 2.33539,0.549 5.51908,1.12384 1.08565,0.16562 2.1755,0.30575 3.25695,0.49684 6.12966,1.08311 0.79697,0.34096 6.885,1.23917 3.11295,0.45928 6.20755,0.71366 9.34658,0.89157 4.67069,0.17497 9.3451,0.1962 14.01849,0.20223 3.97299,0.0126 7.94417,-0.14127 11.91377,-0.28921 2.13651,-0.13857 4.27396,-0.22698 6.41332,-0.30172 1.8673,0.61813 3.85676,0.59207 5.8006,0.66595 2.60812,0.0615 5.21407,0.16308 7.82327,0.16472 3.1932,0.0643 6.39869,-0.1101 9.57936,0.19745 0.56783,0.0421 1.13707,0.0683 1.7035,0.12623 6.8853,0.7041 -3.27342,-0.23567 3.37834,0.42104 1.07499,0.10613 2.16268,0.0831 3.2321,0.23555 0.58703,0.0837 1.16022,0.24554 1.74034,0.36832 2.76703,0.55062 5.58543,0.70473 8.40004,0.69869 0,0 -42.87387,30.67115 -42.87387,30.67115 v 0 c -2.68451,-0.4087 -5.33038,-1.0115 -8.02074,-1.38827 -3.25719,-0.19902 -6.48957,-0.70337 -9.75835,-0.71998 -3.2077,0.0716 -6.41741,0.0507 -9.626,0.0691 -2.80089,-0.0101 -5.60414,0.10343 -8.40297,-0.0362 -1.98811,-0.1093 -4.01058,-0.53158 -5.98762,-0.21916 -1.86676,-0.0695 -3.73138,-0.14774 -5.59504,-0.28191 -3.74114,-0.13539 -7.48341,-0.2604 -11.22727,-0.27734 -4.61398,-0.0698 -9.24995,-0.1674 -13.8008,-1.01647 -6.36763,-1.12057 -12.70804,-2.45126 -19.15162,-3.06615 -3.01291,-0.35531 -5.9974,-0.80283 -8.99844,-1.24008 -1.16116,-0.16918 -3.13145,-0.51086 -4.38077,-0.39275 -0.43878,0.0415 -0.8482,0.2399 -1.2723,0.35986 0,0 43.12355,-31.3311 43.12355,-31.3311 z"
         id="path112"
         style="fill:#000000;stroke-width:0.26458332" />
    </g>
    <g
       id="g4978"
       transform="translate(18.903367,-0.12078839)">
      <path
         style="fill:#000000;stroke-width:0.264583"
         id="path4790"
         d="m 14.72352,17.604231 c 0.192101,1.161221 0.424448,2.316496 0.576303,3.483662 0.453853,3.488344 0.862351,8.69526 1.093538,12.038564 0.6674,9.651579 1.002166,19.325293 1.488003,28.987027 1.581632,18.375339 1.241899,36.814093 0.534101,55.217096 -0.583053,9.07034 -0.07823,18.14516 -0.04134,27.22069 0.275163,8.57982 -0.09724,17.16058 -0.2301,25.73959 -0.08053,3.50619 0.329398,6.99042 1.833019,10.19509 0.788609,1.68076 1.473262,2.56439 2.501746,4.07705 0.415221,0.54354 0.81557,1.09877 1.245663,1.63062 1.569814,1.94121 1.513256,1.63259 2.984317,3.67709 1.600293,2.22413 2.755967,4.58634 3.916215,7.05928 2.43582,5.87769 3.736149,12.11667 4.884226,18.34707 0.803117,3.74601 0.727044,7.57887 0.793743,11.38533 -0.0024,0.49126 -0.005,0.98252 -0.0075,1.47378 0,0 38.245132,19.45572 38.245132,19.45572 v 0 c -0.009,-0.51361 -0.01797,-1.02722 -0.02697,-1.54083 -0.06654,-4.1431 -0.565933,-8.25487 -1.064459,-12.36649 -0.181824,-0.86582 -0.334504,-1.73827 -0.545473,-2.59745 -0.182263,-0.74227 -1.564028,-5.54369 -1.712216,-6.08658 -1.217801,-4.46139 -0.667092,-2.63622 -1.811944,-7.1253 -0.287565,-1.12757 -0.595563,-2.24983 -0.893347,-3.37474 -0.555932,-1.83102 -1.07419,-3.76735 -1.86096,-5.52393 -1.26978,-2.83498 -3.086856,-5.46716 -5.202764,-7.72696 -1.461161,-1.61886 -3.027923,-3.25308 -4.105764,-5.16959 -1.220946,-2.17097 -1.664391,-4.60136 -1.947241,-7.04525 -0.946094,-8.65216 -1.082924,-17.37047 -0.832387,-26.06645 7.94e-4,-4.60831 0.14899,-9.22082 0.123343,-13.82801 -0.01886,-3.38851 -0.160641,-5.29561 -0.431085,-8.70363 -0.138554,-1.74598 -0.303173,-3.48979 -0.454758,-5.23469 -1.858735,-18.83346 -3.909065,-37.700465 -3.492145,-56.6594 0.04242,-3.463332 0.02945,-6.927784 0.127259,-10.389992 0.132985,-4.707363 0.583705,-12.365159 0.944329,-17.212791 0.217697,-2.926387 0.62936,-7.829505 1.093537,-10.924191 0.146018,-0.973497 0.384204,-1.930921 0.576304,-2.89638 0,0 -38.300352,-19.515005 -38.300352,-19.515005 z" />
      <path
         style="fill:#000000;stroke-width:0.264583"
         id="path4792"
         d="m 53.072998,35.731615 c 0.868132,-0.12365 1.72879,-0.323442 2.604394,-0.370953 2.771457,-0.150387 8.133109,0.12179 10.580552,0.274989 8.0342,0.502904 16.016309,1.465059 24.007847,2.40379 16.319999,2.210893 32.791649,2.806094 49.240519,3.019353 12.66439,-0.110931 25.29758,0.815827 37.91016,1.836526 1.7038,0.261589 3.44927,0.06858 5.15621,0.29191 0.64475,0.08436 1.26954,0.282091 1.90362,0.426209 1.97159,0.448117 3.92931,0.938398 5.90644,1.362334 0.62986,0.134684 1.25553,0.290722 1.88958,0.404046 0.53341,0.09534 3.15025,0.431305 3.67674,0.51707 2.35653,0.383881 4.70443,0.838866 7.05953,1.234625 2.16917,0.306226 4.28156,0.96344 6.49176,0.919911 2.49266,-0.04909 5.04123,-0.590637 7.49595,-0.960348 2.9031,-0.282098 5.79672,-0.639508 8.6868,-1.030097 0,0 -34.47981,-24.266012 -34.47981,-24.266012 v 0 c -2.72953,0.465394 -5.46786,0.862157 -8.23536,1.029599 -2.27477,0.07053 -3.51356,0.168267 -5.72181,0.03187 -2.63643,-0.16284 -5.24219,-0.735418 -7.85586,-1.076933 -4.29152,-0.823821 -8.57312,-1.696241 -12.86745,-2.506014 -2.04632,-0.432068 -4.11816,-0.929178 -6.21264,-1.063298 -2.1819,-0.139719 -4.37459,0.161217 -6.55621,0.113327 -11.58837,0.558314 -23.1907,0.855481 -34.79118,0.433725 C 104.81697,18.616043 96.373742,18.344917 92.156001,18.137982 81.376739,17.609119 70.625726,16.622291 59.901714,15.425793 46.027853,13.762144 32.175489,11.907545 18.278466,10.451909 c 0,0 34.794532,25.279706 34.794532,25.279706 z" />
      <path
         style="fill:#000000;stroke-width:0.264583"
         id="path4794"
         d="m 204.99243,31.157203 c -0.89101,7.483922 -1.52272,14.99753 -2.38236,22.485489 -0.82098,7.151209 -1.75287,14.289249 -2.62516,21.434378 -0.48446,3.723438 -0.9906,7.444118 -1.45339,11.170311 -1.00861,8.120978 -1.64455,13.521539 -2.27773,21.667289 -0.72672,9.34897 -1.06389,18.70948 -1.27863,28.08098 -0.29489,10.28802 0.0599,20.57315 0.84762,30.83028 0.49498,7.8526 0.25359,15.7226 0.094,23.58138 0.16337,5.22789 -0.32733,10.43963 -0.37573,15.66193 0.0635,4.00144 0.0366,7.99587 -0.16857,11.99247 -0.0307,0.42486 -0.0614,0.84973 -0.0921,1.2746 0,0 38.35217,19.54225 38.35217,19.54225 v 0 c -0.0305,-0.45596 -0.0611,-0.91192 -0.0916,-1.36788 -0.19573,-4.04989 -0.23146,-8.09736 -0.15386,-12.1516 -0.0351,-5.35688 -0.4978,-10.70447 -0.36617,-16.06587 -0.22542,-8.05587 -0.61332,-16.10621 -0.80897,-24.16302 -0.0403,-1.49983 -0.0324,-3.00172 -0.12084,-4.49948 -0.54491,-9.22802 -2.71589,-18.27857 -3.29775,-27.50409 -0.55994,-8.14237 -0.81538,-9.7117 -0.7503,-18.14133 0.11142,-14.43444 1.72888,-28.82478 3.72852,-43.102625 1.22779,-6.694721 2.42565,-13.872004 4.08034,-20.497086 0.68401,-2.738662 1.49279,-5.446413 2.35424,-8.134543 0.90717,-2.830803 2.25889,-6.533499 3.73268,-9.285795 0.30214,-0.564237 0.72384,-1.055778 1.08575,-1.583669 0,0 -38.03217,-21.224369 -38.03217,-21.224369 z" />
      <path
         style="fill:#000000;stroke-width:0.264583"
         id="path4796"
         d="m 70.740809,248.89168 c 0.618175,-0.0995 1.233294,-0.22029 1.854523,-0.29847 5.374266,-0.67633 10.813121,-0.94036 16.219394,-1.17659 8.502042,-0.37151 10.037784,-0.34428 18.815924,-0.51266 12.24416,-0.0745 24.4857,0.24718 36.7259,0.50876 2.42629,0.0519 4.85194,0.1438 7.27871,0.16178 2.41211,0.0179 4.82422,-0.0361 7.23633,-0.0542 9.84832,-0.11615 19.71293,-0.0718 29.54535,0.56578 4.72812,0.3066 6.54257,0.53458 11.08455,1.00536 3.53787,0.56562 7.12429,0.73229 10.67809,1.143 2.8497,0.32934 5.69848,0.82196 8.53327,1.26231 4.90844,0.82895 9.87516,1.18396 14.75504,2.17987 1.81708,0.2669 3.57504,0.91579 5.3897,1.18973 1.15773,0.17477 2.32751,0.0284 3.48159,-0.0795 1.61766,-0.0718 0.79518,0.0109 2.46611,-0.26079 0,0 -35.06459,-25.08264 -35.06459,-25.08264 v 0 c -1.5477,-0.0361 -0.77784,-0.0205 -2.30958,-0.047 -2.58441,-0.27273 -5.13146,-0.84916 -7.71973,-1.11449 -4.94299,-0.64833 -9.87103,-1.40114 -14.81791,-2.01704 -6.00854,-0.58195 -12.02671,-1.31463 -18.07439,-1.20707 -13.08847,-0.0697 -26.17676,-0.15512 -39.26475,-0.29082 -2.46184,-0.0181 -4.92369,-0.0728 -7.38553,-0.0542 -2.27836,0.0172 -4.55552,0.11006 -6.83336,0.16178 -11.7732,0.26733 -23.54788,0.59103 -35.325399,0.50876 -14.129544,-0.25745 -28.297367,-0.49692 -42.361572,-1.98772 0,0 35.09233,25.49607 35.09233,25.49607 z" />
      <path
         style="fill:#000000;stroke-width:0.264583"
         id="path4798"
         d="m 86.688095,100.74619 c 4.447898,-0.46092 8.937072,-0.45313 13.405275,-0.47919 4.83776,-0.0967 9.66899,0.0998 14.49973,0.32212 1.80821,0.12523 3.61996,0.12655 5.43115,0.16563 1.7326,-0.053 3.46604,-0.0402 5.19886,-0.0677 1.25103,0.0115 2.50133,0.0263 3.75244,0.009 0.34043,-0.005 0.68319,-0.0617 1.02116,-0.0206 0.35642,0.0433 0.69492,0.18089 1.04238,0.27134 1.31908,0.27724 2.66528,0.37914 4.00401,0.51041 0,0 -34.48606,-25.675858 -34.48606,-25.675858 v 0 c -1.373007,-0.188079 -2.740591,-0.421066 -4.122679,-0.534532 -2.075511,0.01815 -4.150688,-0.04399 -6.226196,5.29e-4 -1.794989,-0.02732 -3.590557,-0.01582 -5.38535,-0.06775 -1.65935,0.03808 -3.319545,0.03374 -4.975209,0.165632 -4.534686,0.238964 -9.069927,0.422029 -13.612977,0.32213 -4.909346,-0.02819 -9.830366,-0.05822 -14.72438,-0.479192 0,0 35.177846,25.558201 35.177846,25.558201 z" />
      <path
         style="fill:#000000;stroke-width:0.264583"
         id="path4800"
         d="m 168.02975,109.39762 c 5.81291,-0.45144 11.64492,0.16926 17.43567,0.67135 3.02691,0.18995 6.04381,0.52086 9.0738,0.65894 1.57344,-0.0183 3.14407,-0.0956 4.71882,-0.0916 0,0 -34.96354,-25.396884 -34.96354,-25.396884 v 0 c -1.6191,0.0076 -3.23416,-0.05481 -4.8515,-0.112993 -2.63971,0.03095 -5.28005,0.105704 -7.91928,-0.0088 -6.14795,-0.135488 -12.30117,-0.414433 -18.41551,-1.092039 0,0 34.92154,25.371986 34.92154,25.371986 z" />
      <path
         style="fill:#000000;stroke-width:0.264583"
         id="path4802"
         d="m 85.123733,139.64949 c 3.517189,0.15864 6.920318,1.18828 10.353485,1.87784 2.973763,0.59728 3.418684,0.60497 6.422872,1.00178 5.7428,0.87498 11.44898,2.04684 17.21764,2.7452 2.74121,0.39397 5.55042,0.0809 8.2795,0.51825 0.32565,0.0858 0.64671,0.19149 0.97695,0.2575 2.09362,0.41848 0.17405,-0.11613 2.40972,0.39675 1.66306,0.38152 3.30545,0.87061 4.96809,1.26108 0,0 -33.90215,-25.88747 -33.90215,-25.88747 v 0 c -3.045156,-0.76418 -6.128605,-1.58234 -9.282261,-1.67372 -2.553322,0.0586 -5.107646,-0.0175 -7.647768,-0.30295 -5.485011,-0.55067 -10.948371,-1.23939 -16.358801,-2.32144 -6.152189,-1.07985 -12.225507,-2.52523 -18.346724,-3.75951 0,0 34.909447,25.88669 34.909447,25.88669 z" />
      <path
         style="fill:#000000;stroke-width:0.264583"
         id="path4804"
         d="m 155.86007,145.30193 c 6.32772,-0.95939 12.77272,-0.66782 19.14822,-0.49983 2.48447,0.12646 4.98384,0.0879 7.46659,0.25535 1.67628,0.11307 3.33829,0.32047 5.01874,0.40803 2.30219,0.29364 4.62029,0.40299 6.93297,0.57555 0,0 -34.43052,-25.38306 -34.43052,-25.38306 v 0 c -2.33455,-0.15051 -4.65822,-0.42203 -6.99513,-0.54078 -3.91233,-0.22225 -7.80842,0.0445 -11.72141,0.17953 -6.8416,0.19438 -13.71543,0.34339 -20.52411,-0.49982 0,0 35.10465,25.50503 35.10465,25.50503 z" />
      <path
         style="fill:#000000;stroke-width:0.264583"
         id="path4806"
         d="m 97.241126,185.86387 c 0.849508,-0.12098 1.69487,-0.27587 2.548522,-0.36293 3.317962,-0.33839 5.724112,-0.40175 9.121332,-0.46476 5.18878,-0.0962 10.37161,-0.0168 15.55847,0.11528 4.15837,0.0301 8.3034,0.49579 12.46053,0.54593 1.50979,0.0182 3.01962,-0.0334 4.52943,-0.0502 2.99042,0.0255 1.53034,-5.3e-4 4.38031,0.0746 0,0 -34.42053,-25.00798 -34.42053,-25.00798 v 0 c -2.68048,0.0763 -1.28886,0.0494 -4.17499,0.0746 -1.55584,-0.0168 -3.11173,-0.0696 -4.66754,-0.0502 -3.657025,0.0456 -7.298996,0.52635 -10.957718,0.54593 -9.727197,0.26623 -19.504234,0.36062 -29.189426,-0.71242 0,0 34.81161,25.29212 34.81161,25.29212 z" />
      <path
         style="fill:#000000;stroke-width:0.264583"
         id="path4808"
         d="m 171.09444,194.56622 c 4.20373,-0.41628 8.44506,-0.29122 12.66455,-0.26327 3.81084,0.0144 7.63691,0.21437 11.44341,-0.002 2.02943,-0.10204 4.05859,-0.1883 6.08647,-0.31907 0,0 -34.6389,-24.98718 -34.6389,-24.98718 v 0 c -2.0568,0.0159 -4.09881,0.13488 -6.14999,0.28003 -3.67643,0.0434 -7.35336,0.0349 -11.02894,0.11651 -4.46249,0.0301 -8.93898,0.12436 -13.38924,-0.26326 0,0 35.01264,25.43817 35.01264,25.43817 z" />
    </g>
  </g>
</svg>
