<?xml version="1.0" encoding="UTF-8" standalone="no"?>
<!-- Created with Inkscape (http://www.inkscape.org/) -->

<svg
   width="300mm"
   height="300mm"
   viewBox="0 0 300 300"
   version="1.1"
   id="svg8"
   inkscape:version="1.2.2 (b0a8486541, 2022-12-01)"
   sodipodi:docname="settings.svg"
   xmlns:inkscape="http://www.inkscape.org/namespaces/inkscape"
   xmlns:sodipodi="http://sodipodi.sourceforge.net/DTD/sodipodi-0.dtd"
   xmlns="http://www.w3.org/2000/svg"
   xmlns:svg="http://www.w3.org/2000/svg"
   xmlns:rdf="http://www.w3.org/1999/02/22-rdf-syntax-ns#"
   xmlns:cc="http://creativecommons.org/ns#"
   xmlns:dc="http://purl.org/dc/elements/1.1/">
  <defs
     id="defs2" />
  <sodipodi:namedview
     id="base"
     pagecolor="#ffffff"
     bordercolor="#666666"
     borderopacity="1.0"
     inkscape:pageopacity="0.0"
     inkscape:pageshadow="2"
     inkscape:zoom="0.48892506"
     inkscape:cx="567.57164"
     inkscape:cy="481.66891"
     inkscape:document-units="mm"
     inkscape:current-layer="layer1"
     showgrid="false"
     inkscape:window-width="1920"
     inkscape:window-height="1043"
     inkscape:window-x="0"
     inkscape:window-y="0"
     inkscape:window-maximized="1"
     inkscape:showpageshadow="2"
     inkscape:pagecheckerboard="0"
     inkscape:deskcolor="#d1d1d1" />
  <metadata
     id="metadata5">
    <rdf:RDF>
      <cc:Work
         rdf:about="">
        <dc:format>image/svg+xml</dc:format>
        <dc:type
           rdf:resource="http://purl.org/dc/dcmitype/StillImage" />
      </cc:Work>
    </rdf:RDF>
  </metadata>
  <g
     inkscape:label="Layer 1"
     inkscape:groupmode="layer"
     id="layer1"
     transform="translate(0,3)">
    <path
       style="fill:#000000;stroke-width:0.264583"
       id="path2304"
       d="m 122.0597,247.85287 c -7.27596,-4.461 -14.37613,-9.21691 -21.34981,-14.13461 -12.28321,-8.95959 -23.749542,-18.95183 -35.278864,-28.84196 -12.4548,-9.61918 -34.379169,-37.42045 -43.707248,-20.93727 -0.366073,0.64687 -0.499906,1.39996 -0.749859,2.09994 0,0 37.721334,20.65832 37.721334,20.65832 v 0 c 0.161433,-1.51733 0.0035,0.59414 -0.423111,0.36556 -12.144076,-6.50729 -23.98622,-13.56323 -35.945133,-20.40486 -1.802729,-1.03133 9.214676,4.71229 5.389016,3.12727 12.606668,9.18058 24.663772,19.07593 36.426367,29.3123 1.416518,1.24764 2.788105,2.54823 4.249557,3.74292 2.644982,2.1622 3.309763,2.34243 6.058358,4.13581 2.619174,1.70893 5.193932,3.49687 7.710209,5.35344 0,0 39.899184,15.52314 39.899184,15.52314 z" />
    <path
       style="fill:#000000;stroke-width:0.264583"
       id="path2306"
       d="m 63.307568,201.03434 c 0.151109,-0.40722 0.251208,-0.83721 0.453326,-1.22167 0.512175,-0.97426 2.273274,-3.37334 2.799231,-4.01588 3.035035,-3.70777 6.59144,-6.89989 10.116521,-10.12312 7.86175,-7.57599 16.725066,-13.99524 24.826004,-21.29729 3.15529,-2.90494 6.24072,-5.88652 9.29323,-8.89941 0.20782,-0.18733 0.41564,-0.37466 0.62346,-0.56199 0,0 -37.063934,-22.46831 -37.063934,-22.46831 v 0 c -0.199551,0.26124 -0.3991,0.52248 -0.598651,0.78372 -2.266839,3.35063 -4.753203,6.54648 -7.426722,9.58387 -7.150365,7.92464 -14.76634,15.46046 -23.421049,21.75707 -6.019974,4.64073 -12.244001,9.13151 -17.372355,14.78903 0,0 37.770939,21.67398 37.770939,21.67398 z" />
    <path
       style="fill:#000000;stroke-width:0.264583"
       id="path2308"
       d="m 124.02006,244.49253 c 0.25368,-0.75052 0.46332,-1.5174 0.76106,-2.25156 1.01471,-2.50214 2.3768,-5.06554 3.65957,-7.4132 1.98384,-3.63073 3.666,-6.5146 5.92673,-10.00473 1.10686,-1.70877 2.28341,-3.37137 3.42511,-5.05706 5.29984,-7.98416 11.45019,-15.32457 17.50771,-22.72881 2.33898,-2.77811 4.69763,-5.54363 7.17187,-8.20311 0.21815,-0.28085 0.44617,-0.55431 0.65444,-0.84256 0.96558,-1.33643 0.47025,-0.81074 1.53548,-2.19204 0.8455,-1.09636 1.79477,-2.10356 2.74274,-3.10991 0.27006,-0.27359 0.54013,-0.54718 0.81019,-0.82077 0,0 -36.91457,-22.35106 -36.91457,-22.35106 v 0 c -0.25101,0.30633 -0.50203,0.61266 -0.75304,0.91899 -1.71166,2.09782 -3.47266,4.15162 -5.2021,6.23272 -2.03614,3.01349 -3.87673,6.15709 -5.88802,9.18736 -5.09028,8.06618 -10.25569,16.08616 -15.769,23.87256 -5.447363,7.90192 -10.786456,15.91947 -17.101277,23.16929 0,0 37.433107,21.59389 37.433107,21.59389 z" />
    <path
       style="fill:#000000;stroke-width:0.264583"
       id="path2310"
       d="m 151.76781,178.59986 c 0.35583,0.93599 0.69217,1.87961 1.06747,2.80795 0.44547,1.10193 0.92958,2.18784 1.39436,3.28176 0.44948,1.11744 0.90109,2.23402 1.34844,3.35231 0.30034,0.75079 1.97331,5.00209 2.3669,5.85663 0.47382,1.02873 1.0218,2.02164 1.5327,3.03246 1.80613,3.25536 3.72424,6.44662 5.62167,9.64907 0.62568,1.05602 2.23519,3.7995 2.95778,4.8416 0.63467,0.9153 1.33688,1.78187 2.00532,2.67281 3.59007,4.62068 8.04095,8.40826 12.64574,11.9681 1.21722,1.04813 2.66576,1.79928 3.90534,2.8159 0.92677,0.76008 1.67895,1.70075 2.42903,2.62607 0.93811,1.19839 0.46584,0.57191 1.41238,1.88277 0,0 39.88681,16.52919 39.88681,16.52919 v 0 c -1.18088,-0.80919 -0.6483,-0.33033 -1.59026,-1.4448 -0.84468,-1.07018 -1.66874,-2.15564 -2.50689,-3.23088 -0.34692,-0.44505 -0.6531,-0.92638 -1.04785,-1.32962 -0.93704,-0.95718 -2.04666,-1.58838 -3.15713,-2.31682 -4.89906,-3.23733 -9.66754,-6.71211 -13.6068,-11.10956 -0.6424,-0.74545 -1.32191,-1.46048 -1.92722,-2.23636 -0.58702,-0.75247 -1.0997,-1.5601 -1.64539,-2.34306 -2.66611,-3.82535 -5.31761,-7.67475 -7.44938,-11.83292 -2.68292,-5.30309 -5.5384,-10.58948 -6.78188,-16.46082 0,0 -38.86114,-19.01178 -38.86114,-19.01178 z" />
    <path
       style="fill:#000000;stroke-width:0.264583"
       id="path2312"
       d="m 229.43072,250.93336 c 3.39817,-3.54971 7.84185,-5.82365 12.16813,-8.0274 5.51615,-2.64858 11.29331,-4.70208 16.97547,-6.96107 2.5238,-1.07244 5.10488,-2.00944 7.6136,-3.1181 0.58489,-0.25848 1.18391,-0.49366 1.73614,-0.81607 1.0831,-0.63234 1.66445,-1.25296 2.56564,-2.08452 1.98522,-2.03954 3.26507,-4.59393 4.5489,-7.10073 0.63286,-1.09902 1.17901,-2.24397 1.7552,-3.37288 0,0 -37.55973,-21.27527 -37.55973,-21.27527 v 0 c -0.4844,1.1114 -0.93508,2.24044 -1.52835,3.3005 -1.08455,2.02537 -2.1766,4.10451 -3.79308,5.76364 -2.90469,2.51035 -6.48437,4.03006 -10.00713,5.46714 -5.78999,2.30304 -11.70979,4.31627 -17.20749,7.29319 -4.80492,2.49986 -9.51003,5.17579 -14.13223,8.00003 0,0 36.86493,22.93154 36.86493,22.93154 z" />
    <path
       style="fill:#000000;stroke-width:0.264583"
       id="path2314"
       d="m 273.61917,209.90115 c -7.75602,-5.04253 -15.16165,-10.70062 -22.00348,-16.93579 -1.19472,-1.08879 -2.34336,-2.2271 -3.51503,-3.34064 -3.64467,-3.78763 -7.27253,-7.72135 -9.85951,-12.33796 -0.53386,-0.95272 -0.97665,-1.9537 -1.46498,-2.93054 -1.0252,-2.20677 -1.85911,-4.49183 -2.68339,-6.77834 0,0 -38.64645,-17.70008 -38.64645,-17.70008 v 0 c 1.23666,2.36991 2.40443,4.77194 3.45067,7.23354 0.44613,1.00709 0.9089,2.00697 1.33841,3.02126 0.79322,1.87319 1.33028,3.70041 2.51446,5.38425 0.61311,0.87181 1.38717,1.61876 2.09874,2.41226 2.41005,2.68748 3.32017,3.58271 5.90892,6.27419 1.19729,1.20546 2.35179,2.45498 3.59187,3.61638 6.28383,5.88511 13.40475,10.7923 19.76424,16.58866 0,0 39.50553,15.49281 39.50553,15.49281 z" />
    <path
       style="fill:#000000;stroke-width:0.264583"
       id="path2316"
       d="m 59.792509,123.4968 c -5.064683,0.85515 -10.255845,0.53074 -15.364825,0.32458 -5.545703,0.0451 -11.092418,0.0575 -16.637169,0.18983 -5.327639,0.19686 -10.650932,0.3631 -15.982313,0.28697 -1.8647972,0.0408 -3.7271492,-0.27985 -5.5902413,-0.0777 -1.0351746,0.11235 -2.0736594,0.41481 -3.0912665,0.63395 -0.9791184,0.56058 -1.8626578,1.24158 -2.87563703,1.74263 0,0 36.49704283,23.77356 36.49704283,23.77356 v 0 c 0.654752,-0.41053 1.264447,-0.8226 2.076313,-0.72985 2.339496,-0.51424 4.768196,-0.36067 7.143139,-0.57821 5.327631,-0.19414 10.658702,-0.15881 15.984722,-0.40105 5.548011,-0.23191 11.086285,-0.13634 16.635735,0.008 2.73612,-0.0886 5.472147,-0.18905 8.210233,-0.18682 0.986837,7.9e-4 5.423852,0.079 6.518936,0.069 0.701588,-0.006 1.402337,-0.0502 2.103504,-0.0753 0,0 -35.628173,-24.97986 -35.628173,-24.97986 z" />
    <path
       style="fill:#000000;stroke-width:0.264583"
       id="path2318"
       d="m 25.045509,143.78205 c 0.144165,-0.63809 0.307423,-1.27216 0.432495,-1.91426 0.416869,-2.14015 0.726559,-4.30012 1.135285,-6.44185 0.65926,-3.45452 1.353733,-6.89258 1.947066,-10.36001 0.726001,-4.84357 1.344631,-9.71446 1.567183,-14.60976 0.225885,-2.57764 0.211971,-5.1638 0.286345,-7.74746 0.02114,-0.87459 0.08689,-1.74463 0.152617,-2.61633 0,0 -38.5169179,-20.363168 -38.5169179,-20.363168 v 0 c -0.213523,1.110255 -0.2650522,2.243174 -0.1648611,3.372331 0.099772,2.641939 0.1270968,5.286121 0.2826631,7.925983 0.045314,4.87648 0.1811155,9.763174 -0.3898688,14.620064 -0.6196698,5.1481 -1.2187981,10.68398 -3.6905023,15.34141 -0.210147,0.39598 -0.515056,0.73387 -0.772585,1.10081 0,0 37.731081,21.69224 37.731081,21.69224 z" />
    <path
       style="fill:#000000;stroke-width:0.264583"
       id="path2320"
       d="m 25.959322,92.568176 c 0.454973,-0.02159 0.909491,-0.07191 1.364921,-0.06477 1.167733,0.01833 5.107043,0.301829 5.928497,0.371147 4.374865,0.369168 8.734555,0.889188 13.092719,1.413705 1.394766,0.168479 2.793624,0.305986 4.1843,0.505437 1.247815,0.178961 2.482813,0.439433 3.728985,0.629486 4.315743,0.65819 8.671912,1.112136 13.003752,1.655678 4.092786,0.529391 8.191775,0.958995 12.30072,1.327438 3.271416,0.505426 1.653968,0.24076 4.852614,0.792337 0,0 -33.841904,-25.372599 -33.841904,-25.372599 v 0 C 47.434055,73.42019 49.054324,73.63164 45.713231,73.190886 45.283019,73.127896 41.625586,72.584498 40.978574,72.517096 38.529114,72.261921 36.043459,72.38351 33.598921,72.047106 26.930678,71.408635 20.291153,70.531237 13.619173,69.930329 10.822326,69.61984 7.512596,69.266055 4.7279036,68.900946 0.06676675,68.289817 -4.5647951,67.450984 -9.245194,66.990599 c 0,0 35.204516,25.577577 35.204516,25.577577 z" />
    <path
       style="fill:#000000;stroke-width:0.264583"
       id="path2322"
       d="m 230.39265,167.6301 c 5.34221,-0.60117 10.72899,-0.61385 16.0979,-0.67493 8.28546,-0.32428 16.54198,0.50211 24.76782,1.379 4.66169,0.82746 9.38287,0.38064 14.07835,0.53844 2.66395,0.0904 5.32331,0.26865 7.9815,0.4597 0,0 -34.60527,-25.32975 -34.60527,-25.32975 v 0 c -2.51842,0.0138 -5.03643,-0.008 -7.55422,-0.0717 -4.45074,-0.0399 -8.89842,-0.17326 -13.3478,-0.27789 -8.21277,-0.31401 -16.41385,-0.94151 -24.63718,-0.90391 -5.98911,-0.0661 -11.98685,-0.1293 -17.95584,-0.67494 0,0 35.17474,25.55594 35.17474,25.55594 z" />
    <path
       style="fill:#000000;stroke-width:0.264583"
       id="path2324"
       d="m 299.15551,166.45382 c 0.76361,-5.07707 0.87228,-10.21686 1.07794,-15.33801 0.18589,-6.76599 0.14311,-13.53451 0.18978,-20.30187 -0.0241,-4.35925 0.39923,-8.69606 0.65657,-13.04143 -0.0398,-2.29441 -0.53764,-4.55261 -0.78619,-6.83219 0,0 -38.68033,-19.034065 -38.68033,-19.034065 v 0 c 0.3646,2.149671 0.67604,4.30739 1.03716,6.456995 0.59818,4.49838 0.62492,9.05829 0.76386,13.58682 0.0262,6.68241 -0.0153,13.36948 -0.29277,20.04678 -0.22511,4.54964 -0.3644,9.29121 -2.03203,13.58444 0,0 38.06601,20.87253 38.06601,20.87253 z" />
    <path
       style="fill:#000000;stroke-width:0.264583"
       id="path2326"
       d="m 257.63748,79.616666 c -0.6659,0.08754 -1.32772,0.215442 -1.99769,0.262612 -1.67306,0.117787 -5.03905,0.09839 -6.60415,0.08076 -3.85959,-0.04349 -7.71924,-0.16419 -11.57854,-0.231486 -7.39503,-0.150474 -14.79169,-0.156414 -22.1878,-0.209947 -1.12374,-0.01569 -2.24749,-0.02997 -3.37121,-0.04708 -2.42161,-0.03689 -3.51931,-0.0039 -5.87374,-0.247896 -2.15395,-0.2232 -2.13807,-0.413297 -4.19899,-0.503838 -0.58908,-0.02588 -1.17924,0.01288 -1.76886,0.01934 -4.36635,0.511588 -8.7623,0.258395 -13.14044,0.457335 -2.81096,0.605361 -5.56913,1.501389 -8.24787,2.543104 0,0 35.39471,23.95582 35.39471,23.95582 v 0 c 2.46122,-0.73681 4.96277,-1.4257 7.5402,-1.57845 4.34411,-0.27122 8.69864,-0.45155 13.04804,-0.16652 4.71746,0.20732 9.42974,-0.0275 14.14983,-0.0595 7.31539,-0.0248 14.63041,0.0124 21.94514,0.12116 7.28149,0.1522 14.57928,0.24476 21.83008,0.98907 0,0 -34.93871,-25.384461 -34.93871,-25.384461 z" />
    <path
       style="fill:#000000;stroke-width:0.264583"
       id="path2328"
       d="M 97.994418,98.83475 C 96.829564,91.686547 94.367015,84.868709 92.064587,78.031537 90.538111,73.17521 87.889492,68.787215 85.541357,64.303218 c -0.311886,-0.595577 -3.271388,-6.35998 -3.677483,-7.150592 -2.124197,-4.743151 -5.184812,-8.906304 -8.212201,-13.094245 -3.567465,-4.935053 -2.381536,-3.286114 -5.716376,-7.973639 0,0 -37.275301,-16.076709 -37.275301,-16.076709 v 0 c 2.379165,3.055773 3.700634,4.657218 5.900573,7.878107 2.111013,3.090691 3.890089,6.353972 5.837322,9.541293 0.599289,0.980948 1.242121,1.93462 1.863183,2.901932 3.851044,6.49492 7.263765,13.236209 10.096785,20.24077 1.570416,3.488171 3.128169,6.95211 4.168508,10.646375 0.571952,2.031011 1.046001,4.045405 1.007973,6.167139 -0.01035,0.577591 -0.190085,1.139624 -0.285126,1.709433 0,0 38.745204,19.741668 38.745204,19.741668 z" />
    <path
       style="fill:#000000;stroke-width:0.264583"
       id="path2330"
       d="m 60.393066,28.287003 c 4.187841,-4.155123 9.293492,-7.179959 14.368409,-10.106318 1.11419,-0.59542 2.215981,-1.214647 3.342569,-1.78626 1.461018,-0.741298 4.618236,-2.188179 6.144458,-2.90491 2.367317,-1.111718 4.699609,-2.229356 7.132579,-3.189519 2.736178,-1.1132153 5.326409,-2.5639321 8.115679,-3.5450486 1.13532,-0.3862829 2.28044,-0.3707215 3.44609,-0.2084181 0,0 -35.519525,-25.3723593 -35.519525,-25.3723593 v 0 c -1.397592,0.353349 -2.705332,0.961563 -3.96903,1.649486 -2.478365,1.353671 -4.898096,2.812381 -7.41843,4.08919 -5.294473,2.886157 -10.531432,5.8817279 -15.787944,8.836353 -5.598652,3.182123 -11.149959,6.4466236 -16.726735,9.6666239 0,0 36.87188,22.8711801 36.87188,22.8711801 z" />
    <path
       style="fill:#000000;stroke-width:0.264583"
       id="path2332"
       d="m 78.796903,-13.775235 c 0.57568,4.5140803 0.735571,9.0763719 1.282729,13.59275325 0.482738,3.98464695 0.812348,5.13924145 1.638398,9.11839055 1.702387,7.6779882 3.529219,15.3292582 5.167685,23.0212672 0.751674,2.81134 1.184215,5.682956 1.685589,8.542713 0.143489,0.492551 0.258086,0.994455 0.430467,1.477653 1.03786,2.909199 2.46852,5.972775 3.874706,8.731932 1.082051,2.208586 2.383108,4.299082 3.566298,6.452489 0.152371,0.261498 0.769683,1.421191 1.094907,1.613032 12.544818,7.399917 25.200908,14.609569 37.799238,21.918017 26.56555,15.411008 -123.938605,-71.7297095 1.93951,1.155023 -12.21173,-7.057099 -24.43206,-14.099323 -36.63518,-21.171297 -0.58431,-0.338616 0.78867,0.365395 1.42179,0.751769 0.89014,0.543229 1.73569,1.124034 2.54508,1.779722 1.11119,0.999876 0.55701,0.498197 1.66253,1.505037 0,0 39.80232,16.705498 39.80232,16.705498 v 0 c -0.94943,-1.247164 -0.4543,-0.656071 -1.48048,-1.777396 -0.49599,-0.542767 -0.94781,-1.126363 -1.46481,-1.649156 -10.80471,-10.925776 -37.34398,-5.715953 -39.66261,-23.511682 12.19035,7.060184 48.68747,28.366876 36.57105,21.180549 -12.51981,-7.425587 -25.18546,-14.602491 -37.7813,-21.898358 -0.22351,-0.129461 -0.90002,-0.507262 -0.67666,-0.377566 12.13402,7.045463 24.31741,14.006404 36.40871,21.124934 0.47929,0.282167 -2.1085,-0.603565 -1.61919,-0.402731 -1.94383,-1.518806 -3.04473,-3.834849 -4.41651,-5.834284 -1.59701,-2.894589 -3.48456,-5.675686 -4.35618,-8.908293 -0.79278,-3.172556 -1.75301,-6.299785 -2.83822,-9.384975 -2.58386,-7.648442 -4.83956,-15.398752 -6.43872,-23.319668 -0.29493,-1.452909 -0.63451,-2.897465 -0.88479,-4.358728 -0.65123,-3.802081 -0.92256,-7.638359 -0.80894,-11.493553 0.0273,-0.9253399 0.0599,-1.8536871 0.18326,-2.7711711 0.0862,-0.6410396 0.29559,-1.259395 0.44338,-1.8890924 0,0 -38.454057,-19.9228285 -38.454057,-19.9228285 z" />
    <path
       style="fill:#000000;stroke-width:0.264583"
       id="path2334"
       d="m 157.63483,92.732985 c -0.45965,-5.453909 1.06482,-10.853256 2.61132,-16.030046 1.41412,-4.10732 3.10482,-8.14212 5.29216,-11.903186 0.99121,-1.704342 2.26939,-3.56535 3.36794,-5.209418 2.30251,-3.389511 4.87822,-6.577118 7.29783,-9.880758 2.26245,-2.828904 3.87849,-6.066415 5.64869,-9.204484 1.55649,-2.781961 3.26343,-5.481764 5.06625,-8.110471 1.6288,-2.11364 3.65627,-3.863139 5.49921,-5.780855 1.44081,-1.46749 2.80518,-3.006781 3.89084,-4.756186 0,0 -37.51033,-21.73798929 -37.51033,-21.73798929 v 0 c -0.84781,1.48355709 -1.77921,2.91951539 -2.96727,4.16004209 -2.07207,2.1308261 -4.59046,3.8714013 -6.17427,6.4348122 -1.59344,2.809761 -3.05237,5.691877 -4.65467,8.496551 -0.66168,1.102317 -1.27914,2.231203 -1.95764,3.323252 -1.1487,1.848856 -2.49485,3.573965 -3.64098,5.425361 -2.42433,3.403055 -4.69225,6.908567 -6.64691,10.606185 -3.36971,5.848117 -6.87515,11.68818 -9.07585,18.102 -1.27257,3.98027 -2.32532,8.013303 -3.39906,12.051038 -0.20416,0.767731 -0.36275,1.547863 -0.59057,2.308908 -0.16846,0.56271 -0.39797,1.105307 -0.59695,1.657961 0,0 38.54026,20.047283 38.54026,20.047283 z" />
    <path
       style="fill:#000000;stroke-width:0.264583"
       id="path2336"
       d="m 197.49171,22.345637 c 7.9187,2.118658 15.57739,5.064259 23.184,8.09015 2.94037,1.09452 5.85147,2.24758 8.56757,3.835064 0.6063,0.354362 2.38078,1.489469 1.77137,1.140494 -11.59213,-6.638141 -23.14791,-13.339563 -34.72186,-20.009344 2.70857,1.563659 5.16726,3.490674 7.62568,5.410514 2.52074,2.150762 5.24879,4.013074 8.03874,5.791791 2.48265,-4.058157 27.39164,19.248027 41.76383,23.120706 0,0 -34.06577,-26.594945 -34.06577,-26.594945 v 0 c -13.2715,-6.2877 -27.96142,-18.1082095 32.26287,18.857867 -2.84295,-1.553276 -5.69659,-3.163802 -8.19417,-5.23975 -2.54716,-2.016635 -5.01857,-4.142279 -7.71714,-5.955598 -12.6762,-7.354027 -25.32663,-14.752648 -38.02859,-22.0620801 -0.67895,-0.3907081 -3.1615,-1.4953858 -3.8884,-1.7876932 -2.0752,-0.8344906 -4.21893,-1.4974144 -6.32869,-2.2351632 -8.11478,-2.6819317 -16.30163,-5.22954946 -24.07702,-8.8151921 0,0 33.80758,26.4531796 33.80758,26.4531796 z" />
    <path
       style="fill:#000000;stroke-width:0.264583"
       id="path2338"
       d="m 220.04743,26.999085 c -2.89682,3.658293 -6.46791,6.757596 -9.96962,9.822884 -4.36577,3.821893 -8.89907,7.441573 -13.28274,11.242428 -0.41556,0.400805 -0.85358,0.779558 -1.24668,1.20241 -0.92618,0.996283 -1.74903,2.084425 -2.65489,3.099223 -1.51373,1.695773 -2.93295,3.406995 -4.31815,5.211604 -2.3748,3.037798 -4.35499,6.342827 -6.31619,9.652881 -0.25322,0.424471 -0.50644,0.848942 -0.75965,1.273416 0,0 37.19083,21.429 37.19083,21.429 v 0 c 0.23558,-0.439433 0.47116,-0.878863 0.70674,-1.318294 0.77605,-1.455248 1.4679,-2.967961 2.31235,-4.385397 1.01479,-1.703366 2.1787,-3.318976 3.27717,-4.967613 2.48974,-3.184869 5.36319,-6.012296 8.18378,-8.898461 3.64524,-4.220245 7.62072,-8.132493 12.02472,-11.567882 3.98425,-3.127513 8.14694,-6.022634 12.01767,-9.293188 0,0 -37.16534,-22.503011 -37.16534,-22.503011 z" />
    <path
       style="fill:#000000;stroke-width:0.264583"
       id="path2340"
       d="m 136.04347,95.597732 c -1.52319,0.779489 -3.02197,1.655752 -4.5973,2.329812 -0.74003,0.316646 -1.5154,0.543378 -2.27031,0.822696 -2.61744,0.858895 -4.18405,2.52017 -5.61036,4.79282 -1.36242,2.00108 -2.3274,4.21775 -3.42855,6.36256 -0.19729,0.34917 -0.3828,0.70526 -0.59186,1.04751 -0.87618,1.43432 -0.47612,0.5415 -1.31305,2.17656 -0.72347,1.41339 -1.21926,2.83639 -1.67112,4.35475 -0.69374,2.68196 -1.4247,5.35437 -1.48636,8.13426 0.0733,1.41035 0.40739,2.8755 1.19933,4.07488 0.35391,0.53601 0.88059,0.93801 1.35712,1.35118 0.26693,0.23379 0.51953,0.48504 0.8008,0.70137 0.71249,0.54796 1.01092,0.62522 1.78094,1.10422 1.14214,0.71048 2.23543,1.4935 3.38028,2.20216 2.16489,1.39 4.47418,2.55461 6.48503,4.16971 0.72624,0.45626 1.34407,1.05505 2.016,1.5764 0.713,0.55321 1.34263,0.90258 2.00658,1.54307 12.24656,9.41219 2.30988,1.82772 38.67277,22.27528 0.27246,0.15321 0.62095,0.0785 0.92673,0.14329 0.88301,0.18724 1.72007,0.43077 2.61743,0.56356 0.68866,0.0755 1.01601,0.19516 1.69984,-0.0899 0.37097,-0.15465 0.69144,-0.41002 1.03402,-0.62019 0.88866,-0.54519 1.74242,-1.13577 2.63763,-1.6703 0.98493,-0.63156 1.86861,-1.42557 2.87554,-2.02421 0.94663,-0.56279 1.86224,-0.97009 2.79066,-1.59718 1.68078,-1.11592 3.25669,-2.33649 4.45128,-3.97294 0.87278,-1.21181 1.24656,-2.65234 1.52132,-4.09424 0.55881,-2.00422 1.56409,-3.79144 2.60775,-5.57301 1.07848,-1.91502 2.37536,-3.68981 3.52316,-5.56193 0.64144,-1.06685 1.25107,-2.24338 1.44773,-3.4907 0.14474,-0.91805 0.1392,-2.2576 0.15846,-3.16715 -0.11372,-2.30303 0.52502,-5.50738 -0.4867,-7.65477 -0.37179,-0.78913 -0.96827,-1.45129 -1.45241,-2.17694 -1.58756,-1.82264 -3.21511,-3.61988 -4.98585,-5.26848 -10.83511,-10.08781 -40.2784,-23.330246 -40.9243,-23.693212 -3.63292,0.215022 -7.06296,-1.213956 -10.59633,-1.797809 -0.59029,-0.09754 -1.1898,-0.127326 -1.7847,-0.19099 -1.76822,0.0047 -3.58939,0.01939 -5.20669,0.842664 -0.26652,0.13567 -1.75124,1.127953 -2.03658,1.316828 -3.29939,0.831858 -6.6837,0.891906 -10.06363,0.92719 -4.55879,0.04759 -2.99411,0.04618 -7.41477,-0.04449 -3.9936,-0.02098 -2.07801,-0.0599 -5.74719,0.09403 0,0 34.31601,24.613809 34.31601,24.613809 v 0 c 3.16627,-0.26395 1.49864,-0.14649 5.00387,-0.33818 3.7408,-0.1151 7.48572,-0.088 11.22529,-0.23131 1.96717,-0.0754 4.94101,-0.19903 6.93586,-0.64535 0.68337,-0.15289 1.31875,-0.47162 1.97812,-0.70743 0.26247,-0.10384 0.51492,-0.2379 0.78742,-0.3115 1.4328,-0.38699 3.05849,0.024 4.48794,0.1364 1.78644,0.33696 3.5692,0.68317 5.35097,1.0442 0.89417,0.18118 3.85845,0.74963 4.70118,1.01723 0.61144,0.19416 1.17677,0.51133 1.76515,0.767 -11.7949,-6.78713 -23.61911,-13.52359 -35.38471,-20.36139 -0.49084,-0.28526 1.04685,0.44208 1.55289,0.6994 2.68336,1.36448 4.94229,3.33792 6.996,5.51891 0.4355,0.38949 0.85329,0.79974 1.3065,1.16847 0.26683,0.21709 0.64126,0.31203 0.84959,0.58574 0.64227,0.8438 0.63844,3.9438 0.7171,5.00122 -0.1619,1.63718 -0.23642,3.30059 -1.09498,4.75015 -0.91596,1.94291 -2.25994,3.63791 -3.19786,5.57162 -1.20136,1.98572 -2.52847,3.92071 -3.31045,6.12291 -0.14557,0.30967 -0.31086,0.61081 -0.4367,0.92901 -0.27324,0.69091 -0.14381,1.47697 -0.63683,2.08186 -0.76267,1.19205 -2.10845,1.89271 -3.23982,2.67737 -1.88313,1.06138 -3.61684,2.37028 -5.56732,3.30477 -0.53818,0.24414 -1.43859,0.79013 -2.09457,0.54958 -0.29099,-0.1067 -1.02546,-0.97757 -1.52308,-0.82743 -0.75222,-0.2934 -1.5838,-0.55137 -2.2899,-0.945 -0.23721,-0.13224 -0.90129,-0.60481 -0.66565,-0.46981 37.21322,21.31847 49.3402,26.28639 35.62164,20.62122 -0.25206,-0.10252 -0.52495,-0.1641 -0.75618,-0.30755 -0.47364,-0.29385 -0.81794,-0.76382 -1.27851,-1.07774 -0.22317,-0.15211 -0.48409,-0.24359 -0.70606,-0.39744 -0.53129,-0.36825 -0.956,-0.87809 -1.52815,-1.19399 -2.21854,-1.51115 -4.14711,-3.44969 -6.6142,-4.60465 -0.74527,-0.45823 -1.51067,-0.88317 -2.25583,-1.34158 -1.1647,-0.71649 -2.14876,-1.71748 -3.48534,-2.13425 -0.46208,-0.30345 -0.99502,-0.68838 -1.5159,-0.89436 -0.24867,-0.0983 -0.53311,-0.0933 -0.77495,-0.20743 -0.62144,-0.29324 -1.12014,-0.92487 -1.63132,-1.3603 -0.11929,-0.19897 -0.2859,-0.37638 -0.35786,-0.59693 -0.17102,-0.52411 -0.0954,-1.3897 -0.0629,-1.89463 0.0877,-1.36141 0.25914,-2.71859 0.60931,-4.03993 0.79185,-2.42559 1.98865,-4.64459 3.38046,-6.78018 0.57896,-1.07164 1.23217,-2.12216 1.77781,-3.20997 0.44777,-0.89268 0.74842,-1.86416 1.42175,-2.63612 1.24348,-1.4499 2.41453,-2.0681 4.21116,-2.71919 2.37636,-0.99345 4.62542,-2.33166 7.15671,-2.91191 0,0 -36.066,-24.233666 -36.066,-24.233666 z" />
  </g>
</svg>
